<?xml version="1.0" encoding="UTF-8"?>
<svg id="Layer_2" data-name="Layer 2" xmlns="http://www.w3.org/2000/svg" viewBox="0 0 48 48">
  <defs>
  </defs>
  <g id="Layer_1-2" data-name="Layer 1">
    <path fill="currentColor" class="cls-1" d="M40.26,7.32c.44-2.57,1.1-4.19,1.82-4.2h0c1.35,0,2.44,5.62,2.44,12.55s-1.09,12.55-2.44,12.55c-.55,0-1.06-.95-1.47-2.55-.65,5.85-1.99,9.87-3.55,9.87-1.21,0-2.29-2.42-3.01-6.23-.5,7.25-1.74,12.39-3.2,12.39-.92,0-1.75-2.04-2.37-5.36-.74,6.85-2.46,11.65-4.46,11.65s-3.72-4.8-4.46-11.65c-.61,3.32-1.45,5.36-2.37,5.36-1.46,0-2.7-5.14-3.2-12.39-.73,3.81-1.81,6.23-3.01,6.23-1.56,0-2.9-4.02-3.55-9.87-.41,1.6-.92,2.55-1.47,2.55-1.35,0-2.44-5.62-2.44-12.55S4.58,3.13,5.93,3.13c.72,0,1.37,1.62,1.82,4.2.72-4.44,1.89-7.32,3.21-7.32,1.57,0,2.93,4.08,3.57,10,.63-4.31,1.58-7.06,2.65-7.06,1.5,0,2.77,5.41,3.24,12.95.89-3.87,2.17-6.29,3.59-6.29s2.7,2.43,3.59,6.29c.47-7.54,1.74-12.95,3.24-12.95,1.07,0,2.02,2.75,2.65,7.06.64-5.92,2-10,3.57-10,1.32,0,2.49,2.89,3.21,7.32ZM0,14.44c0-3.1.62-5.61,1.38-5.61s1.38,2.51,1.38,5.61-.62,5.61-1.38,5.61-1.38-2.51-1.38-5.61ZM45.23,14.44c0-3.1.62-5.61,1.38-5.61s1.38,2.51,1.38,5.61-.62,5.61-1.38,5.61-1.38-2.51-1.38-5.61Z"/>
  </g>
</svg>