<svg xmlns="http://www.w3.org/2000/svg" xmlns:xlink="http://www.w3.org/1999/xlink" width="44.325" height="39.021" viewBox="0 0 44.325 39.021"><defs><clipPath id="a"><rect width="44.325" height="39.021" fill="#007e84"/></clipPath></defs><g clip-path="url(#a)"><path d="M14.552,22.574,15.731,21.4a1.828,1.828,0,0,1,2.588,0l7.014,7.034a.7.7,0,0,0,1.187-.491V6a.7.7,0,0,0-.695-.695h-24A1.828,1.828,0,0,1,0,3.475V1.828A1.828,1.828,0,0,1,1.828,0H29.994a1.828,1.828,0,0,1,1.828,1.828V27.941a.7.7,0,0,0,1.187.491L40.023,21.4a1.828,1.828,0,0,1,2.588,0l1.178,1.178a1.828,1.828,0,0,1,0,2.586L30.464,38.485a1.828,1.828,0,0,1-2.586,0L14.552,25.159a1.828,1.828,0,0,1,0-2.586" fill="#007e84"/></g></svg>