<?xml version="1.0" encoding="UTF-8"?><svg xmlns="http://www.w3.org/2000/svg" xmlns:xlink="http://www.w3.org/1999/xlink" viewBox="0 0 1334.288 284.648"><defs><style>.p{fill:none;}.q{fill:#fabfe0;}.r{fill:#fab7dd;}.s{fill:#f9aed8;}.t{fill:#fac0e1;}.u{fill:#f686c6;}.v{fill:#f793cb;}.w{fill:#fcdaee;}.x{fill:#f685c5;}.y{fill:#f1faee;}.a`{clip-path:url(#f);}.aa{clip-path:url(#e);}.ab{clip-path:url(#d);}.ac{clip-path:url(#n);}.ad{clip-path:url(#m);}.ae{clip-path:url(#l);}.af{clip-path:url(#k);}.ag{clip-path:url(#j);}.ah{clip-path:url(#i);}.ai{clip-path:url(#h);}.aj{clip-path:url(#g);}.ak{clip-path:url(#o);}.al{isolation:isolate;}</style><clipPath id="d"><path class="p" d="M162.136,159.591l-29.631,29.922c-8.364,8.446-19.729,12.614-33.167,12.614l29.631-29.922c13.438,0,24.803-4.168,33.167-12.614Z"/></clipPath><clipPath id="e"><path class="p" d="M63.761,88.01l29.631-29.922c-10.284,10.385-16.051,27.181-15.596,50.439,.836,42.753,21.272,63.679,51.173,63.679l-29.631,29.922c-29.901,0-50.337-20.926-51.173-63.679-.455-23.258,5.312-40.054,15.596-50.439Z"/></clipPath><clipPath id="f"><path class="p" d="M27.965,55.754l29.631-29.922C74.337,8.925,97.769,0,125.6,0l-29.631,29.922c-27.832,0-51.263,8.925-68.005,25.831Z"/></clipPath><clipPath id="g"><path class="p" d="M198.103,191.672l-29.631,29.922c18.359-18.539,28.693-46.584,27.983-82.842-1.363-69.659-42.19-108.829-100.486-108.829L125.6,0c58.296,0,99.123,39.17,100.486,108.829,.709,36.258-9.624,64.303-27.983,82.842Z"/></clipPath><clipPath id="h"><path class="p" d="M356.516,163.915l-29.631,29.922c-5.505,5.56-13.327,8.29-23.658,8.29-24.215,0-34.964-14.643-35.561-45.141l29.631-29.922c.597,30.499,11.346,45.141,35.561,45.141,10.331,0,18.153-2.731,23.658-8.29Z"/></clipPath><clipPath id="i"><path class="p" d="M391.085,196.56l-29.631,29.922c14.865-15.011,22.824-37.959,22.225-68.595l29.631-29.922c.599,30.637-7.36,53.584-22.225,68.595Z"/></clipPath><clipPath id="j"><path class="p" d="M545.638,86.846l29.631-29.922c-10.272,10.373-15.718,27.649-15.255,51.309,.836,42.753,19.78,63.973,47.587,63.973,13.796,0,24.148-4.811,31.655-12.392l-29.631,29.922c-7.507,7.581-17.86,12.392-31.655,12.392-27.807,0-46.751-21.22-47.587-63.973-.463-23.66,4.983-40.936,15.255-51.309Z"/></clipPath><clipPath id="k"><path class="p" d="M674.457,192.488l-29.631,29.922c10.552-10.656,18.272-24.153,23.062-39.417l29.631-29.922c-4.79,15.264-12.51,28.761-23.062,39.417Z"/></clipPath><clipPath id="l"><path class="p" d="M509.98,55.364l29.631-29.922C556.202,8.687,579.298,0,606.327,0l-29.631,29.922c-27.028,0-50.124,8.687-66.715,25.441Z"/></clipPath><clipPath id="m"><path class="p" d="M576.696,29.922L606.327,0c46.345,0,76.143,25.713,87.881,60.39l-29.631,29.922c-11.739-34.678-41.537-60.39-87.881-60.39Z"/></clipPath><clipPath id="n"><path class="p" d="M1205.94,173.249l29.631-29.922c-1.394,1.407-7.781,15.755-16.809,33.068l-29.631,29.922c9.028-17.312,15.415-31.66,16.809-33.068Z"/></clipPath><clipPath id="o"><path class="p" d="M1238.22,71.584l-29.631,29.922c-.111,.112-.203,.17-.275,.17-.303,0-8.384-15.846-17.669-31.692l29.631-29.922c9.285,15.846,17.366,31.692,17.669,31.692,.072,0,.163-.058,.275-.17Z"/></clipPath></defs><g id="a"/><g id="b"><g id="c"><g><g class="al"><polygon class="s" points="124.091 245.184 153.723 215.262 154.494 254.726 124.863 284.648 124.091 245.184"/><g class="al"><g class="ab"><g class="al"><path class="s" d="M99.338,202.128l29.631-29.922c13.438,0,24.803-4.168,33.167-12.614l-29.631,29.922c-8.364,8.446-19.729,12.614-33.167,12.614"/></g></g></g><g class="al"><g class="aa"><g class="al"><path class="s" d="M63.761,88.01l29.631-29.922c-10.284,10.385-16.051,27.181-15.596,50.439,.836,42.753,21.272,63.679,51.173,63.679l-29.631,29.922c-29.901,0-50.337-20.926-51.173-63.679-.455-23.258,5.312-40.054,15.596-50.439"/></g></g></g><g class="al"><g class="a`"><g class="al"><path class="s" d="M27.965,55.754l29.631-29.922C74.337,8.925,97.769,0,125.6,0l-29.631,29.922c-27.832,0-51.263,8.925-68.005,25.831"/></g></g></g><path class="y" d="M95.969,29.922c58.296,0,99.123,39.17,100.486,108.829,1.164,59.491-27.4,96.869-72.364,106.432l.772,39.464h-47.833l-.772-39.464C30.93,235.621,1.204,198.545,.035,138.752-1.328,69.092,37.664,29.922,95.969,29.922Zm3.368,172.206c29.892,0,49.524-20.623,48.693-63.082-.842-43.047-21.281-63.679-51.173-63.679s-49.518,20.926-48.694,63.082c.836,42.753,21.272,63.679,51.173,63.679"/><g class="al"><g class="aj"><g class="al"><path class="s" d="M95.969,29.922L125.6,0c58.296,0,99.123,39.17,100.486,108.829,.709,36.258-9.624,64.303-27.983,82.842l-29.631,29.922c18.359-18.539,28.693-46.584,27.983-82.842-1.363-69.659-42.19-108.829-100.486-108.829"/></g></g></g></g><g class="al"><g class="al"><g class="ai"><g class="al"><path class="s" d="M267.666,156.987l29.631-29.922c.597,30.499,11.346,45.141,35.561,45.141,10.331,0,18.153-2.731,23.658-8.29l-29.631,29.922c-5.505,5.56-13.327,8.29-23.658,8.29-24.215,0-34.964-14.643-35.561-45.141"/></g></g></g><g class="al"><g class="ah"><g class="al"><path class="s" d="M383.678,157.887l29.631-29.922c.599,30.637-7.36,53.584-22.225,68.595l-29.631,29.922c14.865-15.011,22.824-37.959,22.225-68.595"/></g></g></g><polygon class="w" points="217.126 34.111 246.757 4.189 294.893 4.189 265.262 34.111 217.126 34.111"/><polygon class="s" points="265.262 34.111 294.893 4.189 297.297 127.064 267.666 156.987 265.262 34.111"/><path class="y" d="M381.257,34.111l2.421,123.776c1.158,59.196-29.635,89.686-80.463,89.686-50.818,0-82.51-30.489-83.668-89.686l-2.421-123.776h48.136l2.403,122.875c.597,30.499,11.346,45.141,35.561,45.141,23.921,0,34.392-14.643,33.795-45.141l-2.403-122.875h46.639Z"/><polygon class="s" points="381.257 34.111 410.888 4.189 413.309 127.965 383.678 157.887 381.257 34.111"/><polygon class="w" points="334.619 34.111 364.25 4.189 410.888 4.189 381.257 34.111 334.619 34.111"/></g><g class="al"><polygon class="y" points="457.494 34.111 461.588 243.392 413.746 243.392 409.652 34.111 457.494 34.111"/><polygon class="s" points="457.494 34.111 487.125 4.189 491.219 213.47 461.588 243.392 457.494 34.111"/><polygon class="w" points="409.652 34.111 439.283 4.189 487.125 4.189 457.494 34.111 409.652 34.111"/></g><g class="al"><g class="al"><g class="ag"><g class="al"><path class="s" d="M545.638,86.846l29.631-29.922c-10.272,10.373-15.718,27.649-15.255,51.309,.836,42.753,19.78,63.973,47.587,63.973,13.796,0,24.148-4.811,31.655-12.392l-29.631,29.922c-7.507,7.581-17.86,12.392-31.655,12.392-27.807,0-46.751-21.22-47.587-63.973-.463-23.66,4.983-40.936,15.255-51.309"/></g></g></g><polygon class="q" points="621.303 170.739 650.934 140.816 697.518 153.071 667.887 182.993 621.303 170.739"/><g class="al"><g class="af"><g class="al"><path class="s" d="M667.887,182.993l29.631-29.922c-4.79,15.264-12.51,28.761-23.062,39.417l-29.631,29.922c10.552-10.656,18.272-24.153,23.062-39.417"/></g></g></g><g class="al"><g class="ae"><g class="al"><path class="s" d="M509.98,55.364l29.631-29.922C556.202,8.687,579.298,0,606.327,0l-29.631,29.922c-27.028,0-50.124,8.687-66.715,25.441"/></g></g></g><path class="y" d="M576.696,29.922c46.345,0,76.143,25.713,87.881,60.39l-46.393,12.558c-8.702-17.041-22.658-27.504-42.693-27.504-29.001,0-45.909,21.827-45.108,62.788,.836,42.753,19.78,63.973,47.587,63.973,23.324,0,36.807-13.752,43.333-31.389l46.585,12.255c-11.821,37.673-41.49,64.579-87.531,64.579-55.614,0-96.712-37.967-98.109-109.418-1.374-70.265,37.944-108.232,94.449-108.232Z"/><g class="al"><g class="ad"><g class="al"><path class="s" d="M576.696,29.922L606.327,0c46.345,0,76.143,25.713,87.881,60.39l-29.631,29.922c-11.739-34.678-41.537-60.39-87.881-60.39"/></g></g></g></g><g class="al"><polygon class="s" points="738.176 185.087 767.807 155.165 768.947 213.47 739.316 243.392 738.176 185.087"/><polygon class="x" points="760.044 156.693 789.675 126.77 767.807 155.165 738.176 185.087 760.044 156.693"/><polygon class="w" points="736.683 123.806 766.314 93.884 767.508 93.884 737.877 123.806 736.683 123.806"/><polygon class="v" points="736.316 90.019 765.947 60.097 766.314 93.884 736.683 123.806 736.316 90.019"/><polygon class="q" points="793.994 119.02 823.625 89.098 894.22 213.47 864.589 243.392 793.994 119.02"/><polygon class="w" points="687.39 34.111 717.021 4.189 764.854 4.189 735.223 34.111 687.39 34.111"/><polygon class="s" points="735.223 34.111 764.854 4.189 765.947 60.097 736.316 90.019 735.223 34.111"/><polygon class="w" points="801.896 34.111 831.527 4.189 888.032 4.189 858.401 34.111 801.896 34.111"/><polygon class="x" points="858.401 34.111 888.032 4.189 823.625 89.098 793.994 119.02 858.401 34.111"/><path class="y" d="M858.401,34.111l-64.407,84.909,70.595,124.372h-55.31l-49.235-86.7-21.868,28.395,1.14,58.305h-47.833l-4.093-209.281h47.833l1.094,55.908,.366,33.787h1.194c.282-.606,11.342-16.149,19.786-27.807l44.234-61.888h56.505Z"/></g><g class="al"><polygon class="s" points="930.336 165.953 959.967 136.03 961.482 213.47 931.851 243.392 930.336 165.953"/><polygon class="s" points="928.635 78.958 958.266 49.036 959.09 91.192 929.459 121.114 928.635 78.958"/><polygon class="w" points="929.459 121.114 959.09 91.192 1027.556 91.192 997.925 121.114 929.459 121.114"/><polygon class="s" points="997.925 121.114 1027.556 91.192 1028.433 136.03 998.802 165.953 997.925 121.114"/><polygon class="y" points="1016.552 34.111 1017.429 78.958 928.635 78.958 929.459 121.114 997.925 121.114 998.802 165.953 930.336 165.953 931.851 243.392 884.018 243.392 879.925 34.111 1016.552 34.111"/><polygon class="s" points="1016.552 34.111 1046.183 4.189 1047.06 49.036 1017.429 78.958 1016.552 34.111"/><polygon class="w" points="879.925 34.111 909.556 4.189 1046.183 4.189 1016.552 34.111 879.925 34.111"/></g><g class="al"><polygon class="y" points="1088.6 34.111 1092.693 243.392 1044.86 243.392 1040.767 34.111 1088.6 34.111"/><polygon class="s" points="1088.6 34.111 1118.231 4.189 1122.324 213.47 1092.693 243.392 1088.6 34.111"/><polygon class="w" points="1040.767 34.111 1070.398 4.189 1118.231 4.189 1088.6 34.111 1040.767 34.111"/></g><g class="al"><polygon class="u" points="1189.131 206.317 1218.762 176.395 1199.158 213.47 1169.527 243.392 1189.131 206.317"/><g class="al"><g class="ac"><g class="al"><path class="s" d="M1205.94,173.249l29.631-29.922c-1.394,1.407-7.781,15.755-16.809,33.068l-29.631,29.922c9.028-17.312,15.415-31.66,16.809-33.068"/></g></g></g><polygon class="t" points="1238.305 137.255 1267.936 107.332 1334.288 213.47 1304.657 243.392 1238.305 137.255"/><g class="al"><g class="ak"><g class="al"><path class="s" d="M1190.645,69.984l29.631-29.922c9.285,15.846,17.366,31.692,17.669,31.692,.072,0,.163-.058,.275-.17l-29.631,29.922c-.111,.112-.203,.17-.275,.17-.303,0-8.384-15.846-17.669-31.692"/></g></g></g><polygon class="r" points="1169.917 34.111 1199.548 4.189 1220.276 40.061 1190.645 69.984 1169.917 34.111"/><polygon class="w" points="1112.218 34.111 1141.849 4.189 1199.548 4.189 1169.917 34.111 1112.218 34.111"/><polygon class="w" points="1242.268 34.111 1271.899 4.189 1327.806 4.189 1298.175 34.111 1242.268 34.111"/><polygon class="v" points="1298.175 34.111 1327.806 4.189 1267.936 107.332 1238.305 137.255 1298.175 34.111"/><path class="y" d="M1298.175,34.111l-59.87,103.144,66.353,106.138h-58.599l-21.951-37.37c-10.217-17.941-17.684-32.887-17.987-32.887-.9,0-7.479,14.946-16.989,33.181l-19.604,37.076h-56.505l63.071-107.635-63.876-101.646h57.699l20.728,35.873c9.285,15.846,17.366,31.692,17.669,31.692,1.194,0,8.053-16.14,16.112-31.986l17.842-35.579h55.908Z"/></g></g></g></g></svg>