<svg xmlns="http://www.w3.org/2000/svg" viewBox="0 0 271.564 97.211"><defs><style>.cls-1{fill:#f1faee;}.cls-1,.cls-2,.cls-3,.cls-4,.cls-5{stroke:#000;stroke-miterlimit:10;}.cls-2{fill:#a4dade;}.cls-3{fill:#f466b6;}.cls-4{fill:#54acb0;}.cls-5{fill:#fab7dd;stroke-width:0.963px;}</style></defs><g id="Layer_2" data-name="Layer 2"><g id="Layer_1-2" data-name="Layer 1"><path class="cls-1" d="M.5,95.8V47.115l9.259-5.451L12,50.414A16.224,16.224,0,0,1,26.65,41.969c4.884,0,9.564.407,12.616,3.358L37.435,59.063c-4.579-2.645-7.326-3.256-9.87-3.256-6.919,0-13.024,4.986-13.024,11.3V95.8Z"/><path class="cls-1" d="M74.368,41.257a27.666,27.666,0,0,1,28.083,27.676c0,15.669-12.413,27.778-28.083,27.778C58.5,96.711,46.591,84.6,46.591,68.933A27.282,27.282,0,0,1,74.368,41.257Zm0,41.819A14.449,14.449,0,0,0,88.511,68.933c0-7.428-6.613-13.94-14.143-13.94a14.043,14.043,0,0,0,0,28.083Z"/><path class="cls-1" d="M111.664,49.24l2.892-6.864h2.849V32.914l14.918-8.78-.063,18.242h18.417l-1.628,11.6H132.26V72.7c0,7.529,3.561,10.989,6.919,10.989,3.663,0,5.494-1.119,8.445-4.783l7.53,12.516c-3.663,3.663-9.768,5.291-14.449,5.291-14.041,0-23.3-7.631-23.3-24.115V52.551Z"/><path class="cls-1" d="M189.238,41.257a27.667,27.667,0,0,1,28.083,27.676c0,15.669-12.414,27.778-28.083,27.778-15.873,0-27.778-12.109-27.778-27.778A27.283,27.283,0,0,1,189.238,41.257Zm0,41.819a14.45,14.45,0,0,0,14.143-14.143c0-7.428-6.614-13.94-14.143-13.94a14.043,14.043,0,0,0,0,28.083Z"/><path class="cls-1" d="M232.268,95.671V46.991l9.259-5.451,2.239,8.75a16.227,16.227,0,0,1,14.652-8.445c4.884,0,9.564.407,12.617,3.358L269.2,58.939c-4.579-2.645-7.326-3.256-9.869-3.256-6.92,0-13.024,4.986-13.024,11.294V95.671Z"/><path class="cls-2" d="M.5,89.973V41.293l9.259-5.452L12,44.592A16.224,16.224,0,0,1,26.65,36.147c4.884,0,9.564.407,12.616,3.358L37.435,53.241c-4.579-2.645-7.326-3.256-9.87-3.256-6.919,0-13.024,4.986-13.024,11.294V89.973Z"/><path class="cls-2" d="M74.368,35.435a27.666,27.666,0,0,1,28.083,27.676c0,15.669-12.413,27.777-28.083,27.777-15.873,0-27.777-12.108-27.777-27.777A27.282,27.282,0,0,1,74.368,35.435Zm0,41.819A14.449,14.449,0,0,0,88.511,63.111c0-7.428-6.613-13.94-14.143-13.94a14.043,14.043,0,0,0,0,28.083Z"/><path class="cls-2" d="M111.664,43.417l2.892-6.863h2.849V27.091l14.918-8.78-.063,18.243h18.417l-1.628,11.6H132.26V66.876c0,7.529,3.561,10.988,6.919,10.988,3.663,0,5.494-1.119,8.445-4.782l7.53,12.516c-3.663,3.662-9.768,5.29-14.449,5.29-14.041,0-23.3-7.631-23.3-24.115V46.729Z"/><path class="cls-2" d="M189.238,35.435a27.667,27.667,0,0,1,28.083,27.676c0,15.669-12.414,27.777-28.083,27.777-15.873,0-27.778-12.108-27.778-27.777A27.283,27.283,0,0,1,189.238,35.435Zm0,41.819a14.45,14.45,0,0,0,14.143-14.143c0-7.428-6.614-13.94-14.143-13.94a14.043,14.043,0,0,0,0,28.083Z"/><path class="cls-2" d="M232.268,89.848V41.169l9.259-5.452,2.239,8.751a16.225,16.225,0,0,1,14.652-8.445c4.884,0,9.564.406,12.617,3.357L269.2,53.117c-4.579-2.646-7.326-3.256-9.869-3.256-6.92,0-13.024,4.985-13.024,11.294V89.848Z"/><path class="cls-3" d="M.5,84.15V35.47l9.259-5.451L12,38.77A16.222,16.222,0,0,1,26.65,30.325c4.884,0,9.564.406,12.616,3.357L37.435,47.419c-4.579-2.646-7.326-3.256-9.87-3.256-6.919,0-13.024,4.985-13.024,11.294V84.15Z"/><path class="cls-3" d="M74.368,29.612a27.666,27.666,0,0,1,28.083,27.676c0,15.67-12.413,27.778-28.083,27.778-15.873,0-27.777-12.108-27.777-27.778A27.282,27.282,0,0,1,74.368,29.612Zm0,41.819A14.449,14.449,0,0,0,88.511,57.288c0-7.427-6.613-13.939-14.143-13.939a14.042,14.042,0,0,0,0,28.082Z"/><path class="cls-3" d="M111.664,37.6l2.892-6.864h2.849V21.269l14.918-8.78-.063,18.242h18.417l-1.628,11.6H132.26V61.053c0,7.53,3.561,10.989,6.919,10.989,3.663,0,5.494-1.119,8.445-4.782l7.53,12.515c-3.663,3.663-9.768,5.291-14.449,5.291-14.041,0-23.3-7.631-23.3-24.115V40.907Z"/><path class="cls-3" d="M189.238,29.612a27.667,27.667,0,0,1,28.083,27.676c0,15.67-12.414,27.778-28.083,27.778-15.873,0-27.778-12.108-27.778-27.778A27.283,27.283,0,0,1,189.238,29.612Zm0,41.819a14.45,14.45,0,0,0,14.143-14.143c0-7.427-6.614-13.939-14.143-13.939a14.042,14.042,0,0,0,0,28.082Z"/><path class="cls-3" d="M232.268,84.026V35.346l9.259-5.451,2.239,8.75A16.227,16.227,0,0,1,258.418,30.2c4.884,0,9.564.407,12.617,3.358L269.2,47.294c-4.579-2.645-7.326-3.256-9.869-3.256-6.92,0-13.024,4.986-13.024,11.3V84.026Z"/><path class="cls-4" d="M.5,78.328V29.648L9.759,24.2,12,32.947A16.224,16.224,0,0,1,26.65,24.5c4.884,0,9.564.407,12.616,3.358L37.435,41.6c-4.579-2.645-7.326-3.256-9.87-3.256-6.919,0-13.024,4.986-13.024,11.294V78.328Z"/><path class="cls-4" d="M74.368,23.79a27.666,27.666,0,0,1,28.083,27.676c0,15.669-12.413,27.777-28.083,27.777-15.873,0-27.777-12.108-27.777-27.777A27.282,27.282,0,0,1,74.368,23.79Zm0,41.819A14.449,14.449,0,0,0,88.511,51.466c0-7.428-6.613-13.94-14.143-13.94a14.043,14.043,0,0,0,0,28.083Z"/><path class="cls-4" d="M111.664,31.773l2.892-6.864h2.849V15.446l14.918-8.779-.063,18.242h18.417l-1.628,11.6H132.26V55.231c0,7.529,3.561,10.988,6.919,10.988,3.663,0,5.494-1.119,8.445-4.782l7.53,12.516c-3.663,3.662-9.768,5.29-14.449,5.29-14.041,0-23.3-7.631-23.3-24.114V35.084Z"/><path class="cls-4" d="M189.238,23.79a27.667,27.667,0,0,1,28.083,27.676c0,15.669-12.414,27.777-28.083,27.777-15.873,0-27.778-12.108-27.778-27.777A27.283,27.283,0,0,1,189.238,23.79Zm0,41.819a14.45,14.45,0,0,0,14.143-14.143c0-7.428-6.614-13.94-14.143-13.94a14.043,14.043,0,0,0,0,28.083Z"/><path class="cls-4" d="M232.268,78.2V29.524l9.259-5.452,2.239,8.751a16.225,16.225,0,0,1,14.652-8.445c4.884,0,9.564.407,12.617,3.357L269.2,41.472c-4.579-2.646-7.326-3.256-9.869-3.256-6.92,0-13.024,4.985-13.024,11.294V78.2Z"/><path class="cls-5" d="M.5,72.505V23.826l9.259-5.452L12,27.125A16.222,16.222,0,0,1,26.65,18.68c4.884,0,9.564.406,12.616,3.357L37.435,35.774c-4.579-2.646-7.326-3.256-9.87-3.256-6.919,0-13.024,4.985-13.024,11.294V72.505Z"/><path class="cls-5" d="M74.368,17.967a27.666,27.666,0,0,1,28.083,27.676c0,15.67-12.413,27.778-28.083,27.778-15.873,0-27.777-12.108-27.777-27.778A27.282,27.282,0,0,1,74.368,17.967Zm0,41.819A14.449,14.449,0,0,0,88.511,45.643c0-7.427-6.613-13.939-14.143-13.939a14.042,14.042,0,0,0,0,28.082Z"/><path class="cls-5" d="M111.664,25.95l2.892-6.864h2.849V9.624L132.323.844l-.063,18.242h18.417l-1.628,11.6H132.26V49.408c0,7.53,3.561,10.989,6.919,10.989,3.663,0,5.494-1.119,8.445-4.782l7.53,12.515c-3.663,3.663-9.768,5.291-14.449,5.291-14.041,0-23.3-7.631-23.3-24.115V29.262Z"/><path class="cls-5" d="M189.238,17.967a27.667,27.667,0,0,1,28.083,27.676c0,15.67-12.414,27.778-28.083,27.778-15.873,0-27.778-12.108-27.778-27.778A27.283,27.283,0,0,1,189.238,17.967Zm0,41.819a14.45,14.45,0,0,0,14.143-14.143c0-7.427-6.614-13.939-14.143-13.939a14.042,14.042,0,0,0,0,28.082Z"/><path class="cls-5" d="M232.268,72.381V23.7l9.259-5.451L243.766,27a16.227,16.227,0,0,1,14.652-8.445c4.884,0,9.564.407,12.617,3.358L269.2,35.649c-4.579-2.645-7.326-3.256-9.869-3.256-6.92,0-13.024,4.986-13.024,11.3V72.381Z"/></g></g></svg>