<svg xmlns="http://www.w3.org/2000/svg" viewBox="0 0 133.494 128.176"><defs><style>.cls-1{isolation:isolate;}.cls-2{fill:#fabfe0;}.cls-3{fill:#fac2e2;}.cls-4{fill:#f9b1da;}.cls-5{fill:#f1faee;}.cls-6{fill:#f9aed8;}</style></defs><g id="Layer_2" data-name="Layer 2"><g id="Layer_1-2" data-name="Layer 1"><g id="_Grid_Repeat_" data-name="&lt;Grid Repeat&gt;"><g class="cls-1"><polygon class="cls-2" points="0 61.948 20.816 40.928 59.636 35.274 38.82 56.294 0 61.948"/><polygon class="cls-3" points="85.047 89.408 105.863 68.388 113.27 107.156 92.455 128.176 85.047 89.408"/><polygon class="cls-4" points="55.535 21.02 76.351 0 94.453 35.274 73.637 56.294 55.535 21.02"/><polygon class="cls-5" points="55.535 21.02 73.637 56.294 112.678 61.948 85.047 89.408 92.455 128.176 57.273 109.875 22.814 128.176 28.705 89.408 0 61.948 38.82 56.294 55.535 21.02"/><polygon class="cls-6" points="73.637 56.294 94.453 35.274 133.494 40.928 112.678 61.948 73.637 56.294"/></g></g></g></g></svg>