<svg xmlns="http://www.w3.org/2000/svg" viewBox="0 0 877.484 393.692">
  <g id="Layer_2" data-name="Layer 2">
    <g id="Layer_1-2" data-name="Layer 1">
      <path d="M35.761,93.08c16.1-15.5,36.422-26.232,57.084-35.408C174.134,21.57,264.1,6.818,353.51,2.052S532.555,2.144,622.1,3.416c33.752.48,68.382.6,99.925,12.245,26.081,9.629,48.459,26.581,70.111,43.6q28.313,22.258,55.994,45.248c9.007,7.48,18.175,15.273,23.628,25.456,11.12,20.763,4.283,46.133-5.66,67.408-20.663,44.212-53.563,82.274-90.714,114.94-20.655,18.162-43.037,35.01-68.676,45.763-24.451,10.255-51.063,14.646-77.45,18.4-132.639,18.9-268.019,23.949-400.929,6.44-44.516-5.864-89.282-14.434-129.659-33.482-42.413-20.009-80.413-53.7-93.068-97.551-6.291-21.8-6.04-44.8-5.112-67.4,1.388-33.772,4.932-50.479,19.469-73.153Z" style="fill: #007e84"/>
      <g>
        <path d="M574.183,235.036a35.689,35.689,0,0,1-24.842-10.344H506.1c10.253,27.34,36.084,46.109,68.082,46.109,31.587,0,58.111-18.769,68.707-46.109H599.4A36.956,36.956,0,0,1,574.183,235.036Z" style="fill: #e593cc"/>
        <path d="M537.885,197.938a36.1,36.1,0,0,1,6.605-20.594H504.155a76.8,76.8,0,0,0,1.946,47.348h43.24A37.473,37.473,0,0,1,537.885,197.938Z" style="fill: #efa4cd"/>
        <path d="M644.9,177.344H604.411a35.3,35.3,0,0,1,6.87,20.594A37.047,37.047,0,0,1,599.4,224.692H642.89a74.173,74.173,0,0,0,2.012-47.348Z" style="fill: #efa4cd"/>
        <path d="M574.183,161.373c12.146,0,23.375,6.465,30.228,15.971H644.9c-8.865-30.3-36.89-52-70.719-52-34.27,0-61.469,21.7-70.028,52H544.49C551.11,167.838,562.037,161.373,574.183,161.373Z" style="fill: #efb9d7"/>
        <rect x="75.795" y="224.692" width="37.076" height="43.673" style="fill: #e593cc"/>
        <path d="M117.82,177.344H75.8v47.348h37.077V192.6A26.426,26.426,0,0,1,117.82,177.344Z" style="fill: #efa4cd"/>
        <path d="M147.262,162.777c6.716,0,13.97,1.612,26.061,8.6l4.836-36.271c-8.061-7.792-20.419-8.866-33.315-8.866-19.076,0-31.972,10.21-38.689,22.3l-5.911-23.106L75.8,139.825v37.519H117.82C123.968,168.577,135.139,162.777,147.262,162.777Z" style="fill: #efb9d7"/>
        <path d="M270.927,235.036a35.687,35.687,0,0,1-24.841-10.344H202.845c10.253,27.34,36.084,46.109,68.082,46.109,31.587,0,58.111-18.769,68.707-46.109H296.147A36.952,36.952,0,0,1,270.927,235.036Z" style="fill: #e593cc"/>
        <path d="M234.629,197.938a36.106,36.106,0,0,1,6.605-20.594H200.9a76.787,76.787,0,0,0,1.945,47.348h43.241A37.474,37.474,0,0,1,234.629,197.938Z" style="fill: #efa4cd"/>
        <path d="M341.646,177.344H301.155a35.3,35.3,0,0,1,6.87,20.594,37.043,37.043,0,0,1-11.878,26.754h43.487a74.173,74.173,0,0,0,2.012-47.348Z" style="fill: #efa4cd"/>
        <path d="M270.927,161.373c12.146,0,23.376,6.465,30.228,15.971h40.491c-8.865-30.3-36.889-52-70.719-52-34.269,0-61.469,21.7-70.027,52h40.334C247.854,167.838,258.782,161.373,270.927,161.373Z" style="fill: #efb9d7"/>
        <polygon points="423.879 79.142 384.486 102.325 384.486 125.261 423.719 125.261 423.879 79.142" style="fill: #f5d3e6"/>
        <path d="M441.981,236.393c-5.685,0-11.587-3.764-15.093-11.7H386.031c5.887,31.387,28.324,46.091,59.98,46.091,12.36,0,28.481-4.3,38.152-13.97L464.84,224.692h-1.321C456.169,233.613,451.331,236.393,441.981,236.393Z" style="fill: #e593cc"/>
        <path d="M463.519,224.692h1.321l-.558-.927C464.022,224.088,463.773,224.384,463.519,224.692Z" style="fill: #f1faee"/>
        <path d="M423.712,207.377V177.344H384.486v29.763a95.3,95.3,0,0,0,1.545,17.585h40.857A42.815,42.815,0,0,1,423.712,207.377Z" style="fill: #efa4cd"/>
        <polygon points="376.962 127.311 369.328 145.435 384.486 154.179 384.486 177.344 423.712 177.344 423.712 157.941 468.042 157.941 472.341 127.311 423.712 127.311 423.719 125.261 384.486 125.261 384.486 127.311 376.962 127.311" style="fill: #efb9d7"/>
        <polygon points="712.235 125.102 711.965 125.261 712.276 125.261 712.235 125.102" style="fill: #f1faee"/>
        <rect x="687.786" y="224.692" width="37.077" height="43.345" style="fill: #e593cc"/>
        <path d="M687.786,224.692h37.077V192.271a26.361,26.361,0,0,1,4.725-14.927h-41.8Z" style="fill: #efa4cd"/>
        <path d="M687.786,177.344h41.8c6.1-8.95,17.392-14.9,29.665-14.9,6.717,0,13.971,1.613,26.061,8.6l4.836-36.271c-8.06-7.792-20.418-8.866-33.315-8.866-19.076,0-31.972,10.21-38.689,22.3l-5.87-22.947h-.311L687.786,139.5Z" style="fill: #efb9d7"/>
      </g>
    </g>
  </g>
</svg>
