<?xml version="1.0" encoding="UTF-8" standalone="no"?>
<svg
   width="654.612"
   height="162.35"
   viewBox="0 0 654.612 162.35"
   version="1.1"
   id="svg32"
   sodipodi:docname="star-swipe.svg"
   inkscape:version="1.1.1 (c3084ef, 2021-09-22)"
   xmlns:inkscape="http://www.inkscape.org/namespaces/inkscape"
   xmlns:sodipodi="http://sodipodi.sourceforge.net/DTD/sodipodi-0.dtd"
   xmlns="http://www.w3.org/2000/svg"
   xmlns:svg="http://www.w3.org/2000/svg">
  <defs
     id="defs36" />
  <sodipodi:namedview
     id="namedview34"
     pagecolor="#ffffff"
     bordercolor="#666666"
     borderopacity="1.0"
     inkscape:pageshadow="2"
     inkscape:pageopacity="0.0"
     inkscape:pagecheckerboard="0"
     showgrid="false"
     inkscape:zoom="1.7216305"
     inkscape:cx="212.87959"
     inkscape:cy="87.997975"
     inkscape:window-width="1296"
     inkscape:window-height="969"
     inkscape:window-x="0"
     inkscape:window-y="25"
     inkscape:window-maximized="0"
     inkscape:current-layer="svg32" />
  <path
     d="M107.721,113.246l1.919,10.041L117.1,162.35l.509-.514,25.857-26.112-2.376-12.437-.958-5.006-6.049-31.66Z"
     fill="#fac2e2"
     id="path2" />
  <path
     d="M26.365,51.839,0,78.46,49.169,71.3l11.6-24.472Z"
     fill="#fabfe0"
     id="path4" />
  <path
     d="M0,78.464H0v0Z"
     fill="#fabfe0"
     id="path6" />
  <path
     d="M0,78.461H0l0,0Z"
     fill="#f1faee"
     id="path8" />
  <path
     d="M60.766,46.83,49.17,71.3,0,78.46v0l36.355,34.779L28.9,162.35l43.648-23.182,44.563,23.182-9.382-49.1,26.43-26.27,3.764-3.742,4.03-4.006.771-.767L95.611,71.642,93.269,71.3,70.341,26.624Z"
     fill="#f1faee"
     id="path10" />
  <path
     d="M96.5.157V.206l.05-.049Z"
     fill="#f5d3e6"
     id="path12" />
  <path
     d="M96.706,0l-.155.158h.236Z"
     fill="#f9b1da"
     id="path14" />
  <path
     d="M96.551.157,96.5.206,70.342,26.623,93.269,71.3,119.635,44.68h0l-.273-.534L96.787.157Z"
     fill="#f9b1da"
     id="path16" />
  <path
     d="M96.787.157,116.81,39.174h537.8V.157Z"
     fill="#f5d3e6"
     id="path18" />
  <path
     d="M143.469,135.724l-25.857,26.112v.5h537V123.287H141.093l-.958-5.007Z"
     fill="#e593cc"
     id="path20" />
  <path
     d="M137.919,83.234l-3.765,3.742,5.982,31.3.957,5.007H654.612V83.234Z"
     fill="#efa4cd"
     id="path22" />
  <path
     d="M137.919,83.233h0l4.03-4Z"
     fill="#efb9d7"
     id="path24" />
  <path
     d="M116.81,39.174h0l2.826,5.505,49.449,7.16L142.718,78.463h0l-.768.765-4.029,4H654.611V39.174Z"
     fill="#efb9d7"
     id="path26" />
  <path
     d="M95.612,71.642v-2.7L93.269,71.3l49.448,7.161,0,0Z"
     fill="#f9aed8"
     id="path28" />
  <path
     d="M169.084,51.839l-49.45-7.16L95.612,68.937v2.705l47.108,6.819,0,0h0Z"
     fill="#f9aed8"
     id="path30" />
</svg>
