<?xml version="1.0" encoding="UTF-8" standalone="no"?>
<svg id="Layer_2" data-name="Layer 2" xmlns="http://www.w3.org/2000/svg" xmlns:xlink="http://www.w3.org/1999/xlink" viewBox="0 0 1686.694 847.835">
  <defs>
    <clipPath id="clippath-1">
      <path d="M140.619,847.088c-4.98-936.981,1400.491-944.451,1405.471-7.47,46.868-.25,93.736-.499,140.604-.747C1680.718-285.582-5.961-276.617,.016,847.835c46.868-.25,93.736-.499,140.604-.747Z" fill="none"/>
    </clipPath>
  </defs>
  <g id="Layer_1-2" data-name="Layer 1">
    <g clip-path="url(#clippath-1)">
      <g>
        <g id="_Grid_Repeat_" data-name="&amp;lt;Grid Repeat&amp;gt;">
          <g isolation="isolate">
            <path d="M78.401,847.418c6.986-9.696,14.112-19.034,21.361-28.024,2.294-17.126,5.041-33.812,8.216-50.069-7.702,8.114-15.298,16.566-22.775,25.366-2.729,17.131-5.005,34.704-6.802,52.727Z" fill="#fabfe0"/>
            <path d="M57.129,729.618c8.049-8.228,16.201-16.117,24.443-23.672-12.357-5.447-24.675-11.04-36.951-16.779-8.388,7.846-16.683,16.028-24.871,24.553,12.423,5.447,24.884,10.747,37.379,15.898Z" fill="#fac2e2"/>
            <path d="M121.854,775.881c7.643-8.026,15.393-15.712,23.234-23.067-10.996-8.705-21.866-17.711-32.598-27.005-8.072,7.404-16.055,15.141-23.934,23.217,10.971,9.25,22.075,18.204,33.299,26.855Z" fill="#f9b1da"/>
            <path d="M121.854,775.881c-11.224-8.65-22.328-17.605-33.299-26.855-.224-17.022,.013-33.85,.703-50.481-10.873,9.776-21.592,20.127-32.13,31.072-12.496-5.151-24.956-10.45-37.379-15.898,4.011,17.219,8.458,34.358,13.331,51.402-7.314,15.529-14.275,31.683-20.845,48.486,13.05-2.445,26.107-4.747,39.172-6.906,8.725,13.867,17.729,27.446,26.994,40.716,1.797-18.023,4.074-35.596,6.802-52.727,12.153-6.671,24.374-12.939,36.65-18.81Z" fill="#f1faee"/>
            <path d="M88.555,749.027c7.88-8.076,15.862-15.813,23.934-23.217,.198-16.292,.838-32.397,1.916-48.312-8.46,6.691-16.846,13.704-25.147,21.048-.691,16.631-.928,33.46-.703,50.481Z" fill="#f9aed8"/>
          </g>
        </g>
        <g id="_Grid_Repeat_-2" data-name="&amp;lt;Grid Repeat&amp;gt;">
          <g isolation="isolate">
            <path d="M97.048,656.137c8.632-6.652,17.334-12.982,26.095-18.998,5.463-14.334,11.293-28.245,17.465-41.744-9.043,5.215-18.045,10.735-26.994,16.567-5.895,14.298-11.426,29.02-16.566,44.176Z" fill="#fabfe0"/>
            <path d="M98.572,547.749c9.408-5.283,18.854-10.261,28.327-14.941-11.009-7.9-21.952-15.921-32.827-24.064-9.672,4.918-19.315,10.137-28.917,15.663,11.074,7.906,22.214,15.687,33.416,23.342Z" fill="#fac2e2"/>
            <path d="M152.891,604.605c8.969-5.145,17.978-9.986,27.016-14.531-9.067-10.414-17.953-21.076-26.647-31.975-9.276,4.566-18.526,9.429-27.738,14.594,8.94,10.884,18.066,21.524,27.369,31.912Z" fill="#f9b1da"/>
            <path d="M152.891,604.605c-9.303-10.388-18.429-21.029-27.369-31.912,3.009-15.069,6.438-29.926,10.28-44.57-12.461,6.023-24.88,12.559-37.229,19.626-11.202-7.655-22.342-15.437-33.416-23.342,.637,16.252,1.722,32.48,3.245,48.663-10.068,11.82-19.904,24.217-29.475,37.211,13.18,1.124,26.34,2.372,39.48,3.746,5.888,14.267,12.107,28.309,18.641,42.109,5.14-15.155,10.671-29.878,16.566-44.176,13.105-2.807,26.201-5.256,39.277-7.356Z" fill="#f1faee"/>
            <path d="M125.522,572.693c9.212-5.166,18.461-10.028,27.738-14.594,3.289-14.396,6.983-28.589,11.072-42.571-9.526,3.909-19.039,8.105-28.53,12.595-3.841,14.641-7.27,29.501-10.28,44.57Z" fill="#f9aed8"/>
          </g>
        </g>
        <g id="_Grid_Repeat_-3" data-name="&amp;lt;Grid Repeat&amp;gt;">
          <g isolation="isolate">
            <path d="M151.489,492.108c9.688-3.859,19.386-7.43,29.082-10.722,8.075-11.606,16.433-22.808,25.052-33.614-9.824,2.566-19.666,5.403-29.513,8.515-8.495,11.53-16.71,23.467-24.62,35.82Z" fill="#fabfe0"/>
            <path d="M173.801,394.134c10.198-2.587,20.377-4.903,30.525-6.958-9.215-9.888-18.341-19.874-27.376-29.96-10.39,2.24-20.808,4.744-31.244,7.521,9.278,9.901,18.643,19.7,28.095,29.397Z" fill="#fac2e2"/>
            <path d="M215.831,459.126c9.738-2.513,19.458-4.759,29.152-6.743-6.837-11.7-13.448-23.598-19.825-35.679-9.933,1.977-19.895,4.214-29.877,6.721,6.623,12.095,13.476,23.999,20.551,35.701Z" fill="#f9b1da"/>
            <path d="M215.831,459.126c-7.075-11.703-13.928-23.606-20.551-35.701,5.84-13.047,12.057-25.865,18.639-38.45-13.326,2.594-26.706,5.641-40.118,9.158-9.452-9.697-18.817-19.496-28.095-29.397-2.517,15.066-4.588,30.16-6.217,45.262-12.094,8.328-24.07,17.183-35.893,26.584,12.637,4.23,25.231,8.567,37.782,13.01,3.004,14.338,6.379,28.516,10.111,42.514,7.91-12.353,16.125-24.29,24.62-35.82,13.32,.64,26.564,1.589,39.722,2.839Z" fill="#f1faee"/>
            <path d="M195.281,423.425c9.982-2.506,19.944-4.744,29.877-6.721,5.991-12.431,12.342-24.64,19.045-36.621-10.055,1.376-20.153,3.005-30.284,4.892-6.582,12.584-12.799,25.402-18.639,38.45Z" fill="#f9aed8"/>
          </g>
        </g>
        <g id="_Grid_Repeat_-4" data-name="&amp;lt;Grid Repeat&amp;gt;">
          <g isolation="isolate">
            <path d="M236.214,355.36c10.206-1.314,20.368-2.375,30.475-3.194,10.142-8.943,20.488-17.5,31.016-25.679-10.097,.168-20.261,.57-30.485,1.214-10.543,8.827-20.886,18.044-31.007,27.659Z" fill="#fabfe0"/>
            <path d="M277.105,268.8c10.47-.139,20.869-.045,31.189,.277-7.067-11.412-14.027-22.901-20.88-34.465-10.594-.189-21.265-.149-32.005,.128,7.127,11.432,14.359,22.785,21.696,34.06Z" fill="#fac2e2"/>
            <path d="M305.459,339.474c10.002-.132,19.935-.031,29.793,.294-4.391-12.565-8.522-25.272-12.387-38.115-10.093-.362-20.264-.5-30.505-.404,4.105,12.885,8.474,25.629,13.099,38.224Z" fill="#f9b1da"/>
            <path d="M305.459,339.474c-4.626-12.595-8.994-25.34-13.099-38.224,8.256-10.955,16.84-21.663,25.741-32.118-13.532-.508-27.204-.624-40.995-.332-7.337-11.275-14.569-22.628-21.696-34.06-5.41,13.659-10.383,27.397-14.923,41.197-13.439,5.053-26.859,10.583-40.233,16.606,11.515,6.875,22.967,13.838,34.357,20.888,.141,14.079,.679,28.061,1.603,41.928,10.12-9.615,20.463-18.831,31.007-27.659,12.882,3.665,25.631,7.592,38.239,11.773Z" fill="#f1faee"/>
            <path d="M292.36,301.25c10.241-.096,20.412,.041,30.505,.404,8.288-10.395,16.89-20.551,25.795-30.459-10.099-.906-20.288-1.596-30.559-2.062-8.901,10.455-17.485,21.163-25.741,32.118Z" fill="#f9aed8"/>
          </g>
        </g>
        <g id="_Grid_Repeat_-5" data-name="&amp;lt;Grid Repeat&amp;gt;">
          <g isolation="isolate">
            <path d="M345.708,245.922c10.237,.981,20.382,2.179,30.427,3.585,11.679-6.345,23.486-12.323,35.4-17.939-9.912-1.98-19.934-3.762-30.06-5.338-12.052,6.189-23.982,12.751-35.766,19.692Z" fill="#fabfe0"/>
            <path d="M402.772,171.78c10.273,2.058,20.433,4.314,30.471,6.761-4.659-12.473-9.199-24.999-13.618-37.576-10.333-2.368-20.786-4.543-31.352-6.516,4.714,12.498,9.548,24.944,14.499,37.331Z" fill="#fac2e2"/>
            <path d="M416.558,245.675c9.81,1.998,19.51,4.195,29.091,6.582-1.815-13.005-3.346-26.102-4.589-39.282-9.806-2.452-19.733-4.713-29.772-6.778,1.472,13.25,3.23,26.413,5.27,39.478Z" fill="#f9b1da"/>
            <path d="M416.558,245.675c-2.04-13.066-3.798-26.228-5.27-39.478,10.242-8.793,20.761-17.321,31.543-25.576-13.146-3.282-26.505-6.235-40.059-8.841-4.952-12.388-9.785-24.832-14.499-37.331-7.995,12.03-15.576,24.193-22.74,36.469-14.145,1.994-28.361,4.414-42.626,7.276,9.907,9.056,19.736,18.182,29.486,27.376-2.635,13.489-4.861,26.946-6.684,40.352,11.784-6.941,23.714-13.503,35.766-19.692,11.877,6.271,23.574,12.755,35.083,19.445Z" fill="#f1faee"/>
            <path d="M411.287,206.197c10.04,2.065,19.966,4.326,29.772,6.778,10.167-8.29,20.599-16.322,31.281-24.088-9.709-2.939-19.548-5.696-29.51-8.266-10.783,8.256-21.301,16.784-31.543,25.576Z" fill="#f9aed8"/>
          </g>
        </g>
        <g id="_Grid_Repeat_-6" data-name="&amp;lt;Grid Repeat&amp;gt;">
          <g isolation="isolate">
            <path d="M474.46,163.825c9.83,3.026,19.528,6.233,29.089,9.612,12.699-3.813,25.453-7.275,38.243-10.394-9.319-3.878-18.785-7.594-28.392-11.139-13.037,3.617-26.023,7.588-38.939,11.921Z" fill="#fabfe0"/>
            <path d="M545.089,103.102c9.66,4.005,19.169,8.172,28.523,12.494-2.085-13.069-4.043-26.168-5.872-39.294-9.659-4.297-19.473-8.435-29.438-12.408,2.135,13.101,4.397,26.171,6.787,39.208Z" fill="#fac2e2"/>
            <path d="M543.91,177.758c9.216,3.88,18.284,7.922,27.2,12.118,.808-13.023,1.912-26.086,3.315-39.179-9.125-4.29-18.404-8.427-27.832-12.401-1.192,13.193-2.085,26.349-2.682,39.462Z" fill="#f9b1da"/>
            <path d="M543.91,177.758c.597-13.112,1.49-26.269,2.682-39.462,11.785-6.56,23.792-12.837,36.006-18.824-12.235-5.73-24.742-11.192-37.509-16.37-2.39-13.037-4.652-26.107-6.787-39.208-10.23,10.18-20.077,20.544-29.537,31.075-14.256-.848-28.665-1.322-43.205-1.403,7.907,10.773,15.724,21.599,23.45,32.474-5.259,12.569-10.109,25.171-14.551,37.785,12.916-4.333,25.903-8.304,38.939-11.921,10.391,8.455,20.563,17.076,30.511,25.854Z" fill="#f1faee"/>
            <path d="M546.592,138.296c9.429,3.974,18.708,8.11,27.832,12.401,11.615-6.115,23.44-11.952,35.462-17.506-8.935-4.721-18.033-9.296-27.288-13.719-12.214,5.987-24.221,12.264-36.006,18.824Z" fill="#f9aed8"/>
          </g>
        </g>
        <g id="_Grid_Repeat_-7" data-name="&amp;lt;Grid Repeat&amp;gt;">
          <g isolation="isolate">
            <path d="M616.955,109.097c9.037,4.821,17.91,9.787,26.613,14.889,13.215-1.346,26.417-2.359,39.587-3.045-8.369-5.526-16.915-10.924-25.633-16.188-13.509,1.108-27.038,2.554-40.568,4.345Z" fill="#fabfe0"/>
            <path d="M698.347,62.799c8.68,5.7,17.181,11.528,25.498,17.476,.561-13.199,1.254-26.405,2.078-39.616-8.622-5.975-17.428-11.827-26.413-17.549-.519,13.238-.906,26.468-1.162,39.689Z" fill="#fac2e2"/>
            <path d="M682.3,135.749c8.268,5.51,16.359,11.147,24.27,16.902,3.39-12.617,7.079-25.222,11.068-37.804-8.098-5.879-16.378-11.639-24.837-17.273-3.801,12.711-7.301,25.439-10.501,38.174Z" fill="#f9b1da"/>
            <path d="M682.3,135.749c3.2-12.735,6.701-25.463,10.501-38.174,12.872-4.256,25.907-8.213,39.089-11.86-10.864-7.851-22.048-15.496-33.543-22.917,.256-13.222,.643-26.451,1.162-39.689-12.07,8.107-23.799,16.452-35.18,25.016-13.817-3.473-27.857-6.623-42.103-9.433,5.608,12.027,11.118,24.087,16.529,36.179-7.663,11.318-14.931,22.733-21.8,34.225,13.53-1.791,27.059-3.236,40.568-4.345,8.508,10.218,16.768,20.553,24.777,30.998Z" fill="#f1faee"/>
            <path d="M692.801,97.576c8.459,5.634,16.739,11.394,24.837,17.273,12.618-3.868,25.389-7.442,38.297-10.713-7.828-6.252-15.844-12.394-24.045-18.419-13.182,3.647-26.217,7.603-39.089,11.86Z" fill="#f9aed8"/>
          </g>
        </g>
        <g id="_Grid_Repeat_-8" data-name="&amp;lt;Grid Repeat&amp;gt;">
          <g isolation="isolate">
            <path d="M767.682,81.768c7.909,6.365,15.627,12.837,23.153,19.413,13.241,1.056,26.405,2.428,39.473,4.107-7.114-6.922-14.426-13.753-21.934-20.485-13.484-1.334-27.054-2.348-40.692-3.035Z" fill="#fabfe0"/>
            <path d="M856.832,50.9c7.385,7.146,14.568,14.383,21.547,21.705,3.186-12.864,6.504-25.712,9.951-38.54-7.273-7.403-14.751-14.718-22.431-21.938-3.153,12.909-6.175,25.834-9.066,38.773Z" fill="#fac2e2"/>
            <path d="M826.51,119.678c7.017,6.89,13.836,13.871,20.455,20.934,5.848-11.786,11.987-23.509,18.416-35.155-6.778-7.216-13.758-14.349-20.938-21.391-6.27,11.805-12.248,23.679-17.933,35.612Z" fill="#f9b1da"/>
            <path d="M826.51,119.678c5.685-11.933,11.663-23.807,17.933-35.612,13.488-1.884,27.078-3.448,40.749-4.685-9.1-9.644-18.556-19.143-28.36-28.481,2.891-12.939,5.914-25.864,9.066-38.773-13.47,5.812-26.653,11.916-39.537,18.29-12.873-5.881-26.028-11.491-39.452-16.811,3.105,12.817,6.106,25.647,9.004,38.491-9.783,9.735-19.196,19.632-28.232,29.67,13.638,.687,27.208,1.701,40.692,3.035,6.313,11.558,12.359,23.186,18.137,34.875Z" fill="#f1faee"/>
            <path d="M844.443,84.065c7.18,7.043,14.16,14.175,20.938,21.391,13.162-1.552,26.416-2.791,39.744-3.709-6.438-7.533-13.083-14.991-19.933-22.367-13.672,1.237-27.261,2.801-40.749,4.685Z" fill="#f9aed8"/>
          </g>
        </g>
        <g id="_Grid_Repeat_-9" data-name="&amp;lt;Grid Repeat&amp;gt;">
          <g isolation="isolate">
            <path d="M921.128,81.867c6.495,7.657,12.782,15.388,18.859,23.184,12.792,3.393,25.444,7.083,37.941,11.064-5.603-8.068-11.419-16.08-17.448-24.029-12.975-3.711-26.097-7.119-39.352-10.219Z" fill="#fabfe0"/>
            <path d="M1014.834,67.435c5.824,8.34,11.432,16.736,16.823,25.181,5.698-12.063,11.52-24.086,17.467-36.066-5.663-8.579-11.545-17.106-17.644-25.574-5.674,12.114-11.222,24.268-16.645,36.459Z" fill="#fac2e2"/>
            <path d="M971.326,129.571c5.514,8.018,10.817,16.092,15.905,24.213,8.096-10.531,16.465-20.944,25.103-31.232-5.214-8.302-10.644-16.557-16.288-24.757-8.514,10.475-16.755,21.07-24.72,31.777Z" fill="#f9b1da"/>
            <path d="M971.326,129.571c7.965-10.707,16.206-21.302,24.72-31.777,13.621,.56,27.277,1.458,40.948,2.701-7.009-11.108-14.397-22.134-22.16-33.06,5.423-12.191,10.971-24.345,16.645-36.459-14.387,3.295-28.551,6.935-42.475,10.898-11.466-8.072-23.263-15.924-35.383-23.537,.49,13.141,.875,26.276,1.155,39.407-11.551,7.821-22.77,15.868-33.648,24.122,13.255,3.099,26.378,6.508,39.352,10.219,3.891,12.476,7.506,24.975,10.846,37.485Z" fill="#f1faee"/>
            <path d="M996.046,97.794c5.644,8.2,11.074,16.455,16.288,24.757,13.234,.835,26.495,2.001,39.764,3.506-4.817-8.562-9.852-17.085-15.104-25.562-13.671-1.243-27.327-2.141-40.948-2.701Z" fill="#f9aed8"/>
          </g>
        </g>
        <g id="_Grid_Repeat_-10" data-name="&amp;lt;Grid Repeat&amp;gt;">
          <g isolation="isolate">
            <path d="M1071.779,109.422c4.848,8.698,9.476,17.435,13.884,26.202,11.88,5.664,23.562,11.607,35.033,17.824-3.888-8.962-7.997-17.905-12.326-26.818-11.995-6.023-24.197-11.76-36.591-17.207Z" fill="#fabfe0"/>
            <path d="M1166.641,112.435c4.05,9.283,7.875,18.586,11.477,27.903,8.001-10.795,16.116-21.527,24.345-32.192-3.842-9.503-7.91-18.991-12.204-28.455-7.988,10.853-15.861,21.768-23.618,32.744Z" fill="#fac2e2"/>
            <path d="M1111.528,165.456c3.811,8.895,7.402,17.811,10.774,26.737,10.049-8.85,20.342-17.531,30.874-26.034-3.458-9.137-7.137-18.262-11.039-27.368-10.448,8.718-20.653,17.61-30.61,26.665Z" fill="#f9b1da"/>
            <path d="M1111.528,165.456c9.957-9.055,20.162-17.947,30.61-26.665,13.256,3.075,26.477,6.505,39.643,10.299-4.658-12.245-9.704-24.469-15.14-36.655,7.757-10.977,15.63-21.892,23.618-32.744-14.776,.556-29.404,1.508-43.863,2.838-9.641-10.045-19.654-19.922-30.031-29.61-2.144,12.999-4.389,25.975-6.736,38.927-12.901,5.575-25.522,11.441-37.85,17.577,12.394,5.446,24.596,11.185,36.591,17.207,1.327,12.971,2.38,25.916,3.159,38.826Z" fill="#f1faee"/>
            <path d="M1142.138,138.791c3.901,9.106,7.581,18.231,11.039,27.368,12.82,3.291,25.598,6.933,38.315,10.933-3.014-9.339-6.251-18.675-9.711-28.002-13.166-3.794-26.387-7.224-39.643-10.299Z" fill="#f9aed8"/>
          </g>
        </g>
        <g id="_Grid_Repeat_-11" data-name="&amp;lt;Grid Repeat&amp;gt;">
          <g isolation="isolate">
            <path d="M1214.123,164.465c3.016,9.488,5.81,18.98,8.381,28.465,10.52,7.869,20.787,16,30.789,24.387-2.019-9.605-4.259-19.226-6.722-28.854-10.558-8.269-21.378-16.271-32.448-23.999Z" fill="#fabfe0"/>
            <path d="M1306.542,185.93c2.112,9.975,3.998,19.933,5.663,29.869,10.003-9.06,20.105-18.032,30.304-26.916-1.862-10.177-3.949-20.374-6.263-30.582-10.002,9.124-19.904,18.334-29.704,27.628Z" fill="#fac2e2"/>
            <path d="M1241.903,227.361c1.957,9.52,3.694,19.025,5.213,28.505,11.622-6.744,23.449-13.267,35.474-19.558-1.56-9.72-3.34-19.464-5.343-29.224-11.987,6.536-23.771,13.299-35.345,20.278Z" fill="#f9b1da"/>
            <path d="M1241.903,227.361c11.574-6.978,23.358-13.741,35.345-20.278,12.38,5.659,24.652,11.693,36.794,18.109-2.112-13.052-4.61-26.146-7.499-39.263,9.8-9.295,19.702-18.505,29.704-27.628-14.594-2.407-29.125-4.364-43.567-5.89-7.443-11.801-15.287-23.484-23.527-35.03-4.701,12.391-9.498,24.741-14.39,37.049-13.767,2.997-27.319,6.348-40.638,10.035,11.069,7.728,21.89,15.73,32.448,23.999-1.292,13.043-2.85,26.012-4.669,38.898Z" fill="#f1faee"/>
            <path d="M1277.247,207.084c2.003,9.76,3.783,19.505,5.343,29.224,11.906,5.819,23.698,12.008,35.356,18.571-1.082-9.865-2.383-19.763-3.905-29.686-12.142-6.416-24.413-12.45-36.794-18.109Z" fill="#f9aed8"/>
          </g>
        </g>
        <g id="_Grid_Repeat_-12" data-name="&amp;lt;Grid Repeat&amp;gt;">
          <g isolation="isolate">
            <path d="M1342.648,247.024c1.053,10.027,1.885,20.02,2.5,29.972,8.724,10.008,17.144,20.262,25.251,30.754-.047-9.995-.308-20.043-.787-30.132-8.678-10.45-17.67-20.65-26.964-30.594Z" fill="#fabfe0"/>
            <path d="M1428.824,287.95c.061,10.413-.097,20.776-.468,31.081,11.609-6.856,23.298-13.603,35.065-20.236,.228-10.599,.238-21.252,.027-31.954-11.622,6.928-23.164,13.965-34.623,21.109Z" fill="#fac2e2"/>
            <path d="M1357.231,315.314c.004,9.894-.206,19.736-.625,29.518,12.73-4.212,25.616-8.149,38.648-11.804,.429-10.051,.646-20.161,.648-30.325-13.046,3.929-25.939,8.135-38.671,12.611Z" fill="#f9b1da"/>
            <path d="M1357.231,315.314c12.732-4.475,25.625-8.682,38.671-12.611,10.979,8.315,21.773,17.023,32.359,26.131,.562-13.531,.752-27.165,.563-40.885,11.46-7.145,23.001-14.181,34.623-21.109-13.796-5.592-27.624-10.682-41.455-15.287-4.916-13.339-10.251-26.61-16.005-39.797-7.09,11.318-14.266,22.575-21.525,33.771-14.083,.086-28.028,.591-41.814,1.496,9.294,9.944,18.286,20.144,26.964,30.594-3.884,12.691-8.012,25.259-12.381,37.697Z" fill="#f1faee"/>
            <path d="M1395.902,302.704c-.002,10.164-.219,20.274-.648,30.325,10.479,8.418,20.769,17.223,30.846,26.421,.931-10.14,1.652-20.347,2.161-30.615-10.586-9.108-21.38-17.816-32.359-26.131Z" fill="#f9aed8"/>
          </g>
        </g>
        <g id="_Grid_Repeat_-13" data-name="&amp;lt;Grid Repeat&amp;gt;">
          <g isolation="isolate">
            <path d="M1451.839,357.128c-.993,10.312-2.196,20.556-3.604,30.723,6.507,12.083,12.663,24.393,18.459,36.923,1.978-10.134,3.755-20.355,5.326-30.656-6.368-12.564-13.099-24.897-20.181-36.991Z" fill="#fabfe0"/>
            <path d="M1527.776,418.527c-2.053,10.6-4.309,21.115-6.764,31.535,12.728-4.186,25.51-8.237,38.345-12.152,2.376-10.768,4.549-21.627,6.514-32.569-12.755,4.263-25.454,8.658-38.095,13.186Z" fill="#fac2e2"/>
            <path d="M1452.298,429.343c-1.998,10.015-4.196,19.943-6.588,29.775,13.288-1.253,26.671-2.179,40.139-2.771,2.458-10.129,4.721-20.355,6.782-30.668-13.539,.893-26.987,2.118-40.332,3.664Z" fill="#f9b1da"/>
            <path d="M1452.298,429.343c13.345-1.546,26.793-2.77,40.332-3.664,9.04,11.04,17.814,22.494,26.298,34.366,3.298-13.68,6.251-27.525,8.848-41.517,12.641-4.528,25.34-8.922,38.095-13.186-12.338-9.001-24.814-17.447-37.395-25.355-2.104-14.657-4.634-29.3-7.595-43.908-9.216,9.776-18.504,19.474-27.861,29.092-13.782-3.158-27.517-5.834-41.18-8.043,7.082,12.094,13.813,24.427,20.181,36.991-6.361,11.916-12.937,23.659-19.723,35.224Z" fill="#f1faee"/>
            <path d="M1492.63,425.679c-2.061,10.313-4.323,20.538-6.782,30.668,8.525,11.087,16.781,22.58,24.745,34.484,2.972-10.161,5.752-20.425,8.335-30.787-8.484-11.872-17.258-23.325-26.298-34.366Z" fill="#f9aed8"/>
          </g>
        </g>
        <g id="_Grid_Repeat_-14" data-name="&amp;lt;Grid Repeat&amp;gt;">
          <g isolation="isolate">
            <path d="M1536.186,494.806c-3.07,10.346-6.333,20.588-9.782,30.717,3.881,14.091,7.369,28.392,10.454,42.897,4.004-10.02,7.828-20.163,11.466-30.422-3.643-14.614-7.692-29.014-12.139-43.192Z" fill="#fabfe0"/>
            <path d="M1597.687,577.69c-4.177,10.536-8.537,20.949-13.073,31.233,13.264-1.046,26.553-1.934,39.865-2.662,4.532-10.684,8.883-21.496,13.046-32.427-13.307,1.129-26.587,2.416-39.838,3.855Z" fill="#fac2e2"/>
            <path d="M1521.886,569.474c-3.999,9.884-8.176,19.644-12.525,29.274,13.21,2.134,26.446,4.646,39.692,7.545,4.478-9.957,8.782-20.044,12.906-30.255-13.382-2.567-26.745-4.752-40.074-6.563Z" fill="#f9b1da"/>
            <path d="M1521.886,569.474c13.329,1.811,26.691,3.997,40.074,6.563,6.549,13.838,12.747,28.107,18.57,42.813,6.029-13.498,11.754-27.226,17.157-41.161,13.251-1.441,26.531-2.727,39.838-3.855-10.176-12.633-20.606-24.659-31.255-36.093,.95-15.758,1.476-31.552,1.569-47.364-10.986,7.768-22.026,15.439-33.118,23.01-12.798-6.737-25.653-12.925-38.535-18.582,4.447,14.178,8.496,28.579,12.139,43.192-8.639,10.714-17.455,21.208-26.439,31.476Z" fill="#f1faee"/>
            <path d="M1561.959,576.038c-4.124,10.212-8.428,20.299-12.906,30.255,6.03,13.827,11.709,28.078,17.012,42.76,4.991-9.929,9.815-19.999,14.464-30.202-5.823-14.705-12.022-28.974-18.57-42.813Z" fill="#f9aed8"/>
          </g>
        </g>
        <g id="_Grid_Repeat_-15" data-name="&amp;lt;Grid Repeat&amp;gt;">
          <g isolation="isolate">
            <path d="M1590.173,660.087c-5.128,10.129-10.423,20.116-15.879,29.955,.862,16.034,1.29,32.259,1.278,48.671,5.981-9.654,11.81-19.466,17.48-29.429-.515-16.598-1.477-32.999-2.879-49.197Z" fill="#fabfe0"/>
            <path d="M1632.845,765.469c-6.262,10.218-12.679,20.278-19.242,30.172,13.124,2.564,26.24,5.308,39.344,8.236,6.644-10.347,13.137-20.86,19.47-31.527-13.185-2.473-26.376-4.767-39.572-6.881Z" fill="#fac2e2"/>
            <path d="M1560.778,735.737c-5.947,9.5-12.044,18.841-18.282,28.015,12.413,5.946,24.769,12.324,37.054,19.143,6.436-9.53,12.728-19.227,18.868-29.084-12.49-6.457-25.041-12.478-37.64-18.074Z" fill="#f9b1da"/>
            <path d="M1560.778,735.737c12.598,5.596,25.15,11.617,37.64,18.074,3.491,16.707,6.545,33.861,9.134,51.473,8.69-12.988,17.127-26.265,25.292-39.814,13.196,2.115,26.387,4.408,39.572,6.881-7.266-16.489-14.912-32.317-22.901-47.501,4.201-16.639,7.989-33.368,11.355-50.166-12.307,5.293-24.645,10.468-37.015,15.525-11.066-10.648-22.304-20.682-33.683-30.122,1.402,16.197,2.364,32.6,2.879,49.197-10.634,9.088-21.395,17.908-32.274,26.453Z" fill="#f1faee"/>
            <path d="M1598.418,753.811c-6.14,9.857-12.432,19.553-18.868,29.084,2.981,16.638,5.525,33.718,7.605,51.246,6.937-9.445,13.74-19.067,20.398-28.857-2.589-17.611-5.643-34.765-9.134-51.473Z" fill="#f9aed8"/>
          </g>
        </g>
      </g>
    </g>
  </g>
</svg>