<?xml version="1.0" encoding="UTF-8"?><svg xmlns="http://www.w3.org/2000/svg" viewBox="0 0 292.031 391.459"><defs><style>.d{fill:#fab7dd;}</style></defs><g id="a"/><g id="b"><g id="c"><path class="d" d="M8.845,126.076c5.385-20.542,15.173-39.989,28.302-56.607,13.382-16.939,29.799-31.122,48.568-41.674,19.205-10.797,41.095-18.002,63.365-18.723,11.872-.384,23.77,1.147,34.867,5.514,10.225,4.023,18.916,10.629,25.81,19.126,13.237,16.315,18.322,38.691,15.846,59.494-2.721,22.859-15.1,44.641-30.728,61.611-16.807,18.251-38.088,32.647-61.109,41.856-5.854,2.342-11.846,4.44-17.939,6.072-4.912,1.316-10.442,2.312-15.158,1.574-5.201-.813-8.806-3.39-11.215-8.283-2.207-4.481-3.334-10.462-3.923-14.97-2.75-21.027,3.751-41.823,15.349-59.372,11.762-17.798,29.095-32.535,49.026-40.582,21.16-8.543,46.74-10.898,66.445,2.489,18.518,12.581,27.165,36.139,29.578,57.575,2.746,24.394-1.547,49.636-13.055,71.391-5.336,10.088-12.121,20.109-21.317,27.078-4.321,3.275-9.092,5.781-14.34,7.079-2.43,.601-4.116,.812-6.891,.737-2.49-.067-3.891-.286-6.418-.983-4.271-1.177-8.202-3.294-11.255-6.372-2.895-2.918-4.83-6.715-5.063-10.805-.285-4.986,1.375-9.43,4.193-13.735,2.99-4.568,7.076-8.463,11.257-11.997,4.481-3.787,9.283-7.234,14.147-10.51,5.128-3.454,10.529-6.737,16.382-8.804,5.197-1.836,11.399-2.826,16.408-2.063,5.158,.786,9.398,2.566,13.71,5.416,8.308,5.491,14.747,14.586,17.99,23.998,4.287,12.445,3.917,26.135,1.851,38.976-1.104,6.862-2.659,13.642-4.355,20.378-1.384,5.498-2.721,11.17-5.5,16.096-1.259,2.233-2.677,4.15-4.694,5.792-.649,.529-1.456,1.009-2.257,1.409-.662,.33,.554-.199-.138,.07-.206,.08-.415,.154-.624,.223-.561,.186-1.135,.34-1.714,.462-.289,.061-.583,.119-.876,.161,.221-.032,.75-.035-.13-.007-.519,.017-1.033,.054-1.553,.046-.514-.008-1.03-.035-1.542-.093,.762,.086-.658-.146-.947-.218-.485-.121-.959-.272-1.431-.436-.682-.238,.554,.278-.091-.029-.188-.089-.375-.18-.559-.278-.423-.226-.832-.476-1.224-.752-.571-.402,.465,.423-.043-.048-.247-.229-.486-.458-.719-.702-.486-.51,.11,.332-.385-.53-.12-.21-.615-1.332-.346-.586-.363-1.005-.506-1.985-.369-3.061,.144-1.13,.57-2.261,1.103-3.261,.706-1.326,1.152-1.965,1.873-2.78,1.655-1.87,2.585-2.599,4.793-3.783,1.722-.924,3.385-1.484,5.808-1.951,.228-.044,.457-.083,.686-.122,.77-.132-.59,.06,.189-.034,.543-.065,1.09-.11,1.636-.142,1.183-.068,2.37-.065,3.553,.005,.557,.033,1.113,.078,1.667,.141,.086,.01,.873,.13,.231,.031,.237,.037,.476,.074,.711,.121,1.186,.234,2.36,.49,3.52,.832,4.253,1.255,8.08,3.439,11.22,6.625,7.677,7.788,10.87,18.951,11.699,29.555,.967,12.374-.574,24.97-3.73,36.942-3.187,12.091-8.19,23.556-14.833,34.146-3.087,4.921,4.697,9.443,7.771,4.542,7.495-11.948,13.081-25.16,16.391-38.873,3.168-13.122,4.701-27.131,3.01-40.58-1.553-12.344-5.911-25.238-15.581-33.639-8.376-7.277-20.105-10.43-30.987-8.137-5.105,1.076-10.041,3.65-13.648,7.447-4.493,4.729-7.643,11.865-5.392,18.37,3.708,10.72,18.551,13.02,27.244,7.11,11.108-7.552,13.763-22.483,16.572-34.666,3.467-15.036,5.696-30.475,3.473-45.863-3.38-23.403-21.711-47.692-47.268-47.568-14.179,.069-26.792,7.703-37.941,15.721-9.941,7.149-20.9,15.235-26.206,26.658-2.717,5.848-3.787,12.188-2.396,18.549,1.156,5.285,4.274,10.175,8.302,13.743,8.566,7.587,20.721,10.497,31.822,7.852,12.357-2.945,22.63-11.594,30.317-21.392,8.386-10.69,14.701-22.9,19.084-35.745,8.536-25.016,9.554-53.338,1.954-78.727-3.628-12.12-9.37-23.707-17.778-33.232s-19.63-16.301-31.991-19.266c-25.08-6.016-52.451,1.888-73.555,15.811-19.938,13.154-35.922,32.245-44.767,54.471-4.287,10.772-6.689,22.401-6.671,34.012,.009,5.885,.668,11.801,1.92,17.551,1.376,6.323,3.471,12.883,8.044,17.657,9.238,9.645,24.047,7.342,35.512,3.899,13.364-4.013,26.307-9.596,38.407-16.544,23.049-13.236,43.73-31.615,57.905-54.23,13.516-21.564,20.316-46.961,16.187-72.3-3.846-23.606-17.417-45.959-38.772-57.5C171.756-2.693,143.336-1.957,118.301,4.783c-22.858,6.154-44.066,17.561-62.301,32.586-18.039,14.864-33.137,33.552-43.689,54.42C7.169,101.956,3.056,112.661,.167,123.683c-1.47,5.607,7.209,7.999,8.679,2.393h0Z"/></g></g></svg>