<svg xmlns="http://www.w3.org/2000/svg" viewBox="0 0 1298.504 605.569">
  <g id="Layer_2" data-name="Layer 2">
    <g id="Layer_1-2" data-name="Layer 1">
      <g>
        <g>
          <path d="M711.793,475.584c-3.191,0-6.395-.014-9.594-.039-70.066-.438-135.668-5.45-194.97-14.9C447.36,451.2,393.964,437.631,344,419.165c-46.534-17.115-83.744-36.822-113.747-60.242-34.094-27.146-52.786-56.483-55.606-87.235-2.438-26.591,7.217-52.607,28.7-77.324l.135-.151c26.064-28.159,62.511-51.047,111.425-69.972,57.5-22.4,122.188-36.67,197.75-43.627,27.062-2.353,54.355-3.545,81.152-3.545A913.226,913.226,0,0,1,721.161,86c61.268,8.947,114.415,24.526,158,46.308,26.36,13.4,45.867,28.292,58.019,44.274,12.78,16.811,17.3,34.486,13.451,52.534-4.657,25.2-23.057,46.309-56.249,64.525-40.5,22.227-92.876,35.786-155.661,40.3-13.31.914-26.456,1.375-39.095,1.375-41.5,0-79.906-4.972-114.16-14.78-29.021-7.964-49.943-19.039-63.892-33.843-15.778-16.026-16.125-34.033-.945-49.413,11.757-12.1,31.823-21.238,56.468-25.7l.1-.017a209.084,209.084,0,0,1,33.419-2.726c16.939,0,32.393,2.166,44.692,6.264l.178.062c13.014,4.762,19.731,10.215,21.138,17.162l.129.639v.651a53.415,53.415,0,0,1-.809,11.056c1.7,1.14,6.249,2.936,13.753,3.451,3,.19,5.987.287,8.843.287a97.977,97.977,0,0,0,25.066-2.971c19.9-5.459,28.536-12.52,32.27-17.54,4.245-6.834,3.667-13.764-1.766-21.173-9.772-11.982-29.142-22.15-57.583-30.228-31.131-8.306-64.136-12.344-100.894-12.344-4.969,0-10.079.077-15.189.227-46.36,1.168-89.773,8.664-129.062,22.282-34.491,11.954-58.693,27.132-73.984,46.4-11.6,15.458-14.254,30.734-8.115,46.7,9.576,22.778,31.761,42.395,67.817,59.971,49.731,23.332,111.587,38.644,183.765,45.469,28.082,2.678,56.571,4.035,84.683,4.035a872.976,872.976,0,0,0,150.581-13.021c79.485-13.964,145.672-38.216,191.4-70.134,45.6-31.908,64.241-67.831,55.395-106.773-8.332-33.809-38.7-64.889-92.835-95.01C982.983,89.672,953.4,77.5,914.256,64.872c-35.062-11.1-73.865-20.057-122.083-28.175a1208.474,1208.474,0,0,0-196.745-15.88c-29.912,0-60.435,1.076-90.722,3.2-88.669,6.22-163.548,18.83-235.648,39.684-76.513,22.494-132.409,48.317-175.88,81.255C49.25,177.968,24.534,213.478,19.7,250.508l-12.945-.842v-18.6L7,230.19c11.614-40.852,43.255-77.466,96.73-111.935,62.18-39.215,141.4-68.044,242.249-88.168C425.035,14.436,509.235,6.5,596.252,6.5c101.367,0,196.1,10.867,281.581,32.3,83.475,21.368,145.448,48.967,189.492,84.381,24.5,19.956,41.14,40.828,49.478,62.061,8.683,22.115,8.508,44.743-.518,67.254-16.826,41.553-61.453,76.833-132.65,104.881-75.332,29.33-171.319,46.15-270.3,47.373-2.946.027-5.862.041-8.783.041-89.5,0-175.256-12.863-241.459-36.219-56.743-20.383-93.929-46.328-110.558-77.129l-.086-.164c-9.527-18.916-9.911-37.456-1.14-55.1,8.573-17.251,25.992-33.315,51.771-47.745,34.916-19.443,80.143-32.445,134.437-38.653,19.788-1.987,39.309-2.99,58.109-2.99a496,496,0,0,1,65.491,4.24c68.061,9.338,114.861,31.194,125.215,58.466l.082.229c3.8,11.25,5.031,32.589-29.346,49.1-16.436,7.732-34.519,12.237-55.328,13.793-5.094.4-10.218.61-15.2.61-22.563,0-41.934-4.178-54.558-11.766-11.607-6.56-11.3-15.111-11.1-20.774a31.2,31.2,0,0,0,0-3.488c-2-1.273-8.454-3.346-17.855-3.669-1.1-.032-2.211-.048-3.312-.048a108.722,108.722,0,0,0-31.6,4.718c-18.909,5.916-29.364,15.115-29.364,25.877,0,7.489,7.016,15.724,20.856,24.48,28.305,16.272,70.128,26.2,120.964,28.71,7.277.318,14.69.481,22,.481A486.245,486.245,0,0,0,811.79,305.483c64.653-15.367,108.481-43.347,117.2-74.838l.048-.173.058-.171c4.4-13.028,2.681-25.288-5.4-38.588-15.292-25.547-50.8-48-105.554-66.785-33.855-11.476-69.755-19.594-109.731-24.811-21.6-2.54-42.444-4.551-63.645-6.138-16.822-1.055-34-1.592-50.994-1.592A896.8,896.8,0,0,0,475.1,100.528C409.539,109.259,350,125.074,302.92,146.264c-45.782,20.607-79.036,45.888-96.167,73.113l-.082.128c-13.183,19.894-17.032,39.84-12.11,62.749,4.89,17.169,14.764,33.482,29.352,48.493,39.169,40.305,105.779,72.947,197.981,97.024,83.934,21.29,175.593,32.3,272.385,32.715,3.764.031,7.49.046,11.221.046h.066c99.032,0,192.957-10.48,279.17-31.147,92.981-21.925,166.867-52.986,219.631-92.322,42.224-31.061,67.274-66.805,74.491-106.264l12.894,1.169c0,1.29.056,2.641.117,4.072.2,4.723.426,10.064-1.379,15.471-6.249,24.627-20.532,47.75-43.661,70.683-22.653,22.039-49.819,41.086-85.537,59.988-32.9,17.409-68.22,31.457-118.109,46.971-53.235,17-113.366,28.986-189.188,37.7A1148.522,1148.522,0,0,1,711.793,475.584Z" style="fill: #fcdaee"/>
          <path d="M596.252,13c99,0,193,10.29,280,32.1,82,20.991,144,48.568,187,83.142,47,38.278,64,79.437,47,121.831-16,39.513-59,73.675-129,101.252-74,28.812-168,45.687-268,46.922-2.906.026-5.8.04-8.7.04-86.953,0-171.557-11.951-239.3-35.849-55-19.756-91-44.452-107-74.087-17-33.75-2-66.266,48-94.254,34-18.934,78-31.693,132-37.867a574.414,574.414,0,0,1,57.37-2.947,487.538,487.538,0,0,1,64.63,4.182c60,8.232,110,27.988,120,54.33,5,14.818-2,29.635-26,41.159-14,6.586-31,11.525-53,13.172-4.964.392-9.89.59-14.718.59-20.462,0-39.146-3.554-51.282-10.88-11-6.174-7-13.171-8-20.168,0-4.939-12-8.232-24-8.644q-1.789-.052-3.535-.052a114.7,114.7,0,0,0-33.465,4.991c-25,7.821-34,20.168-34,32.1,0,10.7,9,20.579,24,30.046,30,17.287,74,27.165,124,29.634q11.243.493,22.32.489a493.224,493.224,0,0,0,110.68-12.425c71-16.875,113-46.921,122-79.437,5-14.817,3-29.223-6-44.04-17-28.4-55-51.038-109-69.56-34-11.524-70-19.756-111-25.107-21-2.469-42-4.527-64-6.174q-26.1-1.638-51.48-1.612a906.419,906.419,0,0,0-119.52,8.2c-136,18.11-237,64.62-273,121.831-15,22.638-18,44.864-13,67.913,5,17.7,15,34.985,31,51.449,40,41.159,108,74.5,201,98.782,86,21.815,178,32.516,274,32.928,3.779.03,7.542.045,11.313.045,98,0,193.058-10.32,280.687-31.326,96-22.638,169-53.919,222-93.432,47-34.574,70-72.029,77-110.307,0,5.763,1,11.937-1,17.7-6,23.872-20,46.1-42,67.913-22,21.4-49,40.336-84,58.857s-72,32.516-117,46.51c-58,18.522-120,29.635-188,37.455A1149.82,1149.82,0,0,1,711.8,469.083q-4.771,0-9.552-.038c-66-.412-132-4.939-194-14.818-60-9.466-113-23.049-162-41.159-47-17.287-83-36.632-112-59.269-61-48.568-70-104.545-26-155.171,24-25.93,59-48.979,109-68.324,56-21.814,120-36.22,196-43.217q40.718-3.541,80.555-3.518a902.635,902.635,0,0,1,126.445,8.869c62,9.054,114,24.695,156,45.686,51,25.93,75,57.212,68,89.727-4,21.815-20,41.983-53,60.093-39,21.4-90,34.985-153,39.513q-19.593,1.344-38.629,1.358c-39.75,0-77.5-4.544-112.371-14.529-30-8.232-49-19.345-61-32.1-13-13.171-14-27.165-1-40.337,10-10.289,28-19.344,53-23.872a201.617,201.617,0,0,1,32.361-2.638c15.349,0,30.361,1.84,42.639,5.931,9,3.293,16,7.409,17,12.348a41.856,41.856,0,0,1-1,11.113c-1,4.939,8,9.055,20,9.878q4.733.3,9.286.3a105.155,105.155,0,0,0,26.714-3.183c18-4.939,30-11.936,36-20.168,6-9.467,5-19.345-2-28.812-11-13.582-32-24.284-61-32.515-32.445-8.663-66.428-12.578-102.623-12.578q-7.622,0-15.377.23c-49,1.234-93,9.466-131,22.637s-62,29.635-77,48.568q-19.5,25.93-9,53.1c10,23.872,33,44.863,71,63.385,50,23.461,112,39.1,186,46.1q43.085,4.11,85.294,4.064A877.9,877.9,0,0,0,857.252,382.61c82-14.405,148-39.1,194-71.205,50-34.986,67-74.087,58-113.6-9-36.632-42-69.148-96-99.194-29-15.64-60-27.988-97-39.924-39-12.348-79-20.991-123-28.4A1211.454,1211.454,0,0,0,595.427,14.318q-45.1,0-91.175,3.21c-88,6.173-163,18.521-237,39.924-77,22.638-134,48.98-178,82.319-46,34.573-71,71.617-76,109.9v-17.7c11-38.689,41-74.086,94-108.248,62-39.1,141-67.5,240-87.258,79-15.641,163-23.461,249-23.461m0-13C508.814,0,424.189,7.977,344.727,23.708c-101.66,20.288-181.6,49.4-244.41,89.015l-.054.034-.054.035c-54.861,35.362-87.4,73.181-99.462,115.62l-.495,1.743v19.511l25.89,1.684c4.6-35.232,28.463-69.277,70.92-101.188l.02-.015.021-.015c42.819-32.444,98.038-57.927,173.784-80.2C342.529,49.215,416.974,36.683,505.162,30.5c30.135-2.109,60.506-3.178,90.265-3.178a1202.127,1202.127,0,0,1,195.7,15.794c48.506,8.168,85.884,16.791,121.143,27.95,38.71,12.489,67.933,24.5,94.729,38.948,26.167,14.566,46.973,29.648,61.838,44.825,14.554,14.86,23.894,30.324,27.762,45.966,8.171,36.092-9.594,69.719-52.8,99.952C998.85,332.124,933.56,356.005,855,369.806a866.379,866.379,0,0,1-149.456,12.923c-27.909,0-56.191-1.347-84.06-4-71.4-6.751-132.5-21.852-181.623-44.884-34.477-16.818-55.592-35.3-64.548-56.507-5.292-13.836-2.992-26.651,7.232-40.307,14.5-18.234,37.719-32.7,70.962-44.224,38.653-13.4,81.406-20.775,127.07-21.926h.055c5.047-.148,10.092-.224,15-.224,36.168,0,68.606,3.961,99.166,12.11,26.623,7.567,45.343,17.224,54.172,27.942,4.56,6.294,3.518,10.241,1.536,13.52-2.7,3.5-9.916,9.8-28.613,14.943a91.631,91.631,0,0,1-23.352,2.742c-2.7,0-5.534-.092-8.415-.274a38.94,38.94,0,0,1-7.06-1.081c.189-2.455.189-4.771.189-6.939v-1.3l-.259-1.277c-2.5-12.323-15.62-18.444-25.274-21.977l-.178-.065-.18-.06c-12.953-4.316-29.118-6.6-46.748-6.6a215.83,215.83,0,0,0-34.473,2.811l-.1.017-.1.018c-25.945,4.7-47.242,14.49-59.975,27.572-11.189,11.357-13.218,22.439-12.949,29.739.37,10.056,5.04,19.716,13.881,28.713,14.779,15.656,36.651,27.3,66.851,35.6,34.817,9.961,73.8,15.012,115.88,15.012,12.786,0,26.082-.467,39.518-1.388,63.769-4.583,117.036-18.405,158.365-41.087,17.374-9.534,31.161-20.159,40.979-31.578,9.792-11.39,16.021-23.962,18.517-37.371,4.176-19.678-.889-39.639-14.652-57.741-12.749-16.769-33-32.284-60.207-46.114l-.039-.02-.04-.02c-44.2-22.092-98.011-37.878-159.934-46.922l-.03,0-.029,0a920,920,0,0,0-128.264-9c-26.983,0-54.465,1.2-81.681,3.566l-.033,0-.033,0c-76.174,7.014-141.44,21.422-199.527,44.05C262.7,137.47,225.461,160.9,198.711,189.8l-.138.149-.133.154c-11.12,12.794-19.335,26.2-24.415,39.838a95.515,95.515,0,0,0-5.852,42.344c1.5,16.3,7.3,32.459,17.247,48.027,9.693,15.167,23.4,29.856,40.735,43.659l.048.039.05.038c30.542,23.842,68.326,43.868,115.511,61.223,50.351,18.609,104.153,32.284,164.462,41.8,59.606,9.5,125.538,14.537,195.945,14.976,3.175.026,6.424.039,9.633.039a1155.37,1155.37,0,0,0,143-8.774c76.194-8.766,136.684-20.829,190.345-37.959,50.274-15.636,85.923-29.82,119.187-47.423,36.281-19.2,63.92-38.592,86.985-61.03l.044-.043.044-.044c23.921-23.719,38.753-47.76,45.329-73.479,2.1-6.455,1.84-12.6,1.63-17.565-.058-1.36-.112-2.645-.112-3.8l-25.788-2.338a135.232,135.232,0,0,1-21.478,51.6c-12.052,17.807-29.021,34.824-50.437,50.578l-.034.025-.033.025c-25.756,19.2-56.765,36.526-92.167,51.492-36.28,15.338-78.352,28.7-125.047,39.709-85.77,20.56-179.187,30.98-277.7,30.98-3.7,0-7.466-.016-11.209-.046-96.3-.413-187.425-11.356-270.883-32.522-45.456-11.873-85.113-26.051-117.865-42.137-32.269-15.849-58.187-33.719-77.033-53.111-13.772-14.171-23.091-29.489-27.7-45.538-4.463-21-.894-39.306,11.217-57.583l.084-.128.082-.129c16.447-26.138,48.721-50.568,93.333-70.648,46.509-20.934,105.426-36.572,170.38-45.221a890.291,890.291,0,0,1,117.8-8.084c16.825,0,33.842.532,50.58,1.581,21.05,1.577,41.759,3.575,63.3,6.107,39.515,5.162,74.983,13.182,108.424,24.517,53.219,18.254,87.558,39.767,102.019,63.925l.021.036.022.035c7.006,11.535,8.529,22.064,4.793,33.135l-.115.342-.1.347c-3.684,13.308-14.9,26.532-32.439,38.24-19.764,13.193-47.423,24.261-79.986,32a479.657,479.657,0,0,1-107.726,12.085c-7.2,0-14.51-.159-21.718-.475-49.012-2.424-90.859-12.288-117.885-27.782-11.264-7.145-17.717-14.031-17.717-18.912,0-7.561,9.043-14.731,24.814-19.676a102.253,102.253,0,0,1,29.651-4.42c1.026,0,2.074.015,3.115.046a52.27,52.27,0,0,1,11.515,1.574c-.17,6.223.3,17.493,14.361,25.478,17.441,10.448,41.058,12.646,57.826,12.646,5.136,0,10.414-.211,15.688-.627h0c21.615-1.618,40.444-6.319,57.564-14.372l.046-.022.047-.023c40.34-19.37,36.3-46.338,32.69-57.034l-.077-.23-.086-.227c-6.113-16.1-22.333-29.983-48.211-41.261-22.042-9.606-50.459-16.984-82.176-21.335a502.609,502.609,0,0,0-66.4-4.3c-19.014,0-38.753,1.013-58.669,3.012l-.089.009-.089.011c-55.151,6.305-101.193,19.569-136.848,39.424-26.967,15.1-45.276,32.094-54.442,50.539-9.594,19.306-9.194,40.372,1.156,60.921l.083.166.089.162c8.921,16.525,23.364,31.756,42.925,45.268,18.673,12.9,42.6,24.634,71.119,34.878l.035.012.035.013c34.065,12.018,72.713,21.266,114.871,27.487a885.487,885.487,0,0,0,128.751,9.1c2.929,0,5.9-.014,8.822-.041a907.78,907.78,0,0,0,145.887-13.316c46.217-8.145,88.849-19.75,126.711-34.491l.024-.009.024-.01c72.919-28.726,118.772-65.22,136.285-108.467,9.68-24.141,9.86-48.382.55-72.09-8.751-22.287-26.042-44.055-51.391-64.7l-.031-.026-.032-.025c-22.278-17.913-49.779-34.2-81.739-48.412C958.051,55.648,920.98,43.135,879.476,32.51l-.031-.008-.032-.007C793.421,10.933,698.152,0,596.252,0Z" style="fill: #f793cb"/>
        </g>
        <g>
          <path d="M704.08,531.24a1300.229,1300.229,0,0,1-150.573-8.817c-83.976-10.192-152.52-25.8-209.586-47.723C271,446.9,221.207,414.535,195.932,378.524c-26.759-37-28.521-74.626-5.183-111.739,24.44-38.979,76.066-71.88,153.439-97.781,71.628-23.695,159.822-36.741,248.355-36.741a875.8,875.8,0,0,1,128.667,9.31c75.327,11.354,134.711,30.5,176.514,56.911,41.315,26.162,59.457,55.12,53.926,86.075l-.051.258c-4.441,20.105-18.783,38.737-42.627,55.378l-.118.08c-36.1,24.037-87.585,40.341-148.884,47.149a571.386,571.386,0,0,1-59.081,3.065c-8.446,0-17.165-.189-25.914-.561-41.018-1.876-80.237-9.375-110.453-21.118-33.543-13.037-52.461-29.891-54.716-48.748-2.468-17.641,12.126-34.519,39.057-45.16,13.867-5.269,29.476-8.631,47.8-10.306,4.551-.358,9.055-.535,13.47-.535a152.585,152.585,0,0,1,45.039,6.559l.16.049.156.058c11.773,4.307,18.527,9.851,20.077,16.478a27.4,27.4,0,0,1,.453,12.248c1.043.852,3.806,2.454,9.248,3.471a99.788,99.788,0,0,0,12.718.8c14.851,0,30.319-3.238,42.452-8.882,10.358-5.166,16.61-11.241,18.083-17.571,1.085-4.668-.387-9.7-4.375-14.949-10.183-12.521-29.029-22.422-57.609-30.264-28.693-8-60.531-12.095-97.356-12.528-1.564-.013-3.14-.02-4.715-.02-45.644,0-86.987,5.576-126.392,17.048-43.276,12.885-73.8,30.414-90.69,52.084-10.181,13.383-13.7,27.182-10.413,40.952,5.51,23.087,30.414,46.415,70.124,65.686,48.649,22.827,110.517,38.141,183.809,45.479,28.053,2.7,56.52,4.073,84.586,4.073a835.246,835.246,0,0,0,183.337-20c77.378-17.118,138.268-43.931,176.113-77.545,32.117-27.906,44.875-59,37.977-92.483-8.351-33.788-38.715-64.847-92.82-94.953-57.354-30.807-130.685-53.563-217.872-67.587-62.906-10.3-129.652-15.522-198.4-15.522-29.377,0-59.713.953-90.165,2.833C417.478,85.287,342.925,97.9,269.058,119.261c-76.236,22.413-132.142,48.111-175.912,80.867C49.232,233.135,24.516,268.779,19.7,306.063L6.752,305.23c0-1.291-.057-2.641-.117-4.072-.2-4.71-.425-10.035,1.364-15.427,11.5-48.04,54.642-92.022,128.227-130.722C206.08,118.757,292.887,92.5,394.266,76.958A1357.39,1357.39,0,0,1,545,62.481c15.577-.574,31.35-.865,46.9-.865a1278.53,1278.53,0,0,1,152.137,9.139c69.007,8.115,124.046,19.184,173.2,34.834,53.541,16.526,94.1,34.428,127.584,56.318,44.54,29.51,68.609,57.979,75.783,89.614,7.809,32.6-1.109,63.38-26.524,91.415-29.54,33-76.927,60.212-140.817,80.845-63.428,20.115-130.04,31.656-203.678,35.292-15.393.656-30.712.988-45.574.988-44.746,0-87.377-2.986-126.708-8.872-54.041-8.127-99.037-19.984-137.566-36.249l-.167-.073c-31.016-14.135-53.537-28.281-68.849-43.249l-.181-.184A137.757,137.757,0,0,1,352.7,347.3l-.148-.245-.127-.257c-11.774-23.907-15.052-59.67,36.193-94.282,35.153-23.831,86.649-40.145,148.909-47.171a582.062,582.062,0,0,1,60.586-3.249c29.06,0,56.426,2.363,81.338,7.024,30.4,5.856,84.179,19.931,103.212,48.469,5.844,8.818,7.441,18.221,4.633,27.207-4.122,13.188-17.481,24.621-38.631,33.063a165.345,165.345,0,0,1-76.021,9.9c-18.162-1.5-31.893-5.146-40.812-10.825-11.457-6.9-11.149-15.438-10.947-21.092a32.512,32.512,0,0,0,.011-3.371,24.979,24.979,0,0,0-8.632-2.627,91.3,91.3,0,0,0-13.193-.942c-21.785,0-41.587,7.485-50.814,14.458-6.883,5.551-10.182,11.164-9.808,16.683.517,7.618,8.011,16.154,21.1,24.042,32.417,18.728,83.078,29.038,142.665,29.037,11.076,0,22.384-.373,33.611-1.11,41.478-2.779,77.881-9.8,111.282-21.465,46.236-16.746,75.33-39.717,81.856-64.656l.06-.217c7.314-24.456-4.618-47.649-35.464-68.933-41.793-29.2-105.816-50.308-185.18-61.058a841.074,841.074,0,0,0-113.925-7.631c-27.878,0-56.684,1.332-85.615,3.959-51.007,5.248-91.392,12.423-130.868,23.256-33.082,9.49-58.678,18.892-82.919,30.466-29.423,14.439-48.683,26.55-62.384,39.24-15.537,14.294-26.5,28.813-34.517,45.7-6.61,14.651-7.723,29.187-3.6,47.1,4.884,17.185,14.762,33.514,29.363,48.538,62.634,64.449,202.027,111.419,372.878,125.646,37.622,2.915,73.225,4.333,108.806,4.333a1309.888,1309.888,0,0,0,136.982-7.2c86.031-9.471,160.466-25.52,227.52-49.059,63.3-22.077,113.7-48.921,149.8-79.789,34.257-29.288,54.08-60.8,58.918-93.657l12.931.947c0,1.291.056,2.643.117,4.073.2,4.755.429,10.137-1.416,15.581-9.691,33.533-32.006,63.521-68.212,91.669-45.278,35.155-102.185,62.442-179.1,85.874-29.847,9.009-57.78,16.036-90.584,22.787l-.105.021a1345.679,1345.679,0,0,1-148.7,19.849C770.358,529.943,736.826,531.24,704.08,531.24Z" style="fill: #fcdaee"/>
          <path d="M591.893,68.117a1266.277,1266.277,0,0,1,151.359,9.091c63,7.409,119,17.7,172,34.574,52,16.052,92,33.339,126,55.565,41,27.165,66,54.742,73,85.611,7,29.224,0,58.035-25,85.612-28,31.281-73,58.034-138,79.026-61,19.344-127,31.281-202,34.985q-22.659.964-45.257.979c-42.744,0-85.067-2.711-125.743-8.8-52-7.821-97-19.345-136-35.809-28-12.759-51-26.342-67-41.982-7-7.409-12-14.818-17-23.049-15-30.458-5-59.681,34-86.023,34-23.05,84-39.1,146-46.1a574.571,574.571,0,0,1,59.858-3.208c27.484,0,54.654,2.144,80.142,6.913,47,9.055,85,24.7,99,45.686,12,18.111,2,37.455-31,50.626a158.825,158.825,0,0,1-73,9.467c-15-1.235-29-4.116-38-9.878-11-6.586-7-13.583-8-20.58,0-3.293-6-6.174-14-7.408a97.585,97.585,0,0,0-14.186-1.018c-22.887,0-44.022,7.634-54.814,15.835-21,16.875-14,35.808,12,51.449,35.071,20.277,88.96,29.936,145.963,29.936,11.262,0,22.654-.378,34.037-1.125,43-2.881,80-10.289,113-21.814,50-18.11,79-42.394,86-69.148,8-26.753-4-52.684-38-76.144-43-30.046-109-51.449-188-62.151a843.453,843.453,0,0,0-114.8-7.69q-42.825,0-86.2,3.986c-48,4.939-90,11.936-132,23.461-33,9.466-59,18.933-84,30.869-26,12.76-48,25.519-64,40.336-17,15.641-28,30.87-36,47.745-8,17.7-8,34.162-4,51.449,5,17.7,15,34.985,31,51.449,64,65.855,204,113.188,377,127.594,37.327,2.892,73.484,4.355,109.344,4.355a1320.18,1320.18,0,0,0,137.656-7.236c86-9.467,161-25.519,229-49.391,131-45.687,203-110.719,213-178.632,0,5.763,1,11.937-1,17.7-9,31.281-30,60.5-66,88.492-44,34.162-100,61.328-177,84.788-30,9.055-58,16.052-90,22.638a1337.69,1337.69,0,0,1-148,19.757c-33.709,2.581-66.638,3.834-99.173,3.834a1299.7,1299.7,0,0,1-149.827-8.774c-78-9.466-148-24.284-208-47.333-68-25.93-119-56.8-145-93.843-25-34.574-27-69.559-5-104.545,24-38.278,75-69.97,150-95.078,71.858-23.771,158.6-36.4,246.289-36.4A870.5,870.5,0,0,1,720.252,148c71,10.7,131,28.812,174,55.977,39,24.7,56,51.449,51,79.438-4,18.11-17,35.4-40,51.448-34,22.638-83,39.1-146,46.1a564.8,564.8,0,0,1-58.359,3.025c-8.421,0-16.941-.185-25.641-.556-81-3.7-155-30.046-159-64.208-2-13.994,10-28.4,35-38.278,13-4.939,28-8.232,46-9.878q6.576-.516,12.878-.508a146.464,146.464,0,0,1,43.122,6.27c9,3.293,15,7.409,16,11.936a20.958,20.958,0,0,1,0,11.113c0,4.116,6,7.82,15,9.467a105.872,105.872,0,0,0,13.731.881c17.159,0,33.405-3.99,45.269-9.525,24-11.936,27-27.988,16-42.394-11-13.582-31-24.284-61-32.516-31-8.643-64-12.347-99-12.759-1.6-.013-3.194-.02-4.787-.02-46.14,0-88.582,5.769-128.213,17.307-47,13.994-77,32.516-94,54.33-31,40.748-5,83.965,62,116.481,50,23.461,112,38.69,186,46.1,28.658,2.761,57.12,4.106,85.236,4.106a842.609,842.609,0,0,0,184.764-20.158c80-17.7,141-45.275,179-79.026,36-31.281,47-65.031,40-98.782-9-36.631-42-69.147-96-99.194-59-31.692-133-54.33-220-68.324C728.594,75.264,662.005,70.247,593.816,70.247q-44.833,0-90.564,2.846c-87,5.762-162,18.521-236,39.924-77,22.638-134,48.98-178,81.907-46,34.574-71,71.617-76,110.307,0-5.762-1-11.936,1-17.7,11-46.51,53-88.9,125-126.77,69-35.809,154-61.739,256-77.38a1349.528,1349.528,0,0,1,150-14.4q23.408-.864,46.641-.86m0-13c-15.626,0-31.48.292-47.12.868A1364.307,1364.307,0,0,0,393.308,70.528c-51.2,7.851-99.031,18.461-142.2,31.54-43.011,13.03-82.66,28.9-117.844,47.155l-.032.016-.031.017c-37.067,19.494-66.868,40.528-88.576,62.517C22.27,234.418,7.844,258.7,1.739,283.963c-2.066,6.42-1.807,12.528-1.6,17.47.058,1.36.112,2.645.112,3.8L26.144,306.9c4.586-35.482,28.446-69.658,70.918-101.581,43.1-32.257,98.343-57.624,173.825-79.817C344.278,104.274,418.4,91.742,504.105,86.065c30.3-1.87,60.481-2.818,89.711-2.818,68.4,0,134.794,5.193,197.335,15.434,86.47,13.909,159.087,36.417,215.874,66.908,26.156,14.562,46.954,29.639,61.814,44.811,14.516,14.821,23.845,30.244,27.732,45.843a75.275,75.275,0,0,1-3.327,42.776c-5.779,15.017-16.72,29.592-32.519,43.32l-.053.047-.053.047c-37.02,32.88-96.9,59.178-173.175,76.052l-.025.006-.026,0a828.612,828.612,0,0,1-181.9,19.84c-27.864,0-56.121-1.361-83.99-4.046-72.467-7.255-133.6-22.361-181.647-44.891-37.879-18.4-61.517-40.168-66.563-61.31-2.847-11.929.183-23.543,9.263-35.5,16.045-20.551,45.437-37.3,87.369-49.791,38.795-11.291,79.536-16.779,124.545-16.779,1.556,0,3.11.006,4.675.02,36.216.425,67.507,4.443,95.62,12.282l.026.007.026.007c26.784,7.349,45.024,16.775,54.218,28.015,2.715,3.6,3.776,6.783,3.154,9.457-.987,4.244-6.3,9.046-14.574,13.188-11.294,5.236-25.726,8.238-39.627,8.238a93.276,93.276,0,0,1-11.7-.727,28.458,28.458,0,0,1-3.305-.827,34.02,34.02,0,0,0-1.108-10.045c-2.135-8.97-10.04-15.844-24.15-21.007l-.314-.114-.319-.1a159.053,159.053,0,0,0-46.956-6.848c-4.581,0-9.256.184-13.894.547l-.084.007-.084.008c-18.917,1.73-35.086,5.221-49.433,10.671l-.08.031-.081.031c-14.127,5.583-25.078,12.659-32.548,21.032-8.414,9.432-12.066,20.151-10.567,31.008,2.592,21.364,22.923,40.026,58.809,53.972,30.856,11.992,70.806,19.645,112.49,21.552,8.883.378,17.7.569,26.235.569a577.6,577.6,0,0,0,59.689-3.093l.053-.006.052,0c31.624-3.513,60.7-9.477,86.411-17.727,25.09-8.049,47.08-18.3,65.358-30.472l.119-.079.117-.081c25.225-17.605,40.45-37.558,45.254-59.306l.057-.258.046-.259c3.087-17.28-.563-34.187-10.849-50.25-9.53-14.882-25-29.166-45.994-42.457-42.582-26.9-102.808-46.362-179.017-57.848a882.293,882.293,0,0,0-129.648-9.386,902.222,902.222,0,0,0-130.976,9.427c-42.879,6.314-83.049,15.612-119.4,27.636-38.619,12.928-71.232,27.709-96.977,43.947-26.876,16.95-47.048,35.982-59.954,56.568-12.351,19.641-18.106,39.828-17.095,59.983,1,19.842,8.573,39.7,22.519,59.008,13.591,19.336,33.9,37.679,60.361,54.516,24.428,15.543,54.909,30.324,90.6,43.933,57.541,22.105,126.591,37.839,211.065,48.092l.038,0,.038,0a1306.41,1306.41,0,0,0,151.318,8.86c32.911,0,66.612-1.3,100.166-3.873a1351.9,1351.9,0,0,0,149.417-19.943l.105-.02.1-.022c33-6.792,61.109-13.862,91.136-22.925,77.723-23.681,135.3-51.312,181.216-86.965,37.289-28.99,60.328-60.022,70.434-94.865,2.181-6.539,1.918-12.771,1.706-17.8-.058-1.361-.112-2.645-.112-3.8l-25.861-1.893c-2.238,15.2-8.041,30.388-17.248,45.152-9.548,15.31-22.826,30.286-39.464,44.511-35.489,30.341-85.185,56.781-147.708,78.587-66.6,23.382-140.559,39.322-226.123,48.742a1303.374,1303.374,0,0,1-136.252,7.16c-35.406,0-70.831-1.411-108.3-4.313-169.318-14.1-307.15-60.344-368.717-123.7-13.8-14.2-23.124-29.545-27.728-45.625-3.732-16.341-2.741-29.546,3.2-42.754,7.645-16.089,18.134-29.957,33-43.637,13.239-12.261,32-24.036,60.868-38.2,23.865-11.388,49.111-20.658,81.841-30.05,39.075-10.718,79.1-17.824,129.744-23.038,28.712-2.605,57.292-3.926,84.948-3.926a834.6,834.6,0,0,1,113.03,7.57c38.816,5.258,74.205,13.093,105.205,23.29,30.949,10.181,56.894,22.507,77.116,36.637l.031.022.032.022c14.889,10.273,25.136,20.991,30.458,31.856a39.413,39.413,0,0,1,2.47,29.864l-.065.216-.057.218c-5.964,22.8-33.584,44.169-77.776,60.188-32.823,11.455-68.646,18.355-109.516,21.093-11.07.727-22.235,1.1-33.168,1.1-28.375,0-54.846-2.394-78.68-7.116-24.5-4.855-44.915-11.925-60.672-21.014-10.874-6.558-17.575-13.615-17.932-18.889-.275-4.048,3.794-8.259,7.321-11.117,8.417-6.322,26.587-13.084,46.814-13.084a84.878,84.878,0,0,1,12.236.871c1.188.184,2.2.4,3.042.613-.158,6.2.393,17.3,14.061,25.574,9.94,6.306,24.215,10.157,43.627,11.77a171.851,171.851,0,0,0,78.954-10.3l.042-.017.043-.017c29.094-11.612,39.13-26.617,42.425-37.16,3.412-10.918,1.542-22.232-5.407-32.72-8.154-12.226-22.5-22.982-42.651-32-17.687-7.918-39.464-14.4-64.727-19.267l-.034-.007-.035-.007c-25.3-4.734-53.072-7.134-82.532-7.135a588.454,588.454,0,0,0-61.217,3.28l-.049.006-.05,0c-63.3,7.144-115.807,23.831-151.837,48.256-21.39,14.448-35.561,30.464-42.1,47.592-6.758,17.7-5.5,36.184,3.732,54.935l.254.515.3.49A143.723,143.723,0,0,0,365.8,375.9l.177.187.184.181c15.861,15.5,38.986,30.065,70.7,44.516l.166.076.169.071c39.034,16.478,84.542,28.479,139.122,36.687,39.656,5.936,82.61,8.944,127.677,8.944,14.955,0,30.367-.333,45.81-.991l.044,0,.044,0c74.2-3.665,141.355-15.3,205.289-35.578l.032-.01.033-.01c32.738-10.573,61.465-22.944,85.386-36.77,23.6-13.64,43.2-29.092,58.282-45.931,26.9-29.689,36.318-62.407,28-97.253-3.958-17.392-12.654-33.669-26.584-49.759-12.789-14.77-29.765-29.079-51.9-43.744l-.033-.022-.034-.022c-34-22.224-75.061-40.365-129.227-57.09C869.6,83.607,814.191,72.461,744.77,64.3a1284.946,1284.946,0,0,0-152.877-9.18Z" style="fill: #f793cb"/>
        </g>
        <g>
          <path d="M702.843,513.278A1253.069,1253.069,0,0,1,506.228,498.1c-59.555-9.556-113.456-23.078-160.211-40.189-47.64-17.435-86.611-38.157-115.832-61.588-35.766-29-54.985-61.414-55.6-93.768C174,272,189.266,242.87,219.968,215.966c34.83-30.78,85.721-55.068,155.564-74.233,63.421-16.866,131.969-25.688,209.611-26.983,3.741-.046,7.5-.069,11.213-.069,99.453,0,195.116,16.569,262.458,45.458,51.584,22.531,83.28,50.463,91.7,80.791l.034.129c2.006,7.84,2.371,15.938,1.15,25.483l-.035.238c-3.222,19.449-17.585,38.2-42.692,55.717-35.237,23.888-86.732,40.2-148.992,47.228a571.446,571.446,0,0,1-59.091,3.066c-8.446,0-17.165-.189-25.914-.562-40.662-2.2-75.932-8.558-104.907-18.894-34.448-12.711-53.733-27.133-59.022-44.113-5.329-17.547,2.021-32.516,21.835-44.534,18.116-11.347,47.7-18.426,77.125-18.426a174.031,174.031,0,0,1,31.423,2.773c11.262,1.932,20.688,5.831,28.739,11.906l.215.17c8.136,6.7,7.236,14.38,6.64,19.464-.066.566-.131,1.116-.18,1.639a6.544,6.544,0,0,0,1.718.6l.277.057.27.08a74.355,74.355,0,0,0,21.241,2.95c20.922,0,39.954-7.527,48.815-14.534,6.185-5.1,9.269-10.344,9.164-15.573-.129-6.418-4.958-13.425-13.969-20.265C716,214.735,658.769,201.82,594.986,201.82c-11.423,0-22.951.415-34.265,1.234-43.413,2.913-83.687,11.146-116.5,23.813-30.746,11.867-53.822,27.064-66.738,43.949-9.006,12.636-12.538,24.929-10.8,37.579,2.559,16.379,15.483,33.216,38.415,50.042,40.279,29.209,104.255,50.148,184.984,60.532,40.313,5.4,77.01,8.025,112.218,8.025,6.28,0,12.6-.086,18.775-.256,41.389-1.461,72.961-3.856,102.319-7.765,58.9-7.883,113.709-21.824,158.5-40.313,43.123-17.8,77.17-39.832,98.466-63.72,30.9-35.873,33.121-73.048,6.585-110.5-28.326-40.028-86.751-74.242-173.654-101.692C826.319,75.037,721.987,60.323,603.181,59.013c-5.735-.093-11.531-.14-17.261-.14-40.563,0-81.286,2.191-132.041,7.106-54.051,5.562-99.813,14.9-141.208,24.158-42.828,9.549-81.036,21.879-123.89,39.98l-.108.045c-36.864,14.794-67.219,31.534-95.532,52.683C49.25,215.834,24.534,251.344,19.7,288.374l-12.945-.842c0-1.422-.059-2.837-.121-4.335-.2-4.672-.414-9.962,1.39-15.633,10-36.251,36.134-69.851,77.673-99.876,41.873-30.268,98.627-56.295,168.686-77.359C329.318,67.821,405.7,54.268,494.772,47.677c33.361-2.4,65.4-3.559,97.951-3.559a1390.618,1390.618,0,0,1,152.234,8.519c78.892,9.043,147.428,24.644,209.557,47.7,72.2,27.134,122,59.488,148.039,96.175l.079.114c14.409,21.252,21.12,39.152,21.12,56.332,0,19.25-5.567,37.355-17.016,55.35-24.421,38.949-76.047,71.85-153.421,97.753-61.222,20.158-130.11,32.037-204.778,35.315-14.434.614-29,.926-43.3.926a919.563,919.563,0,0,1-128.9-8.805c-62.438-9.12-115.6-24.706-158.036-46.331-29.291-15.017-50.031-31.887-61.658-50.148-12.063-18.949-14.238-38.872-6.462-59.215l.057-.147c14.044-34.238,57.4-61.607,125.39-79.149,37.365-9.426,79.1-14.4,120.715-14.4a467.378,467.378,0,0,1,84.083,7.307c32.347,6.411,54.5,13.47,71.922,22.9l.122.069c14.1,8.033,23.668,16.1,30.122,25.4l.137.2.123.209c7.022,11.92,10.9,29.824-10.469,47.418l-.184.146c-16.035,12.258-41.4,20.326-71.431,22.719-4.475.35-8.979.528-13.395.528a152.545,152.545,0,0,1-45.038-6.56c-22.028-7.157-21.777-20.345-21.612-29.073l.011-.611c-2.475-1.332-9.247-3.052-17.725-3.37-1.075-.032-2.187-.047-3.287-.047a108.676,108.676,0,0,0-31.532,4.7c-12.648,4.1-33.1,13.29-28.716,28.954,4.021,12.362,21.269,24.264,49.9,34.429,31.433,10.546,69.839,15.892,114.15,15.892,4.783,0,9.681-.064,14.56-.193,29.653-.718,60.651-4.708,94.777-12.2,27.279-6.238,47.328-15.158,65.516-23.765,28.946-14.911,45.832-31.751,51.614-51.476,5.267-19.99-2.776-39.74-23.9-58.709-10.277-7.983-18.723-13.977-28.177-20C840.43,167.9,794.7,152.681,738.1,142.463a858.346,858.346,0,0,0-145.4-12.331c-28.318,0-56.85,1.4-84.8,4.171-71.6,7.266-134.943,21.665-188.245,42.792-53.847,21.4-91.86,48.408-112.976,80.277-20.884,31.392-19.31,62.473,4.8,95.027l.082.112c20.961,29.582,55.416,54.717,105.33,76.841,42.144,18.96,89.785,33.76,145.676,45.262a1047.142,1047.142,0,0,0,135.18,19.231c36.555,2.984,73.3,4.495,109.248,4.495a1248.116,1248.116,0,0,0,233.045-21.686c51.9-10.237,93.562-21.145,131.063-34.322,41.572-14.666,74.2-29.724,105.792-48.82,61.513-37.6,94.866-78.51,101.935-125.066l12.927.976c0,1.422.058,2.837.121,4.335.193,4.651.412,9.917-1.367,15.559-6.241,24.65-20.53,47.792-43.677,70.745-22.653,22.039-49.819,41.085-85.537,59.987-80.269,42.123-183.654,70.61-307.306,84.678A1345.093,1345.093,0,0,1,702.843,513.278Z" style="fill: #fcdaee"/>
          <path d="M592.72,50.618A1387.377,1387.377,0,0,1,744.252,59.1c79,9.056,147,24.7,208,47.334,69,25.93,119,57.211,145,93.843,12,17.7,20,34.985,20,52.683s-5,34.574-16,51.861c-24,38.278-75,69.971-150,95.078-60,19.757-128,31.693-203,34.986q-21.532.917-43.011.919a912.961,912.961,0,0,1-127.989-8.74q-93-13.582-156-45.687c-57-29.223-79-64.62-65-101.251,13-31.693,54-58.035,121-75.322,36.729-9.265,78.018-14.2,119.09-14.2a462.656,462.656,0,0,1,82.91,7.2c27,5.351,51,11.936,70,22.226,13,7.409,22,14.817,28,23.461,8,13.582,6,26.753-9,39.1-14,10.7-37,18.934-68,21.4q-6.576.516-12.878.508a146.464,146.464,0,0,1-43.122-6.27c-19-6.174-17-16.052-17-25.107,0-4.939-13-7.821-24-8.232q-1.789-.052-3.533-.052a114.713,114.713,0,0,0-33.467,4.991c-28,9.055-37,23.049-33,37.043,5,15.641,25,28.4,54,38.69,34.02,11.423,74.445,16.248,116.266,16.248q7.339,0,14.734-.2c34-.823,66-5.762,96-12.348,27-6.174,47-14.817,67-24.284,32-16.463,49-34.985,55-55.565,6-22.637-3-44.863-26-65.443-9-7-18-13.583-29-20.58-38-21.4-85-37.043-142-47.333A864.775,864.775,0,0,0,592.7,123.632c-28.324,0-56.889,1.375-85.448,4.2-73,7.409-136,21.815-190,43.218-58,23.049-95,51.037-116,82.73-23,34.573-20,68.736,5,102.486,21,29.635,56,55.977,108,79.026,43,19.345,91,34.162,147,45.687a1048.781,1048.781,0,0,0,136,19.345Q653,504.877,706.993,504.84a1250.01,1250.01,0,0,0,234.259-21.8c48-9.467,91-20.168,132-34.574,42-14.817,75-30.046,107-49.391,66-40.336,98-83.553,105-129.652,0,6.174,1,11.936-1,18.11-6,23.873-20,46.1-42,67.913-22,21.4-49,40.336-84,58.858-80,41.982-182,69.971-305,83.965a1335.911,1335.911,0,0,1-150.407,8.51,1247,1247,0,0,1-195.593-15.1c-118-18.933-215-53.918-273-100.428-66-53.507-72-116.069-10-170.4,34-30.046,84-53.918,153-72.852,65-17.286,134-25.518,208-26.753q5.558-.067,11.1-.068c97.119,0,191.5,15.591,259.9,44.932,49,21.4,80,47.744,88,76.556a59.756,59.756,0,0,1,1,23.049c-3,18.11-17,35.4-40,51.449-34,23.049-84,39.1-146,46.1a564.8,564.8,0,0,1-58.359,3.026c-8.421,0-16.941-.186-25.641-.556-38-2.058-73-7.82-103-18.522-29-10.7-50-23.872-55-39.924-4-13.171,0-25.519,19-37.044,17.014-10.656,44.969-17.484,73.752-17.483a167.865,167.865,0,0,1,30.248,2.666c12,2.058,20,6.174,26,10.7,7,5.762,4,11.936,4,17.7,0,2.058,3,4.527,7,5.351a80.941,80.941,0,0,0,23.1,3.22c21.822,0,42.554-7.765,52.9-15.98,18-14.817,14-31.692-5-46.1-31.221-22.922-90.918-35-153.265-35-11.54,0-23.177.414-34.735,1.249-92,6.174-161,34.986-188,70.383-10,13.994-14,27.988-12,42.394,3,19.345,18,37.455,41,54.33,42,30.458,108,51.449,188,61.739,36.942,4.951,74.622,8.078,113.04,8.078q9.45,0,18.96-.258c35-1.235,69-3.293,103-7.82,123-16.464,217-56.8,261-106.191,33-38.278,35-79.026,7-118.539-30-42.394-91-76.967-177-104.133-93-29.634-200-42.8-312-44.04q-8.722-.141-17.335-.14c-44.648,0-87.48,2.761-132.665,7.137-52,5.351-96,13.994-142,24.284-48,10.7-87,24.284-125,40.336-40,16.052-70,33.339-97,53.507-46,34.574-71,71.617-76,109.895,0-6.174-1-11.936,1-18.11,19-69.147,101-130.475,242-172.869,74-22.226,150-35.808,239-42.394,33.216-2.384,65.523-3.541,97.468-3.541m0-13c-32.712,0-64.9,1.17-98.4,3.575C404.743,47.821,327.915,61.456,252.512,84.1c-70.758,21.274-128.163,47.624-170.626,78.316-42.723,30.882-69.671,65.636-80.1,103.3-2.109,6.715-1.855,12.823-1.65,17.746.059,1.429.115,2.779.115,4.065l25.89,1.684c4.6-35.232,28.463-69.276,70.92-101.187,27.819-20.779,57.708-37.258,94.032-51.834l.109-.044.107-.046c42.477-17.943,80.341-30.163,122.77-39.623,41.207-9.217,86.74-18.507,140.485-24.038,50.5-4.89,91.017-7.071,131.352-7.071,5.691,0,11.453.047,17.125.138h.066c118.16,1.3,221.853,15.914,308.2,43.428,85.55,27.023,142.849,60.414,170.335,99.256,12.242,17.275,17.962,34.6,17.008,51.489-.965,17.082-8.762,34.23-23.175,50.973-20.649,23.143-53.861,44.578-96.056,61.994-44.284,18.278-98.536,32.068-156.89,39.879-29.128,3.878-60.492,6.257-101.68,7.711-6.1.167-12.346.252-18.554.252-34.918,0-71.329-2.605-111.315-7.963l-.034,0-.034,0c-79.633-10.243-142.566-30.765-182-59.349-21.447-15.742-33.491-31.124-35.8-45.72-1.481-10.882,1.66-21.608,9.6-32.778,12.2-15.9,34.272-30.33,63.846-41.744,32.215-12.434,71.831-20.522,114.564-23.39l.034,0,.033,0c11.158-.807,22.529-1.216,33.8-1.216,62.444,0,118.173,12.419,145.489,32.419,7.132,5.424,11.269,10.955,11.353,15.183.078,3.889-3.6,7.779-6.747,10.383-8.279,6.519-26.258,13.093-44.733,13.093a69.556,69.556,0,0,1-16.519-1.9c.293-5.808-.637-14.259-9.316-21.4l-.212-.175-.22-.165c-8.882-6.7-19.208-11-31.562-13.125A180.573,180.573,0,0,0,610,239.762c-31,0-61.118,7.259-80.583,19.422-11.4,6.931-18.95,14.612-23.079,23.478-4.079,8.759-4.593,18.316-1.529,28.4l.013.045.014.044c5.93,19.037,26.508,34.821,62.911,48.254l.067.025.066.024c29.567,10.546,65.454,17.026,106.665,19.258l.075,0,.075,0c8.842.377,17.655.568,26.194.568a577.32,577.32,0,0,0,59.689-3.094l.064-.007.064-.007c63.3-7.144,115.807-23.83,151.837-48.256l.073-.049.072-.051c26.6-18.562,41.866-38.744,45.385-59.984l.04-.238.03-.238c1.328-10.386.914-19.257-1.3-27.919l-.034-.129-.035-.128c-4.651-16.75-15.635-32.7-32.648-47.412-15.823-13.682-36.91-26.326-62.675-37.58l-.039-.017-.039-.016c-34.635-14.859-75.72-26.411-122.113-34.336a851.88,851.88,0,0,0-142.909-11.649c-3.749,0-7.538.024-11.262.069h-.058c-78.18,1.3-147.239,10.2-211.124,27.188l-.05.013-.049.014C303,154.9,251.259,179.642,215.647,211.109c-15.783,13.838-27.828,28.575-35.8,43.8-8.117,15.5-12.076,31.576-11.766,47.769.335,17.463,5.622,34.878,15.713,51.761,9.726,16.274,23.948,32.057,42.271,46.911l.027.022.027.022c29.772,23.874,69.36,44.943,117.665,62.621,47.144,17.254,101.449,30.881,161.408,40.5a1259.491,1259.491,0,0,0,197.653,15.26,1351.448,1351.448,0,0,0,151.874-8.593c61.952-7.049,119.351-17.771,170.606-31.87,51.621-14.2,98.377-32.2,138.968-53.5,36.32-19.22,63.959-38.613,87.024-61.051l.044-.043.044-.044c23.955-23.752,38.8-47.826,45.356-73.585,2.061-6.659,1.809-12.716,1.606-17.6-.059-1.428-.115-2.778-.115-4.065l-25.853-1.951c-3.273,21.557-12.338,41.466-27.711,60.863-16.435,20.739-40.381,40.8-71.175,59.623-31.191,18.855-63.446,33.734-104.586,48.249-37.18,13.063-78.546,23.892-130.163,34.073A1241.581,1241.581,0,0,1,706.993,491.84c-35.778,0-72.344-1.5-108.684-4.471l-.038,0-.039,0a1040.817,1040.817,0,0,1-134.36-19.115c-55.419-11.4-102.616-26.062-144.287-44.81l-.032-.014-.033-.015c-24.7-10.95-45.962-22.936-63.182-35.624-16.412-12.094-29.7-25.226-39.479-39.033l-.079-.112-.082-.109c-11.092-14.975-17.138-29.764-17.968-43.957-.852-14.553,3.513-28.812,13.346-43.592,9.855-14.873,23.619-28.753,40.922-41.275,18.574-13.441,41.807-25.746,69.055-36.574,52.736-20.9,115.491-35.157,186.511-42.365,27.712-2.743,56.03-4.136,84.136-4.136A851.915,851.915,0,0,1,737,148.869c55.769,10.072,100.773,25.018,137.572,45.687,9.158,5.839,17.376,11.671,27.341,19.405,9.793,8.827,16.569,17.838,20.143,26.788a39.092,39.092,0,0,1,1.671,25.192c-5.275,17.868-21.056,33.373-48.231,47.389-17.824,8.432-37.463,17.162-64.08,23.255-33.693,7.393-64.27,11.331-93.477,12.038-4.846.127-9.688.191-14.419.191-43.581,0-81.271-5.227-112.023-15.535-15.211-5.406-41.2-16.46-45.8-30.164-.824-3.067-.193-5.576,2.091-8.351,2.7-3.282,8.765-8.112,22.324-12.516a102.255,102.255,0,0,1,29.605-4.4c1.016,0,2.055.014,3.089.044a58.875,58.875,0,0,1,11.4,1.489,31.736,31.736,0,0,0,3.5,14.653c4.039,7.536,11.407,12.956,22.523,16.568l.092.03.091.028a159.042,159.042,0,0,0,46.957,6.849c4.584,0,9.258-.184,13.893-.548,31.728-2.527,57.615-10.838,74.88-24.034l.186-.143.181-.149c9.646-7.941,15.562-16.839,17.584-26.447,2.027-9.633.128-19.487-5.645-29.289l-.246-.417-.276-.4c-7.026-10.123-17.272-18.811-32.243-27.342l-.122-.07-.123-.067c-18.022-9.76-40.741-17.023-73.664-23.547l-.09-.018-.089-.016a473.861,473.861,0,0,0-85.258-7.414c-42.146,0-84.427,5.046-122.27,14.592l-.034.009-.034.009c-34.365,8.866-62.765,20.25-84.412,33.835-22.528,14.137-37.791,30.67-45.368,49.14l-.06.146-.056.147c-8.428,22.055-5.99,44.541,7.053,65.027,12.255,19.249,33.842,36.89,64.16,52.434,43.1,21.962,96.937,37.764,160.052,46.982A926.21,926.21,0,0,0,705.241,448.8c14.389,0,29.046-.313,43.564-.931,75.28-3.305,144.755-15.291,206.513-35.626l.03-.01.031-.01c38.575-12.913,71.187-27.694,96.933-43.932,26.869-16.946,47.037-35.972,59.944-56.551,12.11-19.051,18-38.279,18-58.784,0-18.541-7.067-37.6-22.24-59.979l-.079-.115-.08-.114c-26.8-37.763-77.617-70.9-151.028-98.487l-.025-.01-.025-.009C894.15,71,825.118,55.282,745.732,46.183l-.035,0-.035,0A1397.1,1397.1,0,0,0,592.72,37.618Z" style="fill: #f793cb"/>
        </g>
        <g>
          <path d="M707.857,494.513q-4.322,0-8.658-.035a1350.946,1350.946,0,0,1-194.929-15.3c-60.511-9.548-113.594-23.122-162.313-41.5-48.71-18.74-85.607-38.74-112.836-61.155-35.446-28.737-54.429-61.02-54.859-93.329-.406-30.4,15.765-60.5,46.763-87.028,29.562-25.174,70.174-46.17,124.168-64.2,58.2-19.563,127.422-31.444,205.739-35.313,14.449-.631,29.036-.951,43.393-.951,104.336,0,198.647,16.32,265.559,45.952,37.552,16.782,63.251,34.957,78.584,55.572,18.3,24.368,19.067,49.843,2.265,75.7-18.084,28.851-59.2,52.026-118.9,67.021A493.688,493.688,0,0,1,702.15,354.274c-16.1,0-32.421-.752-48.495-2.234-56.817-5.631-102.076-20.018-127.484-40.515l-.151-.125c-13.036-11.178-19.046-24.243-16.923-36.788,1.784-10.543,10.134-25.55,39.783-37.172,18.073-6.867,40.7-10.792,62.153-10.792a149.67,149.67,0,0,1,38.914,4.806l.139.039a90.411,90.411,0,0,1,16.266,6.61l.932.46.149.084c13,7.294,12.628,16.915,12.385,23.282-.011.318-.024.636-.035.956,1.287.677,4.159,1.755,9.337,2.563a98.654,98.654,0,0,0,11.129.63c20.228,0,36.718-6.172,45.4-11.947,8.919-5.949,13.2-12.113,12.7-18.315-.754-9.506-12.647-20.43-31.816-29.221-25.255-11.595-56.276-18.814-94.837-22.07-13.205-.974-26.456-1.471-39.315-1.471a458,458,0,0,0-72.111,5.529c-68.1,10.9-121.47,35-142.758,64.477-23.488,32.225-4.274,59.819,15.978,77.3,34.553,29.234,94.525,52.544,168.824,65.6,26.761,4.263,58.882,8.856,94.253,10.62,19.165.695,35.177,1.022,50.3,1.022,17.957,0,34.637-.468,50.993-1.431,37.486-2.571,69.671-6.336,101.209-11.84,46.964-9.023,86.463-20.08,120.758-33.8a319.53,319.53,0,0,0,68.688-37.158c45.123-32.217,63.115-67.982,53.425-106.266-7.837-31.9-39.384-63.869-93.778-95.063C946.255,90.961,872.6,68.485,789.231,55.228a1234.428,1234.428,0,0,0-198.22-15.679c-114.978,0-226.985,15.178-323.913,43.891-76.35,22.277-136.808,50.549-179.722,84.04-40.539,31.639-63.307,66.2-67.67,102.713l-12.954-.771c0-1.524-.059-3.063-.12-4.693-.195-5.1-.413-10.883,1.361-16.82,10.438-40,41.641-76.958,92.741-109.848C151.34,105.488,218.618,78.737,300.7,58.549A1112.163,1112.163,0,0,1,446.536,32.882c47.46-5.362,95.673-7.861,151.716-7.861,100.813,0,195.56,11.147,281.609,33.13,81.928,20.973,143.883,48.557,189.406,84.329l.089.071c24.45,19.912,40.889,40.836,48.861,62.19,8.256,22.117,7.592,44.865-1.973,67.613l-.094.209c-7,15.133-17.084,33.008-38.767,50.857l-.1.081c-28.681,22.665-59.1,39.716-95.718,53.659-73.821,28.742-169.807,45.271-270.231,46.523-3.239.034-6.449.05-9.658.05-77.259,0-149.675-9.659-215.237-28.707-61.963-18.1-103.617-42.006-127.352-73.091-24.485-32.98-18.429-67.409,17-97.013l.085-.07c28.326-22.87,70.105-40.263,120.821-50.3A537.555,537.555,0,0,1,597.1,165.183a487.778,487.778,0,0,1,66.039,4.369c47.657,6.973,86.059,20.614,108.19,38.418,11.732,9.415,17.936,20.218,17.936,31.238,0,7.452-2.94,18.694-16.942,29.933l-.119.095-.123.089c-14.364,10.461-35.414,17.984-60.873,21.756l-.156.022a192.934,192.934,0,0,1-23.53,1.424c-12.871,0-44.612-1.434-61.315-14.726l-.143-.113-.135-.122c-7.733-6.895-8.176-14.67-7.389-20.5-1.128-.829-3.949-2.3-9.169-3.017a77.807,77.807,0,0,0-11.48-.815,97.507,97.507,0,0,0-19.327,1.977c-17.971,3.875-30.356,10.395-35.766,18.845-3.236,5.513-3.507,10.575-.856,15.919,9.468,19.086,53.494,36.753,107.062,42.963a486.062,486.062,0,0,0,55.247,3.132,472.888,472.888,0,0,0,73-5.566c46.045-6.962,85.236-20.171,113.374-38.2,25.4-16.28,39.652-35.394,40.133-53.827-.023-13.4-5.551-26.625-16.435-39.317-15.287-17.4-40.341-33.124-76.539-48.023-62.988-25.56-149.607-39.644-243.872-39.644-6.474,0-13.041.071-19.516.208-72.122,1.648-137.356,10.728-199.418,27.758a574.821,574.821,0,0,0-57.306,19.523C252.788,185.69,212.632,217.962,198.312,254.9c-12.73,32.188-3.448,64.469,27.573,95.99,33.607,34.174,87.531,62.836,160.276,85.192,61.84,19.667,128.022,31.767,214.65,39.25,35.807,2.879,72.116,4.341,107.88,4.341,133.465,0,259.116-19.738,363.369-57.079,70.089-25.14,123.145-54.709,157.69-87.886,27.615-26.52,44.13-55.48,49.086-86.077l12.916,1.039c0,1.522.058,3.063.12,4.692.193,5.1.413,10.867-1.353,16.794-6.013,23.785-20.632,46.944-44.69,70.8-23.8,23.153-50.984,42.211-85.6,60.023-36.329,18.8-72.766,33.157-118.132,46.552-58.379,17.621-118.8,29.6-190.109,37.68C797.945,491.874,752.165,494.513,707.857,494.513Z" style="fill: #fcdaee"/>
          <path d="M598.252,31.522c99,0,193,10.7,280,32.927,82,20.991,143,48.568,187,83.142,47,38.278,63,79.437,45,122.243-8,17.287-18,32.927-37,48.568-25,19.756-54,37.455-94,52.684-74,28.811-169,44.863-268,46.1-3.2.033-6.389.049-9.576.049-76.41,0-148.147-9.483-213.424-28.449-62-18.11-102-41.982-124-70.794-22-29.635-17-60.5,16-88.081,26-20.991,66-38.689,118-48.979a534.494,534.494,0,0,1,98.846-9.247,481.122,481.122,0,0,1,65.154,4.308c45,6.585,83,19.345,105,37.043,20,16.052,21,34.986,1,51.038-13,9.466-33,16.875-58,20.579a186.812,186.812,0,0,1-22.734,1.377c-23.313,0-45.966-4.321-57.266-13.313-6-5.351-6-11.113-5-16.464,0-3.7-6-7.408-15-8.643a83.974,83.974,0,0,0-12.367-.876,103.946,103.946,0,0,0-20.633,2.111c-21,4.527-34,12.347-40,21.814-19,32.1,40,60.5,111,68.736a491.963,491.963,0,0,0,55.994,3.175,480.1,480.1,0,0,0,74.006-5.644c98-14.818,158-56.8,159-98.371,0-14.817-6-29.635-18-43.629-17-19.345-44-35.4-79-49.8C774.04,118.253,684.365,104.988,593.9,104.988c-6.543,0-13.106.07-19.648.209-72,1.646-138,10.7-201,27.988a585.66,585.66,0,0,0-58,19.757c-67,27.576-108,60.915-123,99.6-14,35.4-3,70.382,29,102.9,34,34.574,88,63.8,163,86.846,66,20.991,135,32.516,216,39.513,36.47,2.933,72.713,4.365,108.439,4.365,134.728,0,262.018-20.373,365.561-57.46,70-25.107,124-54.742,160-89.316,30-28.811,46-58.858,51-89.727,0,6.585,1,13.171-1,19.756-6,23.873-21,46.1-43,67.913-22,21.4-48,40.336-84,58.858-35,18.11-71,32.516-117,46.1-60,18.11-120,29.635-189,37.455-48.133,5.05-95.369,8.267-143.4,8.267-2.86,0-5.731-.012-8.6-.035a1341.6,1341.6,0,0,1-194-15.229c-60-9.467-113-23.049-161-41.159-46-17.7-83-37.044-111-60.093-66-53.507-71-116.48-8-170.4,29-24.7,69-45.275,122-62.974,60-20.168,129-31.281,204-34.985q21.56-.942,43.077-.943c98.34,0,193.972,14.86,262.923,45.4,35,15.64,61,33.339,76,53.507,17,22.638,17,45.275,2,68.324-17,27.165-56,49.391-115,64.209a488.9,488.9,0,0,1-118.1,14.144c-15.819,0-31.823-.725-47.9-2.208-54-5.351-99-18.933-124-39.1-24-20.58-21-46.51,21-62.974,16.421-6.239,38.027-10.344,59.781-10.344a143.942,143.942,0,0,1,37.219,4.582,87.112,87.112,0,0,1,16,6.585c11,6.174,9,13.171,9,20.168,0,3.7,7,6.174,15,7.409a104.836,104.836,0,0,0,12,.686c20.215,0,38.118-5.795,49.005-13.034,29-19.345,15-42.8-20-58.858-26-11.936-58-19.344-97-22.637q-20.131-1.488-39.861-1.5a463.06,463.06,0,0,0-73.139,5.612c-72,11.524-125,36.631-147,67.089-21,28.812-14,59.27,17,86.023,36,30.458,97,53.919,172,67.09,31,4.939,62,9.055,95,10.7,17,.618,33.75,1.029,50.625,1.029s33.875-.411,51.375-1.441a971.364,971.364,0,0,0,102-11.936c45-8.643,86-19.756,122-34.162a327.039,327.039,0,0,0,70-37.866c49-34.986,66-73.675,56-113.188-9-36.632-46-69.971-97-99.194-59-29.635-133-53.507-221-67.5a1243.793,1243.793,0,0,0-199.24-15.76c-113.762,0-227.079,14.926-325.76,44.159-158,46.1-243,116.893-252,192.214,0-6.585-1-13.171,1-19.756,20-76.968,124-144.469,288-184.8a1105.18,1105.18,0,0,1,145-25.519c51-5.762,100-7.82,151-7.82m0-13c-56.3,0-104.744,2.511-152.46,7.9A1118.34,1118.34,0,0,0,299.156,52.235C216.367,72.6,148.428,99.633,97.216,132.6c-25.562,16.453-46.588,34.276-62.492,52.974-16.418,19.3-27.518,39.688-32.993,60.593C-.315,253.083-.076,259.4.136,264.976c.06,1.567.116,3.046.116,4.446l25.908,1.543c2.012-16.841,8.383-33.586,18.935-49.769,10.985-16.85,26.556-33.2,46.28-48.591,42.262-32.983,101.988-60.88,177.518-82.917l.026-.007.025-.008C365.281,61.134,476.65,46.049,591.012,46.049a1227.861,1227.861,0,0,1,197.146,15.59l.026,0,.026,0c82.633,13.141,155.6,35.386,216.89,66.121,25.559,14.671,46.167,29.676,61.26,44.6,15.7,15.526,25.544,31.081,29.267,46.234l.011.044.011.044a70.181,70.181,0,0,1-4.989,49.471c-8.312,17.293-23.756,34.084-45.908,49.909a313.3,313.3,0,0,1-67.3,36.4c-33.919,13.573-73.016,24.514-119.544,33.456-31.277,5.457-63.213,9.192-100.489,11.75-16.207.952-32.74,1.414-50.541,1.414-15.025,0-30.936-.323-50.066-1.017-35.008-1.752-66.857-6.306-93.41-10.535C490.28,376.693,431.442,353.914,397.7,325.4c-13.327-11.511-21.307-23.281-23.718-34.983-2.288-11.1.664-22.377,8.773-33.5l.017-.022.016-.023c20.3-28.1,72.082-51.231,138.517-61.865a451.472,451.472,0,0,1,71.084-5.448c12.675,0,25.735.489,38.82,1.454,37.774,3.194,68.071,10.225,92.617,21.494,18.755,8.6,27.6,18.166,28.05,23.829.383,4.822-6,9.838-9.84,12.4-7.88,5.239-23.009,10.849-41.791,10.849a92.131,92.131,0,0,1-10.255-.572c-1.421-.225-2.617-.47-3.6-.709-.1-7.259-2.015-17.6-15.773-25.318l-.3-.168-.307-.152-.78-.385a95.683,95.683,0,0,0-17.311-7.016l-.137-.041-.139-.038a156.153,156.153,0,0,0-40.609-5.031c-22.206,0-45.679,4.079-64.4,11.192l-.064.024-.064.024c-32.477,12.732-41.755,29.943-43.819,42.14-2.518,14.882,4.266,30.085,19.1,42.806l.149.127.151.122c26.384,21.284,72.865,36.172,130.881,41.92l.044,0,.044,0c16.273,1.5,32.791,2.262,49.1,2.262a500.111,500.111,0,0,0,121.253-14.532c30.31-7.612,56.03-17.284,76.458-28.749,21.068-11.824,36.662-25.647,46.349-41.082,8.953-13.793,13.338-27.785,13.034-41.591-.311-14.178-5.555-28.144-15.585-41.508-16.017-21.52-42.548-40.359-81.107-57.59C794.8,105.715,699.553,89.2,594.329,89.2c-14.443,0-29.127.321-43.645.955l-.037,0-.037,0c-78.913,3.9-148.726,15.891-207.5,35.647-54.776,18.291-96.093,39.686-126.286,65.4-16.184,13.851-28.547,28.631-36.772,43.952-8.372,15.6-12.507,31.787-12.29,48.121.232,17.415,5.4,34.773,15.361,51.592,9.618,16.239,23.721,31.955,41.918,46.712,27.773,22.848,65.24,43.177,114.543,62.146l.039.015.04.015c49.141,18.54,102.643,32.226,163.563,41.837l.032.005.031,0a1357.386,1357.386,0,0,0,195.883,15.378c2.846.023,5.775.035,8.678.035,44.544,0,90.542-2.65,144.758-8.338l.054-.006.054-.006c71.69-8.125,132.467-20.174,191.253-37.914,45.763-13.515,82.543-28.013,119.257-47.01,35.18-18.1,62.862-37.514,87.091-61.086l.044-.043.044-.044c24.877-24.667,40.051-48.773,46.382-73.69,2.031-6.9,1.792-13.2,1.581-18.764-.06-1.567-.116-3.047-.116-4.446l-25.833-2.079a125.89,125.89,0,0,1-14.638,41.368c-7.874,14.076-18.82,27.891-32.534,41.062-33.881,32.538-86.16,61.626-155.384,86.455-50.986,18.262-107.755,32.405-168.725,42.034a1238.135,1238.135,0,0,1-192.447,14.663c-35.582,0-71.705-1.453-107.361-4.32C515.223,461.408,449.482,449.4,388.192,429.9l-.061-.019-.06-.019c-71.7-22.036-124.711-50.142-157.55-83.535-14.6-14.835-24.2-29.932-28.534-44.875-4.3-14.82-3.529-29.253,2.354-44.127l.016-.041.016-.041c13.647-35.2,52.577-66.233,115.718-92.238a568.645,568.645,0,0,1,56.62-19.291c61.533-16.883,126.249-25.886,197.838-27.524,6.4-.135,12.923-.2,19.351-.2a833.339,833.339,0,0,1,130.231,9.83c42.419,6.741,79.83,16.61,111.2,29.335,35.194,14.488,59.436,29.631,74.1,46.289,9.791,11.437,14.776,23.195,14.82,34.953-.469,16.185-13.652,33.378-37.139,48.43-27.375,17.545-65.69,30.424-110.8,37.245l-.035,0-.035.006a466.386,466.386,0,0,1-71.992,5.487,479.477,479.477,0,0,1-54.511-3.09c-25.6-2.968-50.027-8.782-68.763-16.368-17.326-7.016-29.431-15.408-33.21-23.026-1.633-3.292-1.47-6.1.574-9.629,2.624-4.019,10.186-11.265,31.6-15.891a90.78,90.78,0,0,1,17.954-1.832,70.956,70.956,0,0,1,10.443.733l.078.012.079.01a25.794,25.794,0,0,1,3.271.653,28.868,28.868,0,0,0,.688,6.2,28.352,28.352,0,0,0,9.155,15.081l.273.243.286.227c18.306,14.568,51.807,16.141,65.36,16.141a199.376,199.376,0,0,0,24.327-1.475l.156-.019.156-.023c26.5-3.926,48.538-11.855,63.748-22.93l.246-.18.238-.191c16.011-12.851,19.372-26.127,19.372-35,0-9.106-3.534-22.8-20.372-36.312-11.926-9.595-27.991-17.951-47.737-24.828-18.55-6.46-39.92-11.487-63.518-14.94l-.057-.009-.058-.008a494.387,494.387,0,0,0-66.921-4.428,544.024,544.024,0,0,0-101.272,9.475l-.049.009-.049.01c-51.744,10.24-94.5,28.089-123.643,51.618l-.085.069-.084.07c-37.906,31.676-44.5,70.241-18.1,105.8l.052.071.054.07c12.174,15.943,29.276,30.336,50.833,42.779,21.592,12.464,48.459,23.433,79.854,32.6,66.172,19.225,139.2,28.97,217.069,28.97,3.216,0,6.484-.016,9.71-.049,101.193-1.263,197.972-17.943,272.542-46.968,37.236-14.182,68.18-31.536,97.384-54.614l.1-.081.1-.082c22.692-18.68,33.225-37.348,40.536-53.145l.1-.209.089-.212c10.229-24.325,10.926-48.685,2.071-72.4-8.381-22.451-25.488-44.306-50.845-64.957l-.088-.072-.089-.07c-46.249-36.341-108.991-64.313-191.808-85.514C794.9,29.736,699.607,18.522,598.252,18.522Z" style="fill: #f793cb"/>
        </g>
      </g>
      <g id="_Grid_Repeat_" data-name="&lt;Grid Repeat&gt;">
        <g style="isolation: isolate">
          <polygon points="890.976 425.299 947.635 368.083 1053.301 352.694 996.642 409.91 890.976 425.299" style="fill: #fabfe0"/>
          <polygon points="1122.47 500.045 1179.13 442.829 1199.292 548.353 1142.633 605.569 1122.47 500.045" style="fill: #fac2e2"/>
          <polygon points="1042.141 313.895 1098.8 256.679 1148.072 352.694 1091.412 409.91 1042.141 313.895" style="fill: #f9b1da"/>
          <polygon points="1042.141 313.895 1091.412 409.91 1197.68 425.299 1122.47 500.045 1142.633 605.569 1046.871 555.755 953.075 605.569 969.11 500.045 890.976 425.299 996.642 409.91 1042.141 313.895" style="fill: #f1faee"/>
          <polygon points="1091.412 409.91 1148.072 352.694 1254.339 368.083 1197.68 425.299 1091.412 409.91" style="fill: #f9aed8"/>
        </g>
      </g>
    </g>
  </g>
</svg>
