<svg xmlns="http://www.w3.org/2000/svg" xmlns:xlink="http://www.w3.org/1999/xlink" viewBox="0 0 310.006 90.7"><defs><style>.cls-1{fill:none;}.cls-2{fill:#f466b6;}.cls-3{fill:#007e84;}.cls-4{isolation:isolate;}.cls-5{fill:#54acb0;}.cls-6{clip-path:url(#clip-path);}.cls-7{fill:#f685c5;stroke-width:0.833px;}.cls-16,.cls-7{stroke:#007e84;stroke-miterlimit:10;}.cls-8{fill:#fcdaee;}.cls-9{fill:#f793cb;}.cls-10{clip-path:url(#clip-path-2);}.cls-11,.cls-16{fill:#f1faee;}.cls-12{clip-path:url(#clip-path-3);}.cls-13{clip-path:url(#clip-path-4);}.cls-14{clip-path:url(#clip-path-5);}.cls-15{clip-path:url(#clip-path-6);}.cls-16{stroke-width:0.416px;}.cls-17{clip-path:url(#clip-path-7);}.cls-18{fill:#fab7dd;}.cls-19{fill:#f9aed8;}.cls-20{clip-path:url(#clip-path-8);}.cls-21{clip-path:url(#clip-path-9);}.cls-22{clip-path:url(#clip-path-10);}.cls-23{clip-path:url(#clip-path-11);}.cls-24{clip-path:url(#clip-path-12);}.cls-25{clip-path:url(#clip-path-13);}</style><clipPath id="clip-path"><path class="cls-1" d="M19.377,49.562,29.454,39.386a11.242,11.242,0,0,0-3.408,8.163L15.969,57.725A11.241,11.241,0,0,1,19.377,49.562Z"/></clipPath><clipPath id="clip-path-2"><path class="cls-1" d="M15.873,35.075,25.95,24.9A17.716,17.716,0,0,1,38.9,19.737c5.4,0,10.592.452,14.036,3.716L42.861,33.629c-3.443-3.264-8.632-3.716-14.036-3.716A17.716,17.716,0,0,0,15.873,35.075Z"/></clipPath><clipPath id="clip-path-3"><path class="cls-1" d="M103.429,60.6,93.352,70.772A15.324,15.324,0,0,1,82.522,75.4L92.6,65.225A15.324,15.324,0,0,0,103.429,60.6Z"/></clipPath><clipPath id="clip-path-4"><path class="cls-1" d="M71.361,48.815,81.438,38.639a15.191,15.191,0,0,0-4.46,10.938c.165,8.444,7.289,15.648,15.621,15.648L82.522,75.4c-8.332,0-15.456-7.2-15.621-15.648A15.2,15.2,0,0,1,71.361,48.815Z"/></clipPath><clipPath id="clip-path-5"><path class="cls-1" d="M59.987,37.864,70.064,27.688a30.053,30.053,0,0,1,21.63-8.739L81.617,29.125A30.048,30.048,0,0,0,59.987,37.864Z"/></clipPath><clipPath id="clip-path-6"><path class="cls-1" d="M114.818,71.392,104.741,81.568a29.856,29.856,0,0,0,8.551-21.815A31.347,31.347,0,0,0,81.617,29.125L91.694,18.949a31.347,31.347,0,0,1,31.675,30.628A29.856,29.856,0,0,1,114.818,71.392Z"/></clipPath><clipPath id="clip-path-7"><path class="cls-1" d="M171.519,62.984,161.442,73.16a8.857,8.857,0,0,1-7.186,2.917c-3.716,0-7.734-3.828-7.9-12.16l10.077-10.176c.163,8.332,4.181,12.16,7.9,12.16A8.857,8.857,0,0,0,171.519,62.984Z"/></clipPath><clipPath id="clip-path-8"><path class="cls-1" d="M230.545,60.6,220.468,70.772A15.32,15.32,0,0,1,209.639,75.4l10.077-10.176A15.32,15.32,0,0,0,230.545,60.6Z"/></clipPath><clipPath id="clip-path-9"><path class="cls-1" d="M198.478,48.815l10.077-10.176a15.2,15.2,0,0,0-4.461,10.938c.166,8.444,7.29,15.648,15.622,15.648L209.639,75.4c-8.332,0-15.456-7.2-15.621-15.648A15.191,15.191,0,0,1,198.478,48.815Z"/></clipPath><clipPath id="clip-path-10"><path class="cls-1" d="M187.1,37.864l10.077-10.176a30.051,30.051,0,0,1,21.63-8.739L208.734,29.125A30.047,30.047,0,0,0,187.1,37.864Z"/></clipPath><clipPath id="clip-path-11"><path class="cls-1" d="M241.934,71.392,231.858,81.568a29.856,29.856,0,0,0,8.551-21.815,31.347,31.347,0,0,0-31.675-30.628l10.077-10.176a31.347,31.347,0,0,1,31.675,30.628A29.853,29.853,0,0,1,241.934,71.392Z"/></clipPath><clipPath id="clip-path-12"><path class="cls-1" d="M275.853,49.425,285.93,39.249a11.236,11.236,0,0,0-3.407,8.164L272.446,57.588A11.236,11.236,0,0,1,275.853,49.425Z"/></clipPath><clipPath id="clip-path-13"><path class="cls-1" d="M272.35,34.937l10.077-10.176a17.714,17.714,0,0,1,12.951-5.16c5.4,0,10.593.448,14.033,3.716L299.335,33.493c-3.441-3.268-8.629-3.716-14.034-3.716A17.714,17.714,0,0,0,272.35,34.937Z"/></clipPath></defs><g id="Layer_2" data-name="Layer 2"><g id="Layer_1-2" data-name="Layer 1"><path class="cls-2" d="M86.4,85.381c-17.459,0-30.624-13.165-30.624-30.625A30.071,30.071,0,0,1,86.4,24.245c17.365,0,30.966,13.4,30.966,30.511C117.367,71.929,103.766,85.381,86.4,85.381Zm0-46.618a16.151,16.151,0,0,0-15.88,15.993c0,8.793,7.273,16.221,15.88,16.221a16.646,16.646,0,0,0,16.221-16.221C102.622,46.236,95.042,38.763,86.4,38.763Z"/><path class="cls-3" d="M86.4,24.661a30.642,30.642,0,0,1,21.674,8.744,29.718,29.718,0,0,1,8.876,21.351c0,16.94-13.419,30.209-30.55,30.209a30.154,30.154,0,1,1,0-60.3m0,46.733a16.98,16.98,0,0,0,16.638-16.638c0-8.741-7.775-16.41-16.638-16.41a16.06,16.06,0,0,0-11.48,4.925,16.551,16.551,0,0,0-4.816,11.485c0,9.019,7.463,16.638,16.3,16.638m0-47.565c-17.738,0-31.041,13.644-31.041,30.927C55.36,72.267,68.663,85.8,86.4,85.8c17.511,0,31.383-13.531,31.383-31.042,0-17.283-13.872-30.927-31.383-30.927Zm0,46.732c-8.414,0-15.463-7.277-15.463-15.805A15.8,15.8,0,0,1,86.4,39.179c8.414,0,15.805,7.277,15.805,15.577A16.147,16.147,0,0,1,86.4,70.561Z"/><path class="cls-2" d="M160.533,85.381c-16.523,0-25.622-9.422-25.622-26.531V36.21l-6.305-3.638,2.981-7.076h3.324V14.743l15.836-9.32L150.678,25.5H171.2l-1.7,12.13H150.679V58.964c0,8.723,4.223,12.7,8.148,12.7,3.983,0,6.161-1.144,9.386-5.039l7.939,13.2C171.863,83.919,165.091,85.381,160.533,85.381Z"/><path class="cls-3" d="M150.328,6.152l-.065,18.924,0,.836h20.458l-1.586,11.3H150.263V58.964c0,9.009,4.439,13.112,8.564,13.112,3.976,0,6.211-1.09,9.33-4.741l7.465,12.409c-4.21,3.843-10.694,5.221-15.09,5.221-7.849,0-14.014-2.129-18.322-6.33-4.567-4.453-6.883-11.11-6.883-19.786V35.969l-.417-.24L129.132,32.4l2.731-6.483h3.464V14.981l15-8.829m.838-1.459-16.672,9.812V25.079H131.31l-3.231,7.67,6.415,3.7v22.4c0,18.421,10.347,26.949,26.038,26.949,5.231,0,12.054-1.82,16.147-5.913L168.265,65.9c-3.3,4.094-5.345,5.345-9.438,5.345-3.752,0-7.732-3.866-7.732-12.28V38.042h18.761l1.819-12.963H151.1l.071-20.386Z"/><path class="cls-2" d="M214.767,85.381c-17.459,0-30.625-13.165-30.625-30.625a30.073,30.073,0,0,1,30.625-30.511c17.365,0,30.966,13.4,30.966,30.511C245.733,71.929,232.132,85.381,214.767,85.381Zm0-46.618a16.151,16.151,0,0,0-15.88,15.993c0,8.793,7.273,16.221,15.88,16.221a16.646,16.646,0,0,0,16.221-16.221C230.988,46.236,223.408,38.763,214.767,38.763Z"/><path class="cls-3" d="M214.767,24.661a30.642,30.642,0,0,1,21.674,8.744,29.718,29.718,0,0,1,8.876,21.351c0,16.94-13.419,30.209-30.55,30.209a30.154,30.154,0,1,1,0-60.3m0,46.733a16.98,16.98,0,0,0,16.638-16.638c0-8.741-7.775-16.41-16.638-16.41a16.06,16.06,0,0,0-11.48,4.925,16.551,16.551,0,0,0-4.816,11.485c0,9.019,7.463,16.638,16.3,16.638m0-47.565c-17.738,0-31.041,13.644-31.041,30.927,0,17.511,13.3,31.042,31.041,31.042,17.511,0,31.383-13.531,31.383-31.042,0-17.283-13.872-30.927-31.383-30.927Zm0,46.732c-8.414,0-15.463-7.277-15.463-15.805a15.8,15.8,0,0,1,15.463-15.577c8.414,0,15.805,7.277,15.805,15.577a16.147,16.147,0,0,1-15.805,15.805Z"/><path class="cls-2" d="M263.27,84.219V30.474l9.664-5.69,2.624,10.255.508-.914a17.771,17.771,0,0,1,16.01-9.223c5.935,0,10.538.6,13.658,3.492L303.8,42.92c-5.281-2.968-8.264-3.387-10.7-3.387-8.115,0-14.971,5.971-14.971,13.038V84.219Z"/><path class="cls-3" d="M292.076,25.318c5.735,0,10.2.56,13.216,3.237l-1.827,13.7c-4.061-2.223-7.128-3.143-10.366-3.143a16.74,16.74,0,0,0-10.716,3.866,12.545,12.545,0,0,0-4.671,9.588V83.8H263.686V30.712l8.982-5.288,2.228,8.7.518,2.027,1.016-1.829a17.364,17.364,0,0,1,15.646-9.009M273.2,24.144l-10.346,6.092v54.4h15.691V52.571c0-7.05,6.822-12.621,14.554-12.621,2.842,0,5.912.682,11.029,3.638l2.047-15.35c-3.412-3.3-8.642-3.752-14.1-3.752A18.132,18.132,0,0,0,275.7,33.923l-2.5-9.779Z"/><g class="cls-4"><polygon class="cls-5" points="16.389 57.893 25.649 48.541 26.247 79.133 16.987 88.484 16.389 57.893"/><path class="cls-3" d="M25.252,49.534l.576,29.431-8.444,8.527-.576-29.431,8.444-8.527m.794-1.985L15.969,57.725l.621,31.752L26.667,79.3l-.621-31.752Z"/><g class="cls-4"><g class="cls-6"><g class="cls-4"><path class="cls-7" d="M19.377,49.562,29.454,39.386a11.242,11.242,0,0,0-3.408,8.163L15.969,57.725a11.241,11.241,0,0,1,3.408-8.163"/></g></g></g><polygon class="cls-8" points="10.592 29.695 19.993 20.202 22.404 28.96 13.003 38.453 10.592 29.695"/><path class="cls-3" d="M19.783,21.006l2.155,7.832-8.725,8.811-2.156-7.832,8.726-8.811M20.2,19.4,10.126,29.574l2.666,9.684L22.869,29.082,20.2,19.4Z"/><polygon class="cls-9" points="10.335 25.763 17.603 21.432 9.868 29.243 2.6 33.574 10.335 25.763"/><path class="cls-3" d="M15,23.466,9.609,28.913,5.2,31.54l5.394-5.447L15,23.466M20.2,19.4,10.077,25.432,0,35.608l10.126-6.034L20.2,19.4Z"/><g class="cls-4"><g class="cls-10"><g class="cls-4"><path class="cls-7" d="M15.873,35.075,25.95,24.9A17.716,17.716,0,0,1,38.9,19.737c5.4,0,10.592.452,14.036,3.716L42.861,33.629c-3.443-3.264-8.632-3.716-14.036-3.716a17.716,17.716,0,0,0-12.952,5.162"/></g></g></g><path class="cls-11" d="M1.258,89.269.21,35.725,10,29.892l2.732,9.922.246-.458a17.39,17.39,0,0,1,15.849-9.235c5.975,0,10.616.613,13.817,3.588L40.959,48.493c-5.412-3.05-8.4-3.476-10.822-3.476a15.365,15.365,0,0,0-10.954,4.446,11.475,11.475,0,0,0-3.422,8.266l.617,31.54Z"/><path class="cls-3" d="M9.87,30.211l2.521,9.157.276,1,.492-.917A17.189,17.189,0,0,1,28.825,30.33c5.878,0,10.449.593,13.6,3.461L40.788,48.158c-5.282-2.934-8.243-3.349-10.651-3.349a15.575,15.575,0,0,0-11.1,4.508,11.682,11.682,0,0,0-3.481,8.416l.613,31.327H1.462L.421,35.842,9.87,30.211m.256-.637L0,35.608,1.054,89.477H16.59l-.621-31.752c-.136-6.98,6.512-12.5,14.168-12.5,2.815,0,5.869.676,10.994,3.6l1.73-15.2c-3.443-3.264-8.632-3.716-14.036-3.716a17.547,17.547,0,0,0-16.033,9.345l-2.666-9.684Z"/><polygon class="cls-11" points="43.258 33.82 52.388 24.6 50.81 38.463 41.68 47.683 43.258 33.82"/><path class="cls-3" d="M51.839,25.746,50.413,38.272l-8.184,8.264L43.655,34.01l8.184-8.264m1.1-2.293L42.861,33.629l-1.73,15.2L51.207,38.653l1.731-15.2Z"/></g><g class="cls-4"><g class="cls-4"><g class="cls-12"><g class="cls-4"><path class="cls-7" d="M82.522,75.4,92.6,65.225a15.324,15.324,0,0,0,10.83-4.629L93.352,70.772A15.324,15.324,0,0,1,82.522,75.4"/></g></g></g><g class="cls-4"><g class="cls-13"><g class="cls-4"><path class="cls-7" d="M71.361,48.815,81.438,38.639a15.191,15.191,0,0,0-4.46,10.938c.165,8.444,7.289,15.648,15.621,15.648L82.522,75.4c-8.332,0-15.456-7.2-15.621-15.648a15.2,15.2,0,0,1,4.46-10.938"/></g></g></g><g class="cls-4"><g class="cls-14"><g class="cls-4"><path class="cls-7" d="M59.987,37.864,70.064,27.688a30.053,30.053,0,0,1,21.63-8.739L81.617,29.125a30.048,30.048,0,0,0-21.63,8.739"/></g></g></g><g class="cls-4"><g class="cls-15"><g class="cls-4"><path class="cls-7" d="M81.617,29.125,91.694,18.949a31.347,31.347,0,0,1,31.675,30.628,29.856,29.856,0,0,1-8.551,21.815L104.741,81.568a29.856,29.856,0,0,0,8.551-21.815A31.347,31.347,0,0,0,81.617,29.125"/></g></g></g><path class="cls-16" d="M81.617,29.125a31.347,31.347,0,0,1,31.675,30.628c.339,17.339-13.135,30.739-30.475,30.739a30.864,30.864,0,0,1-31.34-30.739C51.142,42.637,64.05,29.125,81.617,29.125ZM82.522,75.4A15.61,15.61,0,0,0,97.865,59.753c-.161-8.22-7.619-15.428-15.951-15.428A15.285,15.285,0,0,0,66.9,59.753C67.066,68.2,74.19,75.4,82.522,75.4"/></g><g class="cls-4"><g class="cls-4"><g class="cls-17"><g class="cls-4"><path class="cls-7" d="M146.359,63.917l10.077-10.176c.163,8.332,4.181,12.16,7.9,12.16a8.857,8.857,0,0,0,7.186-2.917L161.442,73.16a8.857,8.857,0,0,1-7.186,2.917c-3.716,0-7.734-3.828-7.9-12.16"/></g></g></g><polygon class="cls-18" points="164.024 70.845 173.498 61.277 181.65 74.401 172.175 83.969 164.024 70.845"/><path class="cls-3" d="M173.423,61.945l7.7,12.4L172.25,83.3l-7.7-12.4,8.872-8.959m.151-1.336L163.5,70.785l8.6,13.851,10.077-10.175-8.6-13.852Z"/><polygon class="cls-8" points="127.109 29.949 136.361 20.605 138.345 20.605 129.092 29.949 127.109 29.949"/><path class="cls-3" d="M137.347,21.021l-8.428,8.511h-.812l8.428-8.511h.812m2-.832h-3.155L126.111,30.365h3.155l10.077-10.176Z"/><polygon class="cls-5" points="146.373 43.369 155.634 34.017 156.016 53.573 146.756 62.925 146.373 43.369"/><path class="cls-3" d="M155.237,35.01l.36,18.4-8.444,8.527-.36-18.4,8.444-8.526m.794-1.985L145.954,43.2l.405,20.716,10.077-10.176-.405-20.716Z"/><polygon class="cls-9" points="139.397 10.048 152.861 2.031 145.122 9.845 131.658 17.862 139.397 10.048"/><path class="cls-3" d="M150.264,4.061l-5.4,5.454-10.609,6.317,5.4-5.454,10.609-6.317M155.458,0l-16.32,9.717L129.061,19.893l16.32-9.717L155.458,0Z"/><polygon class="cls-5" points="145.8 10.344 155.057 0.996 155.361 20.02 146.103 29.369 145.8 10.344"/><path class="cls-3" d="M154.657,1.992l.285,17.86L146.5,28.373l-.285-17.86,8.438-8.521m.8-1.992L145.381,10.176l.322,20.189L155.78,20.189,155.458,0Z"/><polygon class="cls-19" points="166.479 30.556 175.601 21.345 174.214 32.833 165.092 42.045 166.479 30.556"/><path class="cls-3" d="M175.042,22.5l-1.224,10.141-8.167,8.247,1.224-10.141,8.167-8.247m1.118-2.312L166.083,30.365,164.533,43.2,174.61,33.025l1.55-12.836Z"/><polygon class="cls-8" points="146.701 29.949 155.953 20.605 175.162 20.605 165.909 29.949 146.701 29.949"/><path class="cls-3" d="M174.163,21.021l-8.428,8.511H147.7l8.428-8.511h18.036m2-.832H155.78L145.7,30.365h20.38L176.16,20.189Z"/><path class="cls-11" d="M156.226,90.284c-16.5,0-25.764-9.405-26.1-26.483l-.436-22.3-6.369-3.634,2.929-7.3h3.226l-.206-10.563,15.906-9.471.32,20.034h20.35l-1.5,12.42H145.742l.409,20.928c.166,8.495,4.318,12.364,8.1,12.364,3.947,0,6.052-1.159,9.22-5.138l8.36,13.46C167.634,88.794,160.818,90.284,156.226,90.284Z"/><path class="cls-3" d="M144.976,10.9l.311,19.47.006.41h20.32l-1.449,12H145.529l.009.425.405,20.716c.169,8.635,4.428,12.568,8.313,12.568,3.947,0,6.083-1.132,9.2-4.987l8.117,13.069c-4.167,4.054-10.837,5.5-15.346,5.5-16.364,0-25.558-9.333-25.89-26.279l-.433-22.18,0-.237-.2-.117-6.11-3.484,2.809-7h3.3l-.009-.424-.2-10.23L144.976,10.9m.405-.725-16.32,9.717.2,10.472h-3.155l-3.049,7.6,6.424,3.665.434,22.18c.357,18.24,10.767,26.687,26.306,26.687,5.18,0,11.9-1.8,15.874-5.856l-8.6-13.851c-3.185,4.055-5.189,5.292-9.241,5.292-3.716,0-7.734-3.828-7.9-12.16L145.954,43.2h18.579l1.55-12.836H145.7l-.322-20.189Z"/></g><g class="cls-4"><g class="cls-4"><g class="cls-20"><g class="cls-4"><path class="cls-7" d="M209.639,75.4l10.077-10.176A15.32,15.32,0,0,0,230.545,60.6L220.468,70.772A15.32,15.32,0,0,1,209.639,75.4"/></g></g></g><g class="cls-4"><g class="cls-21"><g class="cls-4"><path class="cls-7" d="M198.478,48.815l10.077-10.176a15.2,15.2,0,0,0-4.461,10.938c.166,8.444,7.29,15.648,15.622,15.648L209.639,75.4c-8.332,0-15.456-7.2-15.621-15.648a15.191,15.191,0,0,1,4.46-10.938"/></g></g></g><g class="cls-4"><g class="cls-22"><g class="cls-4"><path class="cls-7" d="M187.1,37.864l10.077-10.176a30.051,30.051,0,0,1,21.63-8.739L208.734,29.125a30.047,30.047,0,0,0-21.63,8.739"/></g></g></g><g class="cls-4"><g class="cls-23"><g class="cls-4"><path class="cls-7" d="M208.734,29.125l10.077-10.176a31.347,31.347,0,0,1,31.675,30.628,29.853,29.853,0,0,1-8.552,21.815L231.858,81.568a29.856,29.856,0,0,0,8.551-21.815,31.347,31.347,0,0,0-31.675-30.628"/></g></g></g><path class="cls-16" d="M208.734,29.125a31.347,31.347,0,0,1,31.675,30.628c.339,17.339-13.135,30.739-30.475,30.739a30.864,30.864,0,0,1-31.341-30.739C178.259,42.637,191.167,29.125,208.734,29.125Zm.905,46.276a15.609,15.609,0,0,0,15.342-15.648c-.16-8.22-7.618-15.428-15.95-15.428a15.285,15.285,0,0,0-15.013,15.428c.165,8.444,7.289,15.648,15.621,15.648"/></g><g class="cls-4"><polygon class="cls-5" points="272.865 57.756 282.126 48.405 282.724 78.997 273.464 88.348 272.865 57.756"/><path class="cls-3" d="M281.729,49.4l.575,29.432-8.443,8.527-.576-29.432,8.444-8.527m.794-1.984L272.446,57.588l.621,31.752,10.077-10.175-.621-31.752Z"/><g class="cls-4"><g class="cls-24"><g class="cls-4"><path class="cls-7" d="M275.853,49.425,285.93,39.249a11.236,11.236,0,0,0-3.407,8.164L272.446,57.588a11.236,11.236,0,0,1,3.407-8.163"/></g></g></g><polygon class="cls-8" points="267.068 29.559 276.47 20.066 278.88 28.823 269.479 38.317 267.068 29.559"/><path class="cls-3" d="M276.259,20.87l2.156,7.832-8.725,8.811-2.156-7.832,8.725-8.811m.421-1.608L266.6,29.437l2.666,9.684,10.077-10.176-2.666-9.683Z"/><polygon class="cls-9" points="266.809 25.624 274.083 21.292 266.345 29.107 259.07 33.438 266.809 25.624"/><path class="cls-3" d="M271.486,23.323l-5.4,5.453-4.419,2.631,5.4-5.453,4.419-2.631m5.194-4.061-10.13,6.031L256.474,35.469,266.6,29.437,276.68,19.262Z"/><path class="cls-11" d="M257.732,89.132l-1.048-53.546,9.791-5.83,2.731,9.922.246-.458A17.388,17.388,0,0,1,285.3,29.985c5.978,0,10.62.612,13.815,3.588l-1.68,14.783c-5.412-3.05-8.4-3.475-10.823-3.475a15.368,15.368,0,0,0-10.954,4.444,11.476,11.476,0,0,0-3.421,8.267l.617,31.54Z"/><path class="cls-3" d="M266.347,30.075l2.52,9.157.277,1,.492-.917A17.184,17.184,0,0,1,285.3,30.193c5.881,0,10.453.593,13.6,3.461l-1.633,14.368c-5.281-2.935-8.242-3.349-10.651-3.349a15.574,15.574,0,0,0-11.1,4.507,11.682,11.682,0,0,0-3.48,8.417l.612,31.327H257.936L256.9,35.7l9.452-5.628m.256-.638-10.129,6.032,1.053,53.871h15.54l-.621-31.752c-.137-6.983,6.511-12.5,14.167-12.5,2.816,0,5.869.676,10.994,3.6l1.728-15.2c-3.441-3.268-8.629-3.716-14.034-3.716a17.539,17.539,0,0,0-16.032,9.344L266.6,29.437Z"/><g class="cls-4"><g class="cls-25"><g class="cls-4"><path class="cls-7" d="M272.35,34.937l10.077-10.176a17.714,17.714,0,0,1,12.951-5.16c5.4,0,10.593.448,14.033,3.716L299.335,33.493c-3.441-3.268-8.629-3.716-14.034-3.716a17.714,17.714,0,0,0-12.951,5.16"/></g></g></g><polygon class="cls-11" points="299.732 33.683 308.862 24.463 307.287 38.326 298.156 47.546 299.732 33.683"/><path class="cls-3" d="M308.313,25.609l-1.424,12.527L298.706,46.4l1.423-12.526,8.184-8.265m1.1-2.292L299.335,33.493l-1.728,15.2,10.077-10.176,1.727-15.2Z"/></g></g></g></svg>