<?xml version="1.0" encoding="UTF-8"?>
<svg id="Layer_1" xmlns="http://www.w3.org/2000/svg" viewBox="0 0 1648.95 200">
  <defs>
    <style>

    </style>
  </defs>
  <path fill="currentcolor" class="cls-1" d="M175.79,79.07c0-1.84-.08-2.77-.15-3.68-.07-.86-.14-1.68-.14-3.36,0-1.83-.07-2.76-.14-3.67-.06-.87-.12-1.69-.12-3.37s.09-2.44.19-3.28c.11-.92.22-1.88.22-3.75s-.08-2.78-.15-3.68c-.07-.86-.14-1.68-.14-3.35s.05-2.53.09-3.41c.05-.89.1-1.81.1-3.63,0-2.37-2.37-4.69-4.78-4.69-2.05,0-3.08.01-4.11.03-1.01.01-2.03.03-4.05.03s-3.16.06-4.19.11c-1.02.05-1.99.1-3.98.1s-3.1.03-4.13.05c-1.01.02-2.02.05-4.03.05-2.44,0-4.5,1.98-4.5,4.32,0,1.69-.07,2.52-.15,3.39-.08.92-.16,1.87-.16,3.73s.11,2.85.21,3.78c.1.86.19,1.67.19,3.34s-.1,2.45-.22,3.3c-.12.94-.25,1.91-.25,3.82s.12,2.87.24,3.81c.11.85.21,1.65.21,3.3s-.07,2.53-.14,3.4c-.07.91-.15,1.86-.15,3.72s.11,2.85.22,3.79c.1.86.19,1.67.19,3.33s-.13,2.34-.29,3.2c-.17.92-.35,1.96-.35,3.91,0,1.76-.01,2.65-.03,3.53-.01.9-.03,1.79-.03,3.59s.04,2.75.08,3.64c.04.89.07,1.73.07,3.47s-.02,2.64-.03,3.52c-.02.9-.04,1.8-.04,3.6,0,.88.06,1.59.15,2.18-.41-.59-.97-1.33-1.87-2.37-.87-1-1.93-1.9-2.95-2.78-.91-.78-1.86-1.59-2.67-2.46-.71-.76-1.36-1.6-2.06-2.5-.9-1.16-1.83-2.37-2.92-3.4-1.4-1.35-2.27-1.93-3.04-2.45-.72-.49-1.35-.9-2.5-2.02-1.2-1.16-1.71-1.78-2.26-2.44-.59-.72-1.21-1.46-2.56-2.77-1.24-1.2-1.82-1.81-2.44-2.45-.62-.65-1.25-1.31-2.56-2.58-1.38-1.33-2.17-1.9-2.94-2.46-.69-.5-1.33-.96-2.5-2.09-1.26-1.21-1.87-1.84-2.49-2.46-.63-.64-1.26-1.28-2.55-2.52-1.28-1.24-1.93-1.85-2.58-2.46-.64-.6-1.28-1.2-2.55-2.43-1.21-1.17-1.75-1.79-2.32-2.45-.6-.69-1.22-1.41-2.56-2.7-1.3-1.26-1.99-1.87-2.65-2.46-.66-.59-1.29-1.16-2.54-2.36-1.27-1.22-1.89-1.84-2.52-2.46-.63-.62-1.27-1.25-2.55-2.48-1.23-1.19-1.79-1.8-2.39-2.45-.61-.66-1.24-1.35-2.56-2.62-1.23-1.19-1.79-1.8-2.38-2.45-.61-.67-1.24-1.36-2.56-2.63-1.3-1.25-1.98-1.87-2.64-2.46-.65-.58-1.29-1.16-2.54-2.36-.76-.73-1.22-1.29-1.62-1.78-1.04-1.27-1.81-2.1-4.33-3.15-2.33-.97-3.5-.83-5.03-.51-.63.13-1.28.27-2.34.27-1.67,0-2.5,0-3.33-.02-.84,0-1.69-.02-3.37-.02s-2.5,0-3.34-.01c-.84,0-1.68-.01-3.37-.01-2.38,0-4.39,2-4.39,4.36,0,1.68-.07,2.49-.14,3.36-.07.91-.15,1.84-.15,3.69s.03,2.69.06,3.59c.03.86.06,1.73.06,3.45s-.03,2.59-.06,3.45c-.03.9-.06,1.79-.06,3.59,0,1.89.12,2.85.24,3.77.11.84.21,1.63.21,3.26s-.13,2.32-.28,3.17c-.16.91-.34,1.93-.34,3.87,0,1.77.01,2.66.02,3.55.01.87.02,1.75.02,3.49,0,1.84.07,2.77.14,3.67.07.86.13,1.68.13,3.36s0,2.63,0,3.51c0,.88,0,1.76,0,3.53s0,2.63-.01,3.5c0,.88-.01,1.76-.01,3.53s-.06,2.51-.12,3.38c-.06.9-.13,1.83-.13,3.66s.13,2.85.25,3.78c.11.84.22,1.63.22,3.25s-.04,2.53-.09,3.41c-.05.89-.1,1.81-.1,3.63s.04,2.72.08,3.61c.04.88.08,1.71.08,3.43s.02,2.68.05,3.57c.02.87.04,1.73.04,3.47s-.09,2.45-.18,3.3c-.1.92-.21,1.87-.21,3.74s.11,2.82.21,3.74c.1.85.19,1.65.19,3.29s-.12,2.34-.26,3.19c-.15.9-.32,1.92-.32,3.84,0,2.53,2.51,4.09,4.84,4.09,1.91,0,2.83.12,3.82.26,1.07.14,2.17.29,4.35.29,2.01,0,3.02.03,4.03.05,1.03.03,2.07.06,4.14.06s3.27-.14,4.33-.28c.98-.13,1.91-.25,3.82-.25,2.49,0,4.59-1.94,4.59-4.23,0-1.73.04-2.58.08-3.47.04-.9.09-1.83.09-3.66,0-1.93-.14-2.91-.28-3.85-.12-.84-.24-1.64-.24-3.27s.13-2.36.27-3.22c.15-.91.33-1.95.33-3.9s-.14-2.89-.27-3.83c-.12-.84-.23-1.64-.23-3.28s.11-2.44.23-3.28c.13-.94.27-1.92.27-3.84s-.18-2.98-.33-3.9c-.15-.86-.28-1.61-.28-3.22s.13-2.4.27-3.23c.15-.91.32-1.94.32-3.88s-.17-2.98-.32-3.89c-.14-.87-.27-1.62-.27-3.23s.11-2.44.22-3.29c.13-.94.26-1.91.26-3.82,0-1.72.05-2.55.1-3.44.05-.9.11-1.84.11-3.68,0-1.26-.09-2.14-.19-2.85.44.57,1.01,1.28,2,2.39.59.66,1.19,1.41,1.82,2.2.9,1.13,1.83,2.29,2.91,3.43,1.21,1.27,2.51,2.48,3.76,3.64.53.49,1.06.98,1.56,1.46,1.25,1.21,1.82,1.83,2.42,2.5.61.68,1.24,1.38,2.57,2.66,1.3,1.26,1.95,1.88,2.61,2.5.65.61,1.29,1.23,2.57,2.46,1.31,1.27,1.98,1.88,2.66,2.5.65.59,1.3,1.19,2.57,2.41,1.28,1.24,1.92,1.87,2.55,2.49.64.63,1.28,1.26,2.57,2.51,1.22,1.19,1.77,1.81,2.34,2.48.61.7,1.23,1.43,2.58,2.74,1.28,1.24,1.92,1.87,2.55,2.49.64.63,1.28,1.26,2.57,2.51,1.32,1.28,2.03,1.9,2.71,2.5.67.59,1.31,1.15,2.56,2.36,1.31,1.27,1.98,1.88,2.65,2.5.65.59,1.3,1.19,2.57,2.42,1.25,1.21,1.82,1.83,2.42,2.48.62.67,1.25,1.36,2.58,2.64,1.42,1.37,2.3,1.96,3.08,2.48.73.49,1.36.91,2.52,2.03,1.21,1.17,1.74,1.8,2.29,2.47.6.72,1.22,1.47,2.58,2.79,1.23,1.19,1.78,1.82,2.36,2.48.61.69,1.24,1.41,2.58,2.7.82.8,1.26,1.42,1.67,2.02.97,1.39,1.79,2.38,4.21,3.4,1.23.52,2.16.71,3,.71.88,0,1.65-.22,2.52-.52.65-.22,1.31-.45,2.33-.6,1.9-.29,2.56-.24,3.65-.16.68.05,1.52.11,2.8.11,1.63,0,2.42.04,3.26.07.85.04,1.72.08,3.44.08,2.28,0,4.81-1.76,4.81-4.29,0-1.85-.08-2.79-.17-3.7-.08-.86-.15-1.67-.15-3.34s.08-2.46.17-3.32c.09-.92.19-1.86.19-3.73s-.18-2.96-.34-3.87c-.15-.85-.28-1.59-.28-3.17s.12-2.38.25-3.2c.14-.9.3-1.91.3-3.83v-7.04c0-1.72.04-2.55.08-3.43.04-.88.08-1.8.08-3.6s.01-2.62.02-3.49c.01-.89.02-1.77.02-3.54,0-1.88-.11-2.83-.22-3.75-.1-.84-.19-1.64-.19-3.28,0-1.84-.08-2.78-.15-3.68-.07-.86-.14-1.68-.14-3.35,0-1.56.14-2.29.31-3.13.18-.91.38-1.95.38-3.91,0-1.85-.09-2.79-.17-3.7-.08-.86-.15-1.67-.15-3.33s.08-2.47.16-3.32c.09-.91.18-1.86.18-3.71Z"/>
  <path fill="currentcolor" class="cls-1" d="M355.36,103.63c0-2.42,0-4.92-.27-7.35-.19-1.69-.67-3.24-1.14-4.73-.27-.86-.52-1.67-.71-2.48-.2-.87-.3-1.8-.41-2.78-.16-1.51-.33-3.06-.89-4.59-.58-1.6-1.43-3.01-2.24-4.37-.46-.77-.9-1.5-1.27-2.23-.38-.74-.71-1.52-1.07-2.35-.63-1.46-1.27-2.97-2.21-4.37-1.36-2.02-2.89-4.02-4.54-5.95-1.06-1.23-2.32-2.16-3.54-3.05-.8-.58-1.55-1.13-2.2-1.74-.65-.6-1.25-1.3-1.89-2.04-.99-1.14-2.01-2.32-3.32-3.3-1.99-1.48-4.15-2.76-6.26-4.01l-.79-.47c-1.82-1.09-3.7-2.21-5.7-3.14-1.43-.67-2.91-1.03-4.35-1.38-.98-.24-1.9-.47-2.76-.77l-.18-.06c-2.19-.78-4.45-1.59-6.82-2.2l-.5-.13c-2.15-.56-4.38-1.13-6.68-1.52-1.63-.27-3.27-.35-4.85-.42-.83-.04-1.66-.08-2.49-.15-.89-.07-1.79-.21-2.74-.36-1.47-.23-2.99-.47-4.58-.47s-3.24.2-4.78.4c-.85.11-1.71.22-2.56.29-.91.07-1.83.08-2.8.1-1.49.02-3.03.04-4.57.29-2.28.38-4.49.95-6.62,1.51l-.58.15c-1.71.44-3.32,1.06-4.88,1.67-.7.27-1.39.54-2.08.79-1.89.68-3.67,1.52-5.38,2.34-.45.21-.9.43-1.35.64-.74.34-1.48.66-2.23.97-1.48.63-3.02,1.27-4.47,2.14-.63.37-1.26.73-1.9,1.08-1.49.84-3.03,1.7-4.46,2.76-1.37,1.02-2.53,2.21-3.66,3.36-.58.59-1.16,1.19-1.76,1.75-1.65,1.53-3.09,3.21-4.48,4.83l-.53.62c-.5.58-1.02,1.14-1.54,1.71-1.13,1.22-2.3,2.48-3.28,3.95-1.05,1.56-1.85,3.22-2.62,4.82-.28.59-.57,1.17-.86,1.75-.37.72-.78,1.43-1.22,2.18-.81,1.39-1.65,2.82-2.24,4.44-.72,1.98-1.19,4.04-1.64,6.03l-.27,1.19c-.13.58-.28,1.15-.42,1.74-.44,1.79-.9,3.63-1.12,5.57-.18,1.61-.07,3.21.04,4.75.06.94.13,1.82.13,2.7,0,2.05.23,4,.45,5.89.06.49.12.99.17,1.48.1.9.11,1.82.11,2.8.01,1.51.03,3.08.38,4.65.43,1.9,1.1,3.67,1.74,5.39.21.57.43,1.13.63,1.7.66,1.86,1.55,3.55,2.4,5.19.27.51.53,1.02.79,1.53.36.72.69,1.47,1.04,2.26.65,1.48,1.31,3.01,2.27,4.43.99,1.48,2.16,2.76,3.3,4,.52.56,1.03,1.12,1.53,1.7.55.64,1.06,1.33,1.61,2.07.94,1.26,1.9,2.57,3.14,3.71,1.19,1.11,2.54,1.93,3.85,2.72.82.5,1.6.98,2.31,1.5,1.88,1.39,3.92,2.86,6.12,4.16.71.42,1.41.88,2.14,1.36,1.32.87,2.68,1.77,4.21,2.48,1.68.78,3.43,1.36,5.12,1.93.61.21,1.23.41,1.84.63,1.72.61,3.48,1.02,5.19,1.43.65.15,1.3.31,1.94.47.82.21,1.64.46,2.5.73,1.48.46,3.01.93,4.64,1.2,2.49.41,5,.64,7.35.83,1.69.14,3.37.09,5.01.05,1.58-.04,3.18-.04,4.76,0,.81.02,1.63.04,2.46.04s1.68-.02,2.53-.09l.81-.06c2.15-.17,4.38-.35,6.54-.7,2.32-.38,4.58-.96,6.76-1.51l1.57-.4c1.99-.5,4.05-1.02,6.03-1.71,1.53-.54,2.9-1.31,4.23-2.05.83-.47,1.62-.91,2.41-1.27.64-.29,1.28-.57,1.91-.85,1.58-.69,3.22-1.41,4.77-2.32,1.96-1.15,3.98-2.5,6.17-4.13,1.5-1.11,2.82-2.38,4.08-3.6.47-.46.95-.92,1.43-1.36,2-1.86,3.66-3.42,5.23-5.25.4-.47.81-.94,1.23-1.4,1.2-1.36,2.45-2.76,3.51-4.35l.2-.3c1.29-1.93,2.62-3.92,3.71-6.09.81-1.6,1.35-3.29,1.88-4.92.23-.7.45-1.4.7-2.1.27-.75.58-1.49.91-2.28.63-1.5,1.28-3.05,1.67-4.75.37-1.62.45-3.25.52-4.83.04-.91.08-1.77.18-2.62l.07-.68c.24-2.16.48-4.39.48-6.72h-2l2-.08ZM318.94,117.97c-.74,2.1-1.44,4.08-2.47,5.81-1.04,1.76-2.41,3.29-3.87,4.91l-.45.5c-1.62,1.82-3.52,3.34-5.15,4.58-1.52,1.15-3.55,2.63-5.8,3.77-2.06,1.05-4.34,1.79-6.49,2.47-.79.25-1.58.54-2.38.83-1.49.55-2.89,1.07-4.32,1.28-1.78.26-3.65.25-5.63.23-.47,0-.94,0-1.42,0-2.57,0-4.86-.15-7.01-.47-.46-.07-.93-.13-1.39-.2-1.97-.27-3.82-.53-5.54-1.07-2.39-.75-4.71-1.87-6.46-2.76-1.75-.89-3.33-2.1-5-3.38l-.75-.57c-1.74-1.33-3.24-2.88-4.96-4.8-.32-.36-.65-.72-.98-1.08-1.29-1.41-2.51-2.74-3.41-4.27-.77-1.31-1.27-2.85-1.79-4.48-.21-.66-.43-1.33-.66-1.99-.24-.67-.51-1.35-.78-2.02-.62-1.55-1.2-3.02-1.46-4.56-.36-2.22-.39-4.58-.39-7,0-2.16.2-4.43.61-6.97l.19-1.19c.32-2.02.61-3.93,1.22-5.64.53-1.48,1.39-2.83,2.31-4.27.38-.59.75-1.18,1.11-1.78,1.32-2.24,2.45-4.07,3.89-5.69,1.32-1.48,2.92-2.69,4.62-3.97l.65-.49c.61-.47,1.21-.96,1.81-1.46,1.26-1.05,2.45-2.04,3.78-2.71l.18-.09c2.02-1.03,4.12-2.1,6.25-2.76,1.22-.38,2.61-.47,4.08-.57.95-.06,1.93-.13,2.93-.27.49-.07.98-.15,1.47-.23,1.89-.3,3.68-.58,5.5-.58.48,0,.95,0,1.42,0,.47,0,.94,0,1.4,0,1.47,0,2.88.04,4.23.24,1.49.22,2.95.74,4.5,1.3.74.27,1.48.53,2.22.76.62.19,1.23.37,1.85.55,1.71.5,3.33.96,4.77,1.69,1.31.67,2.48,1.65,3.72,2.69.61.51,1.22,1.02,1.84,1.49.69.53,1.4,1,2.09,1.47,1.3.87,2.53,1.7,3.46,2.73,1.37,1.53,2.7,3.39,4.05,5.68.82,1.38,1.35,3,1.92,4.71.19.58.39,1.17.6,1.76l.14.38c.72,2.02,1.46,4.11,1.82,6.28l.1.63c.34,2.06.69,4.2.69,6.34,0,1.68-.32,3.38-.63,5.03-.12.64-.24,1.28-.34,1.91-.43,2.62-.95,4.76-1.65,6.73l-.21.59Z"/>
  <path fill="currentcolor" class="cls-1" d="M666.28,39.44c-1.87,0-2.81.04-3.73.07-.92.04-1.79.07-3.58.07s-2.83.04-3.75.09c-.92.04-1.78.08-3.56.08s-2.57-.08-3.46-.17c-.95-.09-1.92-.19-3.85-.19s-2.85.06-3.78.12c-.91.06-1.76.12-3.52.12s-2.6-.07-3.5-.13c-.94-.07-1.9-.15-3.81-.15-1.78,0-2.64-.04-3.55-.09-.92-.05-1.88-.09-3.75-.09s-2.82.04-3.74.09c-.92.04-1.78.08-3.56.08s-2.71-.02-3.61-.04c-.92-.02-1.85-.04-3.69-.04s-2.65-.03-3.57-.07c-.92-.04-1.86-.07-3.73-.07s-2.77.02-3.69.04c-.9.02-1.81.04-3.61.04s-2.81.03-3.73.07c-.92.03-1.79.07-3.58.07s-2.72-.01-3.62-.02c-.92-.01-1.84-.03-3.68-.03s-2.9.1-3.85.19c-.89.09-1.73.17-3.45.17s-2.56-.09-3.45-.18c-.95-.1-1.93-.2-3.85-.2s-2.93.11-3.88.22c-.88.1-1.71.2-3.42.2s-2.47-.13-3.33-.27c-.93-.15-1.98-.32-3.97-.32s-3.08.2-4.02.38c-.88.17-1.64.31-3.28.31-2.23,0-4.9,1.9-5.05,4.3-.25,1.4-.45,2.02-.68,2.75-.22.7-.47,1.49-.79,2.95l-1.29,5.96c-.38,1.75-.4,2.65-.43,3.52-.02.69-.04,1.35-.27,2.62l-.03.35c0,2.43,2.32,4.81,4.68,4.81,1.8,0,2.68.03,3.58.06.89.03,1.8.06,3.58.06,1.87.01,2.81-.05,3.73-.1.89-.05,1.72-.09,3.44-.09,1.82,0,2.73-.03,3.64-.06.88-.03,1.76-.06,3.51-.06s2.53.07,3.4.15c.92.08,1.87.16,3.74.16s2.73-.03,3.64-.06c.88-.03,1.76-.06,3.51-.06,1.88,0,2.83-.09,3.76-.17.87-.08,1.7-.16,3.39-.16s2.92-.42,3.85-.72c1.37-.45,1.42-.47,2.15.25q.54.54.03,1.74c-.42.98-1,2.33-1,4.13,0,1.89.12,2.85.25,3.78.11.84.21,1.63.21,3.26s-.15,2.28-.32,3.12c-.18.92-.39,1.95-.39,3.91,0,1.82.06,2.75.12,3.64.06.87.11,1.69.11,3.38s-.01,2.61-.03,3.49c-.01.89-.03,1.77-.03,3.55s-.02,2.61-.03,3.48c-.02.89-.03,1.78-.03,3.55s.01,2.66.03,3.54c.01.87.03,1.74.03,3.48v7.03c0,1.74-.01,2.61-.02,3.48-.01.89-.03,1.77-.03,3.55s.03,2.68.05,3.57c.02.86.05,1.73.05,3.46,0,1.88.12,2.83.23,3.76.1.84.2,1.64.2,3.27,0,1.78.02,2.68.05,3.57.02.87.05,1.73.05,3.46,0,1.58-.13,2.31-.28,3.16-.16.91-.35,1.93-.35,3.87,0,1.72-.03,2.59-.06,3.45-.03.9-.06,1.79-.06,3.58,0,2.52,2.74,4.55,5.01,4.55,1.98,0,2.94.06,3.96.12,1.03.06,2.1.13,4.21.13s3.27-.14,4.34-.28c.98-.13,1.91-.25,3.83-.25,2.05,0,3.08-.01,4.11-.03,1.01-.01,2.02-.03,4.05-.03,2.5,0,4.53-1.89,4.53-4.22,0-1.7.05-2.53.1-3.4.05-.89.11-1.82.11-3.64,0-1.73.03-2.59.06-3.45.03-.9.06-1.79.06-3.59s.02-2.6.04-3.47c.02-.89.04-1.78.04-3.57s-.01-2.65-.02-3.54c-.01-.87-.02-1.75-.02-3.49,0-1.87-.11-2.82-.21-3.74-.09-.85-.18-1.65-.18-3.29s.04-2.54.08-3.42c.04-.89.09-1.81.09-3.61s-.06-2.75-.12-3.64c-.06-.87-.11-1.69-.11-3.39s.03-2.58.06-3.44c.03-.9.07-1.79.07-3.59,0-1.64.09-2.44.19-3.28.11-.92.22-1.87.22-3.74s-.11-2.83-.22-3.75c-.1-.84-.2-1.64-.2-3.28,0-1.84-.08-2.77-.15-3.68-.07-.86-.14-1.68-.14-3.35s.04-2.53.09-3.41c.05-.89.1-1.81.1-3.62,0-1.62.1-2.42.22-3.25.12-.93.25-1.89.25-3.78,0-1.78-.53-3.03-.91-3.95-.13-.31-.31-.73-.32-.84,0,0,.06-.19.48-.59.91-.87.96-.85,2.23-.51.85.23,2.01.55,3.6.55,1.67,0,2.45.14,3.35.3.95.17,2.02.36,4.05.36,1.85,0,2.77,0,3.69,0,.93,0,1.85,0,3.7,0,1.95,0,2.94-.1,3.89-.19.9-.09,1.75-.17,3.5-.17s2.67.04,3.6.09c.93.05,1.9.09,3.8.09s2.81-.02,3.74-.04c.91-.02,1.83-.04,3.65-.04,2.22,0,5.17-2.31,5.34-4.74.25-1.41.31-2.21.36-2.93.06-.78.11-1.45.42-2.91.33-1.51.47-2.27.62-3.03.14-.74.28-1.47.6-2.94.26-1.22.52-1.77.81-2.42.36-.79.77-1.68,1.09-3.49l.03-.35c0-2.49-3.1-4.93-5.41-4.93Z"/>
  <path fill="currentcolor" class="cls-1" d="M826.93,96.32c-.26-2.33-.58-4.83-1.16-7.33-.66-2.82-1.31-5.09-2.05-7.15-.85-2.34-1.85-4.64-2.96-6.83l-.5-.99c-.93-1.85-1.89-3.76-3.09-5.54-.99-1.47-2.16-2.73-3.29-3.96-.52-.56-1.04-1.13-1.54-1.71l-.26-.31c-1.48-1.73-3.02-3.52-4.77-5.14-1.29-1.2-2.71-2.19-4.09-3.15-.61-.43-1.23-.85-1.83-1.3-.62-.46-1.22-.94-1.83-1.42-1.28-1.02-2.61-2.08-4.12-2.98-1.59-.94-3.26-1.69-4.87-2.42-.59-.26-1.18-.53-1.77-.81-.79-.37-1.57-.81-2.4-1.27-1.32-.74-2.69-1.51-4.22-2.06-2.37-.85-4.81-1.5-7.1-2.09-2.12-.55-4.48-1.04-7.24-1.5l-.16-.03c-2.32-.39-4.71-.79-7.16-.99-1.72-.14-3.45-.1-5.12-.07-.75.02-1.5.03-2.26.03-1.63,0-3.2.21-4.71.41-.9.12-1.76.24-2.61.31-.93.08-1.89.06-2.91.04-1.45-.02-2.96-.05-4.48.2-2.6.44-4.94.84-7.26,1.44-1.6.41-3.09,1.03-4.53,1.63-.83.35-1.62.67-2.41.96-.54.19-1.08.38-1.63.57-1.75.6-3.56,1.23-5.29,2.04-.56.26-1.12.52-1.69.77-1.66.75-3.37,1.52-4.99,2.48-1.41.84-2.6,1.88-3.75,2.89-.71.62-1.38,1.21-2.08,1.73-.69.51-1.43.99-2.21,1.49-1.3.83-2.65,1.7-3.86,2.82-1.27,1.18-2.32,2.51-3.33,3.8-.5.63-.99,1.26-1.51,1.87-1.3,1.51-2.37,3.14-3.4,4.71-.29.45-.59.89-.88,1.33-.41.62-.85,1.22-1.29,1.82-.99,1.36-2,2.77-2.82,4.37-.79,1.55-1.3,3.17-1.79,4.73-.24.75-.48,1.51-.75,2.26-.24.67-.5,1.32-.77,1.98-.63,1.59-1.28,3.23-1.7,5.01-.16.69-.34,1.38-.52,2.07-.44,1.66-.89,3.38-1.09,5.21-.18,1.6-.05,3.17.08,4.68.08.96.15,1.86.15,2.76s-.1,1.86-.21,2.86c-.16,1.49-.32,3.03-.15,4.6.19,1.79.64,3.47,1.07,5.1.2.74.39,1.47.56,2.2.11.5.22.99.33,1.49.41,1.9.84,3.86,1.52,5.75.83,2.31,1.82,4.62,2.95,6.88,1.18,2.35,2.61,4.56,3.84,6.42.99,1.48,2.16,2.75,3.3,3.99.52.56,1.03,1.12,1.53,1.7.53.62,1.03,1.27,1.53,1.92.99,1.28,2.02,2.6,3.28,3.78,1.69,1.57,3.63,3.16,5.76,4.74,1.53,1.13,3.18,2.08,4.78,2.99.52.3,1.04.59,1.55.9.71.42,1.41.88,2.11,1.33,1.34.87,2.72,1.78,4.27,2.49,1.52.7,3.1,1.19,4.64,1.66.8.25,1.6.49,2.38.77,2.06.72,4.19,1.26,6.25,1.78l.86.22c2.41.61,4.86,1.02,7.23,1.41.56.09,1.13.19,1.7.29,1.8.31,3.67.64,5.59.79,2.08.17,4.19.18,6.24.18h1.13c2.35,0,4.85-.02,7.36-.22,2.17-.17,4.27-.52,6.31-.86l.98-.16c.68-.11,1.36-.21,2.04-.31,1.71-.25,3.49-.51,5.23-.96,2.08-.53,4.06-1.24,5.99-1.92l1.04-.37c.68-.24,1.37-.46,2.05-.69,1.62-.53,3.3-1.08,4.91-1.83,1.52-.7,2.86-1.6,4.15-2.46.75-.5,1.45-.97,2.18-1.4.46-.27.92-.54,1.38-.8,1.64-.94,3.33-1.92,4.91-3.09.43-.32.86-.63,1.29-.94,1.54-1.12,3.13-2.27,4.58-3.62,1.31-1.22,2.4-2.58,3.46-3.89.47-.58.93-1.17,1.42-1.73.48-.56.98-1.1,1.47-1.65,1.14-1.25,2.33-2.55,3.33-4.05.96-1.44,1.64-2.97,2.29-4.46.33-.74.66-1.49,1.02-2.21.36-.71.76-1.41,1.16-2.11.8-1.42,1.64-2.88,2.23-4.53.78-2.18,1.29-4.46,1.79-6.66l.12-.55c.57-2.51.88-5.11,1.12-7.34.06-.59.14-1.19.21-1.79.22-1.8.46-3.66.46-5.61s-.24-3.83-.47-5.64c-.07-.59-.15-1.17-.21-1.75ZM773.77,137.54l-.32.16c-1.9.97-4.12,2.06-6.43,2.78-1.75.55-3.64.81-5.64,1.1l-1.26.18c-.77.11-1.54.26-2.32.4-1.62.3-3.15.59-4.67.59-2.11,0-4.28-.32-6.37-.63l-.66-.1c-2.07-.3-4.14-.96-6.14-1.58l-.64-.2c-.57-.18-1.14-.35-1.71-.51-1.77-.52-3.44-1.01-4.92-1.76-1.56-.79-2.98-1.9-4.47-3.07-.41-.32-.82-.64-1.23-.96-.53-.4-1.07-.79-1.61-1.18-1.43-1.03-2.79-2-3.84-3.18-1.06-1.18-1.88-2.65-2.75-4.21-.32-.57-.63-1.13-.96-1.69-1.07-1.81-2.28-3.93-3.09-6.21-.92-2.59-1.5-4.73-1.83-6.74-.3-1.84-.29-3.83-.28-5.94v-1.07c0-.81-.03-1.61-.06-2.41-.06-1.66-.12-3.22.11-4.63.28-1.75.93-3.49,1.56-5.17.19-.51.38-1.01.55-1.51.2-.57.4-1.15.59-1.73.58-1.75,1.13-3.39,1.95-4.79.93-1.57,2.2-2.96,3.54-4.44.3-.33.59-.65.88-.98,1.18-1.33,2.65-2.41,4.2-3.57.38-.28.76-.57,1.14-.85.67-.51,1.31-1.05,1.92-1.58,1.22-1.03,2.36-2.01,3.64-2.66,1.14-.58,2.51-.89,3.95-1.21.91-.21,1.86-.42,2.8-.71.62-.19,1.24-.41,1.87-.62,1.66-.56,3.22-1.09,4.85-1.33,1.55-.23,3.16-.26,4.83-.26.36,0,.72,0,1.08,0h1.1c2.42,0,4.71.17,6.98.5,2.82.42,4.93.87,6.82,1.46.61.19,1.23.37,1.84.55,1.72.5,3.35.97,4.79,1.7,1.43.73,2.72,1.77,4.08,2.87.52.42,1.04.83,1.56,1.23,1.94,1.47,3.6,3,5.08,4.66l.15.16c1.55,1.74,3.02,3.38,4.14,5.27.83,1.41,1.38,3.05,1.97,4.79.18.55.37,1.1.56,1.65.17.49.35.98.54,1.47.65,1.74,1.26,3.39,1.55,5.15.42,2.56.69,4.73.69,6.98,0,2.93-.14,5.09-.45,7.02-.37,2.27-1.12,4.48-1.91,6.72-.94,2.64-1.84,4.66-2.84,6.35-1.06,1.8-2.43,3.62-4.17,5.57-1.3,1.46-3.05,3.32-5.03,4.83-1.7,1.29-3.65,2.29-5.72,3.34Z"/>
  <path fill="currentcolor" class="cls-1" d="M974.51,111.1c-.96-1.79-2.48-4.44-4.64-6.73-1.66-1.76-3.75-3.14-5.79-4.48l-1.08-.72c-1.88-1.25-4-2.66-6.47-3.72-2.4-1.03-4.92-1.91-7.47-2.61-1.63-.45-3.36-.66-5.03-.87-.89-.11-1.79-.22-2.7-.37-1.96-.32-3.95-.47-6.05-.63l-1.67-.13c-1.56-.13-2.32-.29-3.11-.46-.89-.19-1.81-.38-3.63-.53-1.84-.15-2.78-.09-3.7-.03-.81.05-1.57.1-3.12-.02-1.57-.13-2.33-.28-3.13-.44-.88-.18-1.8-.37-3.61-.51-1.7-.14-2.55-.19-3.4-.25-.84-.06-1.69-.11-3.37-.25-1.78-.14-2.68-.15-3.56-.17-.84-.01-1.63-.02-3.26-.15-2.54-.18-4.7-.68-6.65-1.19-2.36-.62-4.19-1.53-5.44-2.7-1.26-1.18-1.82-2.7-1.82-4.93s.55-4.05,1.67-5.66c.99-1.42,2.53-2.72,4.84-4.08,2.14-1.26,4.1-2.12,6.15-2.71,1.89-.54,4.11-.96,6.81-1.28,3.07-.36,6.45-.27,9.43-.34,1.51-.04,2.93-.08,4.21.05,2.57.27,4.68.51,6.47.98,2.41.63,4.41,1.63,5.88,2.43,2.13,1.16,3.75,2.41,4.81,3.72,1.17,1.44,1.96,3.24,2.34,5.34.58,3.3,2.47,4.91,5.79,4.91,1.88,0,2.84-.08,3.77-.15.89-.07,1.73-.14,3.45-.14s2.5.1,3.37.2c.95.11,1.92.23,3.85.23s2.87-.1,3.8-.19c.88-.09,1.7-.17,3.41-.17,3.56,0,6.25-2.34,6.25-5.43,0-2.43-.5-4.72-.98-6.94l-.08-.37c-.53-2.41-1.09-4.76-2.18-7.07-.95-2.01-2.11-4.34-3.74-6.43-1.21-1.55-2.73-2.81-4.2-4.03-.4-.33-.8-.66-1.2-1-1.88-1.62-4.07-2.93-6-4.09-.61-.37-1.22-.78-1.83-1.2-1.34-.91-2.72-1.84-4.38-2.55-1.62-.69-3.36-1.18-5.04-1.65-.6-.17-1.21-.34-1.83-.52-1.7-.51-3.42-.83-5.24-1.18-.57-.11-1.15-.22-1.74-.34-.8-.16-1.61-.38-2.47-.6-1.42-.38-2.89-.77-4.49-.96-2.21-.27-4.6-.47-7.09-.61-1.7-.09-3.38-.08-5.17-.07-.64,0-1.28.01-1.93.01-1.8,0-3.53.15-5.2.3-.74.07-1.47.13-2.2.18-2.51.17-4.82.5-7.36.88-.91.14-1.86.22-2.77.31-1.52.14-3.09.29-4.63.66l-1.14.27c-2.04.49-4.14.99-6.1,1.69-1.68.6-3.12,1.45-4.51,2.27-.75.45-1.47.87-2.17,1.22-.71.35-1.43.68-2.13,1-1.55.7-3.16,1.43-4.6,2.43-1.76,1.22-4.02,2.85-5.98,4.74-1.45,1.4-2.5,2.98-3.52,4.51-.36.54-.72,1.08-1.09,1.6l-.58.8c-1.28,1.77-2.6,3.6-3.52,5.67-1.06,2.37-1.87,4.84-2.4,7.33-.63,2.95-.92,5.38-.92,7.67,0,2.16.52,4.15.98,5.92.15.56.29,1.11.42,1.66.13.57.24,1.14.36,1.71.38,1.94.78,3.94,1.78,5.79,1.01,1.87,2.47,3.3,3.88,4.68.41.4.83.81,1.23,1.23.38.4.75.81,1.13,1.22,1.24,1.36,2.64,2.91,4.47,4.08,1.74,1.12,3.72,1.92,5.64,2.7.42.17.85.34,1.28.52,2.34.97,4.82,1.68,7.16,2.3.77.2,1.54.45,2.32.71,1.54.5,3.13,1.01,4.9,1.29,1.83.29,3.68.42,5.64.56.59.04,1.18.08,1.77.13,1.75.14,2.65.17,3.51.19.86.03,1.66.05,3.32.18,1.8.14,2.72.13,3.6.13.84,0,1.63-.02,3.25.11,1.51.12,2.2.31,3,.54.88.25,1.87.52,3.77.68,1.77.14,2.68.15,3.55.16.85,0,1.65.02,3.28.15,1.83.15,2.77.1,3.67.06.83-.04,1.6-.07,3.18.05,2.43.19,4.84.65,7.34,1.39,2.55.76,4.65,1.89,6.08,3.27,1.51,1.47,1.82,3.36,1.82,5.74s-.1,4.53-1.29,6.17c-1.09,1.5-2.93,2.99-5.31,4.29-1.91,1.04-4.16,1.9-6.71,2.56-1.71.44-3.74.64-5.88.85l-1.41.14c-2.23.23-4.68.25-7.42.25-2.28,0-4.46-.08-6.48-.25-1.01-.08-1.98-.09-2.91-.11-1.29-.02-2.5-.03-3.54-.24-1.3-.26-2.47-.84-3.71-1.45-.69-.34-1.41-.7-2.14-.98-2.24-.88-3.92-1.78-5.3-2.82l-.25-.19c-1.7-1.29-3.17-2.4-4.05-3.83-.81-1.31-1.14-2.99-1.49-4.77l-.19-.92c-.36-1.72-1.71-4.61-6.65-4.61-1.76,0-2.6-.03-3.5-.07-.89-.03-1.79-.07-3.56-.07-1.86,0-2.86.11-3.79.22-.85.1-1.65.19-3.29.19s-2.48-.08-3.34-.16c-.92-.09-1.86-.18-3.72-.18-3.39,0-5.85,2.43-5.85,5.78l-.03.13c-.14.37-.28.82-.28,1.53,0,2.79.32,5.42.95,7.8.65,2.44,1.65,4.88,2.97,7.26,1.19,2.13,2.54,4.39,4.38,6.46,1.75,1.98,3.89,3.7,5.76,5.16,2.23,1.75,4.31,3.16,6.34,4.31,2.23,1.26,4.72,2.29,6.91,3.2.51.21,1.03.43,1.55.65,1.74.75,3.54,1.51,5.52,2.1,2.33.69,4.8,1.21,7.35,1.73l1.07.22c2.03.42,4.13.85,6.33,1.13,1.48.18,2.95.12,4.37.06,1.09-.05,2.12-.09,3.15-.03,2.66.16,5.1.23,7.45.23,1.04,0,2.09.12,3.19.25,1.12.13,2.28.26,3.44.26.3,0,.6,0,.9-.03,1.66-.11,3.21-.44,4.7-.77.96-.21,1.87-.41,2.75-.53.62-.09,1.25-.17,1.86-.25,1.94-.25,3.78-.49,5.6-.91,1.83-.42,3.49-1.04,5.09-1.64.71-.26,1.4-.53,2.09-.76,2.79-.94,5.02-1.83,7.05-2.8.77-.37,1.57-.7,2.35-1.03,1.54-.65,3.14-1.31,4.58-2.27,2.49-1.65,4.5-3.2,6.14-4.72,1.62-1.5,2.83-3.18,4-4.81.3-.42.6-.83.9-1.23,1.64-2.21,2.79-4.54,3.82-6.73.3-.64.62-1.26.95-1.88.86-1.66,1.75-3.38,2.19-5.3.59-2.6.64-5.2.64-7.85,0-2.46-.08-5.35-.71-8.06-.54-2.35-1.53-4.84-3-7.6Z"/>
  <path fill="currentcolor" class="cls-1" d="M1313.3,96.27c-.29-2.65-.71-5.13-1.23-7.37-.39-1.67-1.05-3.18-1.69-4.64-.35-.81-.69-1.57-.97-2.33-.81-2.22-1.71-4.59-2.86-6.84l-.14-.29c-1.05-2.07-2.14-4.2-3.48-6.2-1.08-1.61-2.34-3.04-3.56-4.41-.39-.44-.77-.88-1.16-1.32-.54-.63-1.06-1.31-1.6-2.04-.95-1.26-1.92-2.56-3.15-3.7-1.22-1.14-2.59-2.03-3.9-2.9-.75-.49-1.45-.96-2.12-1.46l-.62-.46c-1.72-1.29-3.51-2.62-5.45-3.77-.7-.41-1.38-.86-2.07-1.31-1.35-.88-2.75-1.79-4.3-2.52-1.42-.67-2.91-1.02-4.34-1.36-.98-.23-1.91-.46-2.78-.77-2.53-.9-4.82-1.62-7.02-2.18-.84-.22-1.68-.49-2.57-.79-1.44-.47-2.93-.96-4.53-1.23-2.2-.37-4.6-.66-7.33-.88-2.2-.18-4.54-.26-7.37-.26-2.23,0-4.57.11-7.36.34-1.8.15-3.54.47-5.22.79-.69.13-1.37.26-2.06.37-.63.1-1.25.2-1.88.3-1.76.27-3.59.55-5.38,1.02-.61.16-1.23.31-1.84.46-1.74.43-3.55.87-5.29,1.49-2.33.83-4.55,1.87-6.69,2.87l-.11.05c-1.97.92-3.81,2.02-5.58,3.08l-.88.53c-.73.43-1.48.83-2.24,1.23-1.4.74-2.86,1.51-4.2,2.51-2.02,1.5-3.91,3.22-5.67,4.85-1.24,1.15-2.24,2.46-3.21,3.72-.54.7-1.04,1.36-1.58,1.99-.51.59-1.04,1.17-1.58,1.74-1.13,1.21-2.29,2.46-3.27,3.92-1.37,2.04-2.65,4.21-3.78,6.44-1.02,2.01-2.19,4.36-3.08,6.81-.84,2.3-1.42,4.72-2,7.2-.42,1.81-.59,3.65-.76,5.44-.06.65-.12,1.3-.19,1.95-.09.8-.23,1.62-.38,2.49-.27,1.57-.55,3.19-.55,4.9s.3,3.26.59,4.78c.17.91.34,1.77.43,2.61.08.71.14,1.43.2,2.14.14,1.72.29,3.5.69,5.25l.16.72c.49,2.16.99,4.39,1.75,6.51.75,2.1,1.74,4.05,2.7,5.94l.43.85c1.24,2.47,2.46,4.59,3.72,6.48.97,1.45,2.12,2.68,3.24,3.87.55.59,1.1,1.17,1.62,1.78,1.82,2.12,3.44,3.83,5.1,5.37.61.56,1.19,1.17,1.8,1.81,1.1,1.14,2.23,2.32,3.59,3.33,1.33.99,2.77,1.72,4.16,2.44.81.41,1.57.8,2.3,1.24.71.42,1.4.87,2.1,1.33,1.34.87,2.72,1.77,4.27,2.49,1.52.7,3.1,1.19,4.62,1.66.79.25,1.59.49,2.38.77,2.63.92,4.87,1.61,7.05,2.17.7.18,1.39.37,2.09.56,1.63.45,3.32.92,5.08,1.21,1.55.26,3.1.28,4.59.3.96.02,1.87.03,2.78.1,2.11.17,4.37.25,7.33.25h1.31c.43,0,.86,0,1.29,0,1.56,0,3.16-.02,4.75-.15.68-.05,1.35-.1,2.03-.14,1.74-.11,3.53-.23,5.31-.52.86-.14,1.74-.24,2.66-.34,1.53-.17,3.11-.35,4.67-.75,1.55-.39,2.94-1.05,4.29-1.68.9-.42,1.75-.82,2.59-1.12,2.46-.87,4.68-1.67,6.87-2.68,1.85-.86,3.56-1.88,5.21-2.87l1.23-.73c.58-.34,1.17-.67,1.75-1,1.52-.86,3.1-1.75,4.57-2.84.6-.45,1.22-.88,1.84-1.31,1.39-.96,2.82-1.95,4.12-3.16,1.7-1.57,3.43-3.39,5.15-5.4,1.1-1.28,1.91-2.7,2.69-4.06.45-.78.87-1.52,1.34-2.21l.51-.76c1.17-1.75,2.39-3.56,3.39-5.55.29-.58.59-1.15.9-1.72.84-1.58,1.7-3.21,2.34-5,.86-2.4,1.56-4.81,2.1-7.17.51-2.24.9-4.65,1.19-7.36.18-1.69.12-3.38.06-5.02-.03-.8-.06-1.61-.06-2.42,0-.87.05-1.73.11-2.65.1-1.56.2-3.17.01-4.79ZM1259.23,137.38c-.8.41-1.57.87-2.32,1.31-1.32.79-2.58,1.53-3.9,1.95-1.89.59-4.01,1.04-6.9,1.47l-.32.05c-2.21.33-4.5.66-6.73.66-1.88,0-3.84-.3-5.73-.6-.44-.07-.87-.14-1.31-.2-1.71-.25-3.35-.8-5.09-1.37-.55-.18-1.1-.37-1.66-.54-2.39-.75-4.5-1.59-6.45-2.58-.71-.36-1.44-.69-2.17-1.02-1.49-.68-2.9-1.31-4.05-2.19-1.85-1.41-3.49-3.18-5-4.88-1.27-1.42-2.27-3.13-3.33-4.95l-.49-.84c-1.15-1.95-2.1-4-2.91-6.26-.81-2.29-1.38-4.48-1.75-6.71-.09-.58-.2-1.16-.31-1.75-.31-1.71-.64-3.47-.64-5.21,0-1.63.31-3.21.64-4.89.14-.69.27-1.37.38-2.05.38-2.36.94-4.55,1.71-6.71.86-2.43,2.06-4.58,3.01-6.19,1.47-2.48,2.65-4.16,3.96-5.63l.55-.62c1.42-1.6,2.76-3.11,4.34-4.31,1.19-.91,2.62-1.57,4.13-2.27.68-.31,1.36-.63,2.03-.97.77-.39,1.51-.82,2.23-1.24,1.36-.79,2.64-1.54,4-1.96,1.63-.51,3.4-.75,5.27-1,.55-.07,1.1-.15,1.65-.23,2.14-.32,4.36-.32,6.7-.32h.75c2.29,0,4.46,0,6.55.31,2.17.32,4.4.84,6.81,1.59.68.21,1.38.41,2.06.6,1.66.47,3.23.9,4.6,1.6,1.95.99,3.94,2.26,5.92,3.76,1.24.95,2.29,2.2,3.41,3.52.44.53.89,1.06,1.34,1.57.44.49.89.96,1.34,1.44,1.21,1.27,2.34,2.48,3.16,3.85.84,1.43,1.41,3.1,2,4.87.18.53.36,1.07.55,1.61.17.48.35.97.53,1.45.63,1.69,1.28,3.43,1.56,5.2.34,2.11.52,4.47.52,7.02,0,2.03-.34,4.06-.67,6.02l-.16.95c-.12.7-.21,1.41-.3,2.11-.23,1.72-.45,3.35-.96,4.78-.84,2.37-1.83,4.52-2.92,6.38-1.23,2.09-2.84,3.98-4.25,5.56-1.52,1.7-3.43,3.16-5.28,4.56-1.29.98-2.81,1.71-4.42,2.49-.56.27-1.13.54-1.69.83Z"/>
  <path fill="currentcolor" class="cls-1" d="M1461.1,80.54c-.09-.64-.17-1.28-.25-1.92-.23-1.87-.47-3.8-1.05-5.66-.55-1.75-1.49-3.19-2.39-4.58-.49-.75-.95-1.46-1.32-2.17-.37-.72-.69-1.49-1.03-2.31-.64-1.54-1.31-3.14-2.41-4.58-1.34-1.74-2.95-3.21-4.51-4.62l-.92-.84c-1.45-1.33-3.08-2.36-4.65-3.35-.53-.33-1.06-.67-1.59-1.02-1.84-1.22-4.05-2.62-6.55-3.79-2.08-.98-4.38-1.87-7.04-2.72l-.81-.26c-2.05-.66-4.16-1.35-6.43-1.79-.7-.14-1.4-.3-2.11-.45-1.7-.38-3.45-.77-5.3-.95-1.6-.15-3.19-.05-4.73.04-.96.06-1.87.11-2.79.11-1.57,0-2.3-.13-3.15-.28-.9-.16-1.93-.35-3.85-.35-1.8,0-2.72.05-3.61.1-.87.05-1.7.09-3.39.09s-2.6-.01-3.46-.03c-.88-.01-1.77-.03-3.53-.03-1.92,0-2.94.18-3.84.34-.85.15-1.58.28-3.15.28-1.67,0-2.48-.06-3.34-.13-.9-.07-1.83-.14-3.65-.14-1.69,0-2.51-.05-3.38-.1-.89-.05-1.81-.1-3.61-.1-1.65,0-2.44-.08-3.29-.17-.91-.09-1.85-.19-3.7-.19-1.98,0-3.03.25-3.95.46-.82.19-1.52.36-3.04.36-2.32,0-4.81,1.65-4.81,4.12,0,1.8-.01,2.7-.03,3.6-.01.92-.03,1.83-.03,3.66s.06,2.83.12,3.75c.06.9.11,1.75.11,3.51,0,1.87.06,2.83.11,3.75.05.9.1,1.76.1,3.51,0,1.66-.13,2.46-.26,3.31-.15.92-.32,1.97-.32,3.95s.12,2.92.23,3.87c.1.87.2,1.7.2,3.39,0,1.92.11,2.9.21,3.84.09.88.18,1.71.18,3.41s-.11,2.5-.22,3.37c-.12.95-.25,1.94-.25,3.88s.08,2.86.15,3.79c.07.89.14,1.73.14,3.47s-.04,2.63-.08,3.54c-.04.91-.08,1.86-.08,3.71s-.03,2.64-.07,3.55c-.03.91-.07,1.85-.07,3.7s.1,2.89.2,3.83c.09.88.18,1.71.18,3.42,0,1.82,0,2.73.02,3.65,0,.9.02,1.81.02,3.61s-.02,2.68-.04,3.58c-.02.92-.04,1.84-.04,3.68,0,1.65-.13,2.45-.27,3.3-.15.93-.33,1.98-.33,3.95,0,1.86.04,2.8.08,3.71.04.91.08,1.77.08,3.54,0,1.88.07,2.84.13,3.77.06.9.12,1.74.12,3.49s-.11,2.5-.23,3.36c-.13.96-.26,1.95-.26,3.89s.23,3.09.43,4.04c.18.86.34,1.61.34,3.21,0,1.7-.1,2.52-.2,3.39-.11.95-.23,1.93-.23,3.86,0,1.71-.09,2.54-.18,3.42-.1.94-.2,1.92-.2,3.83,0,2.49,2.83,4.7,5.07,4.7s3.36-.15,4.45-.29c.97-.13,1.89-.25,3.74-.28,3.3-.06,3.92-.05,6.22-.05h1.92c1.88,0,2.79.15,3.76.31,1.08.17,2.2.36,4.4.36,2.41,0,4.78-2.34,4.78-4.73,0-1.89-.17-2.89-.32-3.78-.14-.83-.26-1.55-.26-3.1,0-1.68.03-2.52.06-3.36.03-.88.07-1.76.07-3.51,0-1.51.14-2.22.31-3.03.19-.9.4-1.92.4-3.84s-.11-2.77-.22-3.67c-.1-.82-.19-1.6-.19-3.2,0-1.76-.04-2.66-.08-3.53-.04-.86-.08-1.67-.08-3.35s.04-2.49.08-3.35c.04-.87.08-1.76.08-3.53,0-1.63.07-2.42.14-3.26.08-.89.16-1.8.16-3.61s-.56-3.06-.97-3.99c-.15-.33-.34-.78-.35-.9,0,0,.06-.17.42-.51q.71-.67,1.89-.23c.92.34,2.19.82,3.93.82,1.88,0,2.83-.07,3.76-.14.89-.07,1.73-.13,3.46-.13,1.85,0,2.79-.04,3.7-.08.9-.04,1.76-.08,3.52-.08s2.67.02,3.56.04c.91.02,1.82.04,3.64.04.7,0,1.39.01,2.07.02,1.75.03,3.57.06,5.36-.1.87-.08,1.75-.12,2.62-.15,1.59-.07,3.23-.14,4.85-.45,2.6-.5,5.06-1.12,7.31-1.82,1.65-.51,3.07-1.33,4.44-2.11.81-.46,1.57-.9,2.33-1.24.77-.35,1.57-.65,2.42-.97,1.51-.56,3.08-1.15,4.52-2.07,1.82-1.17,3.37-2.58,4.87-3.94.33-.3.67-.6,1-.9,1.57-1.4,2.81-3.01,4.01-4.57.31-.4.61-.79.92-1.19l.52-.66c1.36-1.7,2.77-3.46,3.87-5.53,1.29-2.42,2.28-4.71,3.02-6.98.63-1.95,1.41-4.56,1.83-7.37.32-2.14.71-4.81.71-7.55,0-2.31-.33-4.49-.64-6.6l-.15-.99ZM1424.67,99.86c-1.03,1.6-2.27,3.41-3.9,4.7-1.31,1.04-3.05,1.98-5.46,2.96-1.95.79-4.19,1.23-6.11,1.55-.5.08-1.01.18-1.53.28-1.58.3-3.21.6-4.86.6s-2.5,0-3.33.02c-.82,0-1.64.02-3.29.02s-2.44-.02-3.25-.04c-.84-.02-1.68-.04-3.36-.04-1.47,0-2.16-.12-2.95-.27-.86-.16-1.83-.33-3.66-.33-1.73,0-2.97.55-3.88.96-.24.11-.56.25-.74.3-.07-.05-.18-.15-.35-.35-.86-1.01-.82-1.14-.42-2.42.29-.92.68-2.18.68-3.93s.11-2.69.23-3.63c.13-1.01.26-2.06.26-4.13s-.22-3.27-.42-4.26c-.19-.94-.35-1.75-.35-3.49,0-1.83.1-2.72.2-3.66.11-1.01.23-2.05.23-4.1,0-1.84.09-2.73.18-3.68.1-1,.2-2.04.2-4.07s-.56-3.28-.97-4.26q-.51-1.22.21-2.06h0c.53-.62.75-.69.76-.69,0,0,.02,0,.03,0,.21,0,.81.21,1.23.36.66.23,1.48.52,2.52.74,2.3.5,3.22.46,4.66.35.61-.05,1.3-.1,2.36-.1,1.54,0,2.29.08,3.09.17.87.09,1.76.19,3.52.19,1.9,0,2.9-.25,3.79-.47.76-.19,1.41-.35,2.82-.35s2.71.3,4.14.62c.73.16,1.44.32,2.15.44,1.98.33,3.93.89,5.96,1.7,1.89.75,3.86,1.59,5.41,2.78,1.48,1.13,3.15,2.52,4.31,4.24.8,1.18,1.2,2.74,1.63,4.38.11.43.22.86.34,1.29l.25.89c.49,1.72.96,3.34.96,5.08v.91c.01,1.96.02,3.8-.39,5.36-.45,1.71-1.52,3.33-2.54,4.91l-.35.54Z"/>
  <path fill="currentcolor" class="cls-1" d="M1603.59,149.51c-.11-1.1-.22-2.13-.22-4.26,0-2.53-2.69-4.56-4.93-4.56-1.69,0-2.52-.05-3.39-.1-.89-.05-1.81-.1-3.61-.1-1.7,0-2.52-.04-3.39-.09-.89-.05-1.81-.1-3.61-.1s-2.58-.03-3.43-.06c-.89-.03-1.78-.06-3.56-.06h-6.99c-1.82,0-2.75.06-3.64.13-.86.06-1.68.12-3.35.12h-6.99c-1.65,0-2.45-.07-3.3-.16-.91-.09-1.85-.18-3.69-.18s-2.94.18-3.84.33c-.85.15-1.58.27-3.16.27s-2.27-.14-3.11-.31c-.91-.18-1.94-.38-3.88-.38h-7c-1.77,0-3.01.52-3.92.9-.31.13-.73.31-.85.31,0,0-.19-.06-.61-.48q-.68-.68-.31-1.75c.3-.87.71-2.06.71-3.72,0-1.79-.02-2.68-.03-3.57-.02-.87-.03-1.75-.03-3.5s-.05-2.74-.1-3.63c-.05-.88-.09-1.71-.09-3.42s-.41-2.88-.72-3.78q-.43-1.29.26-2,.84-.86,2.42-.29c.73.26,1.63.59,2.79.85,2.44.55,3.51.41,4.75.25.69-.09,1.39-.18,2.58-.18,1.78,0,2.68-.05,3.56-.09.86-.04,1.68-.09,3.35-.09s2.4.09,3.23.18c.9.1,1.83.2,3.67.2s2.68-.04,3.55-.09c.86-.04,1.68-.08,3.36-.08s2.42.08,3.26.16c.9.09,1.82.18,3.65.18s2.74-.08,3.63-.16c.84-.07,1.64-.14,3.28-.14,1.75,0,2.62-.02,3.49-.03.85-.02,1.71-.03,3.42-.03s2.44.07,3.28.14c.89.08,1.81.16,3.62.16h6.91c2.39,0,5.23-2.78,5.23-5.12,0-2.21.03-3.31.06-4.41.03-1.13.06-2.26.06-4.52s-.05-3.43-.1-4.55c-.05-1.12-.1-2.19-.1-4.38,0-2.32-2.74-4.97-5.15-4.97-1.64,0-2.44-.07-3.28-.15-.89-.08-1.82-.16-3.64-.16s-2.87.15-3.75.28c-.81.12-1.58.24-3.16.24s-2.38-.1-3.2-.2c-.91-.12-1.85-.23-3.71-.23-1.72,0-2.58,0-3.44,0-.87,0-1.73-.01-3.46-.01-1.86,0-2.81.13-3.72.25-.82.11-1.59.21-3.19.21-1.71,0-2.56-.02-3.42-.03-.87-.02-1.75-.03-3.49-.03s-2.68.05-3.55.09c-.86.04-1.68.08-3.35.08-1.55,0-2.27-.13-3.11-.27-.89-.16-1.9-.33-3.8-.33-1.72,0-2.58,0-3.44,0-.86,0-1.73,0-3.46,0s-2.98.51-3.87.88c-.3.12-.75.32-.86.3,0,0-.21-.04-.66-.46-.22-.21-.33-.34-.37-.41.04-.16.16-.46.25-.69.34-.84.8-1.98.8-3.6,0-1.7-.1-2.57-.2-3.4-.09-.75-.17-1.47-.17-2.93s.07-2.22.14-2.99c.08-.82.15-1.67.15-3.35s-.45-2.75-.78-3.59c-.11-.28-.26-.67-.28-.72,0,0,.06-.15.4-.46q.75-.69,1.89-.33c.84.26,1.98.62,3.56.62,1.76,0,2.66-.04,3.52-.07.86-.03,1.68-.07,3.36-.07s2.46.05,3.31.11c.88.06,1.79.12,3.57.12s2.71-.07,3.59-.13c.85-.06,1.64-.12,3.29-.12s2.53.03,3.37.05c.88.03,1.75.06,3.5.06s2.65-.04,3.52-.07c.86-.03,1.68-.07,3.36-.07,1.52,0,2.22.14,3.04.31.9.18,1.92.39,3.83.39,1.77,0,2.67-.05,3.55-.1.86-.05,1.66-.09,3.33-.09,1.82,0,2.74-.09,3.63-.18.83-.08,1.62-.16,3.24-.16,1.76,0,2.63-.03,3.51-.06.84-.03,1.68-.06,3.36-.06s2.61-.02,3.48-.04c.85-.02,1.7-.03,3.4-.03,2.32,0,5.11-2.02,5.11-4.53,0-2.2.03-3.3.07-4.41.03-1.11.07-2.26.07-4.52s0-3.36-.02-4.48c0-1.11-.02-2.22-.02-4.45,0-2.34-2.78-5.01-5.21-5.01-1.89,0-2.84.05-3.77.09-.92.05-1.79.09-3.57.09s-2.74,0-3.66-.01c-.92,0-1.84-.01-3.69-.01-1.74,0-2.59-.08-3.48-.16-.95-.09-1.93-.18-3.85-.18s-2.86.06-3.79.11c-.91.05-1.78.1-3.55.1-1.87,0-2.81.03-3.74.07-.9.03-1.8.06-3.6.06s-2.59-.08-3.48-.16c-.95-.09-1.93-.18-3.86-.18s-2.93.11-3.88.21c-.89.09-1.73.18-3.46.18h-7.34c-1.75,0-2.6-.07-3.5-.15-.94-.08-1.92-.16-3.84-.16s-2.97.14-3.94.27c-.87.12-1.7.23-3.4.23s-2.61-.06-3.52-.13c-.94-.07-1.91-.15-3.82-.15s-2.82.03-3.74.07c-.9.03-1.8.06-3.6.06s-2.54-.1-3.43-.21c-.96-.12-1.96-.24-3.91-.24s-2.93.11-3.88.21c-.89.1-1.73.19-3.46.19-2.46,0-4.63,2.06-4.63,4.4,0,1.85.08,2.78.16,3.69.07.86.14,1.68.14,3.35s-.11,2.4-.24,3.23c-.14.94-.28,1.9-.28,3.81,0,1.72-.03,2.55-.07,3.44-.04.89-.07,1.8-.07,3.6,0,1.94.19,2.97.36,3.88.16.85.29,1.58.29,3.15,0,1.75,0,2.62-.02,3.5-.01.89-.02,1.77-.02,3.54s.02,2.67.04,3.56c.02.87.04,1.74.04,3.47,0,1.58-.13,2.31-.29,3.16-.16.91-.35,1.93-.35,3.87,0,1.79.03,2.69.06,3.59.03.86.06,1.72.06,3.45s.02,2.68.05,3.57c.02.87.05,1.73.05,3.46s-.04,2.54-.08,3.42c-.04.89-.09,1.81-.09,3.62,0,1.91.16,2.93.3,3.83.13.83.25,1.61.25,3.21s-.08,2.47-.16,3.32c-.09.91-.18,1.86-.18,3.71s.02,2.67.04,3.56c.02.87.04,1.74.04,3.48s0,2.65,0,3.53c0,.88,0,1.75,0,3.51s0,2.65,0,3.53c0,.88,0,1.75,0,3.51s-.05,2.51-.11,3.38c-.06.9-.12,1.82-.12,3.65s.04,2.71.07,3.6c.04.88.07,1.72.07,3.44,0,2.38,2.27,4.64,4.67,4.64,1.86,0,2.8,0,3.73,0,.93,0,1.85,0,3.71,0s2.78,0,3.71.01c.93,0,1.87.01,3.73.01s2.77,0,3.7.02c.93.01,1.87.02,3.74.02,2,0,3.02-.15,4-.29.88-.13,1.72-.25,3.43-.25,1.83,0,2.75.02,3.66.05.94.03,1.88.05,3.77.05s2.77,0,3.7.02c.93,0,1.87.02,3.73.02s2.78,0,3.7.01c.93,0,1.86.01,3.73.01s2.77.01,3.69.02c.93.01,1.87.02,3.74.02s2.83-.03,3.77-.06c.91-.03,1.83-.06,3.65-.06,1.7,0,2.53.13,3.41.27.99.16,2.01.32,4.03.32s3-.13,3.98-.26c.89-.12,1.73-.23,3.46-.23,1.89,0,2.83-.03,3.78-.06.91-.03,1.83-.05,3.66-.05s2.76.01,3.69.03c.94.01,1.87.03,3.74.03s2.83-.03,3.77-.05c.92-.03,1.83-.05,3.66-.05,2.42,0,4.71-2.22,4.71-4.57,0-2.08.15-3.1.31-4.17.18-1.17.36-2.38.36-4.76s-.12-3.52-.24-4.67Z"/>
  <path fill="currentcolor" class="cls-1" d="M513.72,66.75c-.92-1.56-2.08-2.94-3.2-4.28-.4-.47-.8-.95-1.19-1.44-1.46-1.82-3.17-3.44-4.83-5.01l-.13-.12c-.54-.51-1.06-1.07-1.62-1.67-1.06-1.14-2.16-2.31-3.52-3.32-1.49-1.1-3.12-2.01-4.7-2.89-.47-.26-.94-.53-1.42-.8-1.42-.82-2.94-1.43-4.4-2.02-.69-.28-1.39-.56-2.09-.87-.72-.32-1.45-.69-2.21-1.09-1.32-.69-2.68-1.4-4.22-1.9-1.42-.47-2.87-.69-4.27-.91-.93-.14-1.81-.28-2.68-.48-.82-.19-1.67-.5-2.58-.83-1.33-.48-2.7-.99-4.23-1.21-1.54-.23-3.12-.29-4.64-.35-.8-.03-1.61-.06-2.42-.12l-1.33-.1c-1.84-.14-3.75-.28-5.72-.28-1.75,0-3.45.18-5.09.35-.73.08-1.46.15-2.18.21-2.4.2-4.83.5-7.23.9-2.15.36-4.22.91-6.23,1.43l-.87.23c-.74.19-1.48.36-2.22.54-1.6.37-3.25.75-4.85,1.34l-.25.09c-2.18.79-4.43,1.61-6.56,2.63-1.47.71-2.75,1.62-3.98,2.51-.75.54-1.46,1.05-2.18,1.49-.65.4-1.32.77-1.98,1.15-1.42.81-2.9,1.64-4.26,2.69-2.23,1.72-4.01,3.23-5.6,4.77-.36.35-.72.69-1.08,1.04-1.39,1.32-2.83,2.68-4.09,4.22-1.63,1.99-3.1,4-4.36,5.97-.87,1.37-1.4,2.84-1.91,4.26-.32.9-.63,1.75-1.01,2.54-.34.71-.73,1.41-1.14,2.15-.77,1.39-1.56,2.82-2.11,4.44-.67,1.94-1.09,3.95-1.51,5.89l-.27,1.24c-.16.72-.34,1.43-.52,2.15-.41,1.61-.83,3.27-1.02,5.04-.26,2.45-.49,4.86-.49,7.35s.13,4.94.38,7.36c.2,1.93.63,3.78,1.04,5.56.13.56.26,1.12.38,1.67.44,2.03,1.11,3.94,1.75,5.78l.43,1.24c.8,2.36,1.61,4.65,2.67,6.85l.56,1.18c.85,1.79,1.72,3.64,2.82,5.38,1.2,1.88,2.61,4.05,4.25,6.05,1.09,1.33,2.34,2.44,3.56,3.51.6.53,1.19,1.05,1.76,1.61.55.54,1.09,1.1,1.63,1.66,1.13,1.18,2.3,2.4,3.67,3.46,1.56,1.2,3.25,2.21,4.89,3.19.44.26.87.52,1.31.79,1.62.99,3.33,1.78,4.98,2.54.52.24,1.05.49,1.57.73.71.34,1.42.71,2.13,1.09,1.41.75,2.88,1.52,4.48,2.1,2.33.84,4.72,1.46,7.03,2.06,1.95.51,3.95.83,5.89,1.15l1.29.21c.7.12,1.4.25,2.1.38,1.64.31,3.34.63,5.11.77.8.06,1.59.09,2.39.09.84,0,1.67-.02,2.49-.05.8-.02,1.61-.05,2.42-.05,2.62,0,5.14-.17,7.71-.35,2.23-.16,4.36-.49,6.43-.81l1.24-.19c2.26-.34,4.6-.81,7.57-1.53.81-.19,1.61-.36,2.41-.53,1.69-.36,3.45-.73,5.13-1.31,1.87-.64,3.57-1.48,5.22-2.3.63-.31,1.25-.62,1.88-.91,2.21-1.03,4.38-2.22,6.82-3.75l.72-.45c1.94-1.21,3.95-2.46,5.75-3.95.49-.41.99-.81,1.48-1.21,1.53-1.23,3.11-2.49,4.44-4.02,1.61-1.83,3.44-3.98,4.86-6.33,1.25-2.06,1.23-4.64-.05-6.91-1.3-2.31-3.63-3.74-6.09-3.74-2.07,0-3.1.03-4.13.06-1,.03-2.01.06-4.02.06-3.64,0-4.02,0-6.97-.07l-1.14-.02c-2.54-.05-3.52-.04-4.86-.02-.82.01-1.78.02-3.34.02s-3.32.71-4.62,1.9l-.66.61c-1.49,1.38-3.03,2.81-4.82,3.77-1.97,1.06-4.2,1.96-6.62,2.69-1.46.44-3.11.61-4.87.79-.75.08-1.5.16-2.26.25l-.53.07c-2.16.29-4.39.58-6.67.58h-.64c-2.2,0-4.29,0-6.25-.29-2.72-.42-4.86-.9-6.72-1.51-1.47-.49-2.85-1.29-4.31-2.14-.59-.34-1.18-.69-1.77-1.01-1.79-.97-3.55-2.19-5.57-3.83-1.88-1.54-3.43-3.3-4.69-4.82-.32-.38-.64-.76-.97-1.14-1.2-1.4-2.33-2.72-3.16-4.23-1.02-1.85-1.72-3.94-2.45-6.15l-.44-1.31c-.6-1.76-1.22-3.58-1.51-5.42-.31-2.01-.62-4.39-.62-6.87,0-1.47.3-2.93.62-4.47.16-.77.32-1.54.44-2.31.44-2.75.9-4.79,1.52-6.59.2-.6.39-1.2.58-1.79.53-1.66,1.02-3.24,1.78-4.59,1.33-2.37,2.53-4.17,3.8-5.68,1.54-1.84,3.17-3.47,4.84-4.83,1.7-1.39,3.7-2.53,5.77-3.67,1.43-.79,3.05-1.31,4.76-1.86.54-.17,1.08-.35,1.61-.53l1.02-.35c1.88-.65,3.66-1.26,5.52-1.56,2.31-.37,4.58-.71,6.83-.71,2.49,0,4.88.31,7.08.64,2.5.38,4.85,1.1,6.82,1.77,2.42.81,4.54,1.96,6.3,2.97l.52.3c1.96,1.12,3.8,2.19,5.25,3.54,1.49,1.39,2.57,3.14,3.72,4.99l.33.54c1.13,1.8,3.33,2.88,5.89,2.88,1.87,0,2.81-.03,3.74-.06.9-.03,1.81-.06,3.62-.06,1.7,0,2.53.11,3.41.24.97.13,1.98.27,3.96.27s2.96-.12,3.93-.24c.89-.11,1.72-.21,3.44-.21,2.34,0,4.52-1.16,5.83-3.09,1.23-1.81,1.48-3.99.7-5.98-.94-2.36-2-4.55-3.15-6.52Z"/>
  <path fill="currentcolor" class="cls-1" d="M1136.79,67.73l-.5-.85c-.95-1.6-2.12-3.02-3.26-4.39-.36-.43-.72-.87-1.08-1.31-.37-.46-.73-.93-1.09-1.4-1.05-1.37-2.14-2.79-3.5-4.08-1.31-1.24-2.77-2.29-4.19-3.3-.49-.35-.98-.69-1.46-1.05-1.79-1.32-3.72-2.72-5.89-3.96-1.77-1.02-3.67-1.85-5.51-2.65l-.89-.39c-.55-.24-1.1-.49-1.65-.75-1.54-.71-3.13-1.44-4.86-2.01-1.81-.59-3.7-1.02-5.53-1.44l-1.31-.3c-2.27-.53-4.64-.87-6.93-1.21-.72-.1-1.44-.23-2.17-.36-1.54-.27-3.13-.54-4.88-.66-2.24-.16-4.55-.32-6.95-.32-1.84,0-3.62.17-5.35.34-.64.06-1.27.12-1.91.17-.87.07-1.75.1-2.62.13-1.52.05-3.09.1-4.67.37-1.6.27-3.08.76-4.51,1.23-.87.29-1.7.56-2.52.77-.85.22-1.72.39-2.64.57-1.47.28-3,.58-4.48,1.12l-.67.24c-2.05.74-4.16,1.51-6.16,2.47-1.47.71-2.75,1.62-3.98,2.51-.75.54-1.46,1.05-2.18,1.49-1.95,1.19-3.91,2.55-6,4.17-.67.51-1.37.99-2.12,1.49-1.28.86-2.61,1.75-3.79,2.9-1.99,1.93-3.64,3.69-5.04,5.4-1.32,1.6-2.42,3.35-3.49,5.04l-.67,1.06c-1.24,1.95-2.41,4.06-3.56,6.45-.26.55-.54,1.1-.82,1.65-.81,1.61-1.65,3.27-2.26,5.07-.52,1.52-.71,3.07-.89,4.56-.12.95-.23,1.85-.41,2.71-.46,2.12-.81,4.41-1.11,7.22-.05.5-.11,1.01-.17,1.51-.21,1.85-.43,3.77-.43,5.77,0,.85-.04,1.71-.08,2.55-.08,1.56-.16,3.18.01,4.8.18,1.76.61,3.42,1.01,5.02.19.73.37,1.46.53,2.19.11.49.21.99.31,1.48.39,1.87.79,3.8,1.43,5.67.79,2.3,1.73,4.6,2.8,6.83.79,1.65,1.79,3.12,2.75,4.55.38.57.77,1.14,1.13,1.71,1.33,2.09,2.66,4.12,4.21,6.02l.68.83c1.29,1.59,2.62,3.23,4.16,4.71,1.76,1.7,3.68,3.2,5.64,4.72,1.72,1.33,3.78,2.86,6.01,4.22.51.31,1.01.63,1.52.95,1.53.96,3.11,1.96,4.82,2.77,1.74.83,3.58,1.48,5.35,2.1.5.18,1,.35,1.5.53,2.11.76,4.5,1.63,6.97,2.27,2.4.62,4.87,1.06,7.17,1.45,1.52.25,3.04.26,4.5.27.97,0,1.89,0,2.8.08.89.07,1.82.25,2.8.45,1.42.28,2.88.57,4.45.57,2.35,0,4.81-.1,7.75-.31,1.94-.14,3.8-.45,5.61-.75.7-.12,1.39-.23,2.08-.34,1.8-.27,3.5-.74,5.13-1.19.8-.22,1.6-.44,2.4-.64.95-.23,1.91-.38,2.93-.55,1.55-.25,3.16-.51,4.71-1.04,1.71-.59,3.22-1.41,4.69-2.2.81-.44,1.58-.85,2.34-1.21,2.28-1.06,4.68-2.22,6.92-3.62,2.19-1.37,4.32-2.91,6.34-4.6l.54-.45c1.82-1.51,3.7-3.07,5.29-4.89,1.57-1.79,3.04-3.84,4.62-6.45,1.27-2.09,1.28-4.77.03-6.99-1.25-2.21-3.44-3.54-5.86-3.54-2.2,0-3.32.18-4.4.36-.96.16-1.88.31-3.75.31-1.73,0-2.73.03-3.62.05-1.21.04-2.16.06-4.49,0-1.81-.05-2.71-.2-3.67-.35-1.1-.18-2.24-.36-4.53-.36-1.82,0-3.08,1.18-3.99,2.05l-.3.28c-1.07.98-2.54,1.7-4.1,2.46-.67.33-1.34.65-2,1.01-.66.35-1.31.74-1.97,1.14-1.45.87-2.82,1.69-4.34,2.15-1.29.39-2.78.5-4.36.62-.9.07-1.84.14-2.79.26-.79.1-1.59.24-2.39.38-1.57.27-3.19.55-4.79.55-2.41,0-4.82-.32-6.86-.63-1.67-.26-3.27-.82-4.96-1.41-.53-.18-1.06-.37-1.58-.54-.82-.27-1.64-.49-2.44-.71-1.49-.4-2.89-.78-4.07-1.42-1.21-.66-2.29-1.65-3.43-2.7-.59-.54-1.2-1.1-1.84-1.63l-.7-.57c-1.59-1.29-3.09-2.5-4.31-3.97-1.31-1.58-2.81-3.47-3.94-5.53-.82-1.48-1.36-3.17-1.93-4.96-.15-.47-.3-.94-.46-1.41-.8-2.4-1.32-4.5-1.65-6.59-.09-.58-.19-1.17-.29-1.76-.29-1.66-.59-3.38-.59-5.06,0-1.54.3-3.06.61-4.67.14-.71.28-1.41.39-2.11.39-2.49.91-4.64,1.57-6.58.18-.52.35-1.04.51-1.56.56-1.73,1.09-3.37,1.89-4.8,1.01-1.8,2.29-3.62,3.92-5.56l.17-.2c1.41-1.69,2.88-3.43,4.51-4.77,1.87-1.53,3.77-2.83,5.66-3.87,1.3-.72,2.81-1.17,4.41-1.66.68-.21,1.37-.42,2.04-.64,1.92-.65,4.03-1.15,6.61-1.57,1.95-.31,4.11-.46,6.79-.46h.23c2.42,0,4.7,0,6.83.32,2.09.32,4.25.86,6.8,1.72.47.16.93.31,1.4.46,1.88.61,3.65,1.18,5.14,2.04,2.05,1.18,3.84,2.86,5.42,4.34,1.7,1.59,3.46,3.24,4.63,5.11,1.26,2.01,3.2,3.12,5.47,3.12,1.76,0,2.62.07,3.52.14.94.08,1.92.15,3.84.15,1.79,0,2.67.04,3.59.08.93.04,1.89.09,3.78.09,2.01,0,3.07-.18,4.01-.33.86-.14,1.68-.28,3.35-.28,2.37,0,4.57-1.16,5.89-3.09,1.2-1.77,1.45-3.92.67-5.88-.78-1.96-1.86-3.77-2.9-5.53Z"/>
</svg>