<svg xmlns="http://www.w3.org/2000/svg" xmlns:xlink="http://www.w3.org/1999/xlink" viewBox="0 0 502.644 329.433">
  <defs>
    <style>
      .cls-1 {
        fill: none;
      }

      .cls-2 {
        isolation: isolate;
      }

      .cls-3 {
        fill: #fcdaee;
      }

      .cls-4 {
        clip-path: url(#clip-path);
      }

      .cls-5 {
        fill: #f685c5;
      }

      .cls-6 {
        clip-path: url(#clip-path-2);
      }

      .cls-7 {
        clip-path: url(#clip-path-3);
      }

      .cls-8 {
        fill: #f9aed8;
      }

      .cls-9 {
        clip-path: url(#clip-path-4);
      }

      .cls-10 {
        clip-path: url(#clip-path-5);
      }

      .cls-11 {
        clip-path: url(#clip-path-6);
      }
    </style>
    <clipPath id="clip-path">
      <path class="cls-1" d="M82.876,189.491,53.245,219.414A111.4,111.4,0,0,1,0,249.159l29.631-29.923A111.4,111.4,0,0,0,82.876,189.491Z"/>
    </clipPath>
    <clipPath id="clip-path-2">
      <path class="cls-1" d="M24.272,55.816,53.9,25.893C69.813,9.827,93.34,0,121.686,0L92.055,29.922C63.709,29.922,40.182,39.749,24.272,55.816Z"/>
    </clipPath>
    <clipPath id="clip-path-3">
      <path class="cls-1" d="M186.307,249.492l-29.631,29.922c34.647-34.987,53.376-81.341,51.439-130.894-2.905-74.276-51.365-118.6-116.06-118.6L121.686,0c64.695,0,113.155,44.321,116.06,118.6C239.683,168.151,220.954,214.505,186.307,249.492Z"/>
    </clipPath>
    <clipPath id="clip-path-4">
      <path class="cls-1" d="M348.426,189.031,318.8,218.953a121.824,121.824,0,0,1-55.178,31.409l29.631-29.922A121.833,121.833,0,0,0,348.426,189.031Z"/>
    </clipPath>
    <clipPath id="clip-path-5">
      <path class="cls-1" d="M288.456,56.427,318.087,26.5C334.293,10.139,358.119,0,386.456,0L356.825,29.922C328.488,29.922,304.662,40.061,288.456,56.427Z"/>
    </clipPath>
    <clipPath id="clip-path-6">
      <path class="cls-1" d="M451.07,249.5l-29.632,29.922c34.648-34.988,53.376-81.344,51.438-130.9-2.906-74.276-51.356-118.6-116.051-118.6L386.456,0C451.151,0,499.6,44.321,502.507,118.6,504.445,168.153,485.717,214.509,451.07,249.5Z"/>
    </clipPath>
  </defs>
  <g id="Layer_2" data-name="Layer 2">
    <g id="Layer_1-2" data-name="Layer 1">
      <g>
        <g>
          <g class="cls-2">
            <path class="cls-3" d="M86.166,175.605c-42.343,0-69.5-27.834-70.447-76.219s37.036-85.9,92.685-85.9c65.328,0,113.4,44.758,114.862,119.764C224.851,214.311,171.825,286.9,85.283,315.94L11.116,234.881C42.425,227.627,72.248,205.844,86.166,175.605Z"/>
          </g>
          <g class="cls-2">
            <path class="cls-3" d="M277.3,236.093c32.5-8.466,62.312-30.249,76.262-59.285-42.366-1.2-70.711-27.824-71.658-76.219s38.225-87.1,93.874-87.1c65.328,0,113.385,44.758,114.852,119.764C492.214,214.311,439.2,286.9,352.656,315.94Z"/>
          </g>
        </g>
        <g>
          <g class="cls-2">
            <g class="cls-2">
              <g class="cls-4">
                <g class="cls-2">
                  <path class="cls-5" d="M0,249.159l29.631-29.923a111.4,111.4,0,0,0,53.245-29.745L53.245,219.414A111.4,111.4,0,0,1,0,249.159"/>
                </g>
              </g>
            </g>
            <g class="cls-2">
              <g class="cls-6">
                <g class="cls-2">
                  <path class="cls-5" d="M24.272,55.816,53.9,25.893C69.813,9.827,93.34,0,121.686,0L92.055,29.922c-28.346,0-51.873,9.827-67.783,25.894"/>
                </g>
              </g>
            </g>
            <g class="cls-2">
              <g class="cls-7">
                <path class="cls-8" d="M92.055,29.922,121.686,0c64.695,0,113.155,44.321,116.06,118.6,1.937,49.554-16.792,95.908-51.439,130.895l-29.631,29.922c34.647-34.987,53.376-81.341,51.439-130.894-2.905-74.276-51.365-118.6-116.06-118.6"/>
              </g>
            </g>
            <path class="cls-3" d="M92.055,29.922c64.695,0,113.155,44.322,116.06,118.6,3.139,80.274-47.958,152.152-133.1,180.913L0,249.159c30.866-7.184,59.971-28.752,73.173-58.7-41.933,0-69.361-27.567-71.243-75.48S36.95,29.922,92.055,29.922Z"/>
          </g>
          <g class="cls-2">
            <g class="cls-2">
              <g class="cls-9">
                <g class="cls-2">
                  <path class="cls-5" d="M263.617,250.362l29.631-29.922a121.833,121.833,0,0,0,55.178-31.409L318.8,218.953a121.824,121.824,0,0,1-55.178,31.409"/>
                </g>
              </g>
            </g>
            <g class="cls-2">
              <g class="cls-10">
                <g class="cls-2">
                  <path class="cls-5" d="M288.456,56.427,318.087,26.5C334.293,10.139,358.119,0,386.456,0L356.825,29.922c-28.337,0-52.163,10.139-68.369,26.505"/>
                </g>
              </g>
            </g>
            <g class="cls-2">
              <g class="cls-11">
                <path class="cls-8" d="M356.825,29.922,386.456,0C451.151,0,499.6,44.321,502.507,118.6c1.938,49.556-16.79,95.912-51.437,130.9l-29.632,29.922c34.648-34.988,53.376-81.344,51.438-130.9-2.906-74.276-51.356-118.6-116.051-118.6"/>
              </g>
            </g>
            <path class="cls-3" d="M356.825,29.922c64.695,0,113.145,44.322,116.051,118.6,3.139,80.274-47.95,152.152-133.089,180.913l-76.17-79.071c32.019-8.387,61.115-29.955,74.376-58.715-41.983-1.185-70.564-27.548-72.446-75.47S301.72,29.922,356.825,29.922Z"/>
          </g>
        </g>
      </g>
    </g>
  </g>
</svg>
