<svg xmlns="http://www.w3.org/2000/svg" xmlns:xlink="http://www.w3.org/1999/xlink" viewBox="0 0 509.179 332.374">
  <defs>
    <style>
      .cls-1 {
        fill: none;
      }

      .cls-2 {
        isolation: isolate;
      }

      .cls-3 {
        clip-path: url(#clip-path);
      }

      .cls-4 {
        fill: #f685c5;
      }

      .cls-5 {
        clip-path: url(#clip-path-2);
      }

      .cls-6 {
        fill: #fcdaee;
      }

      .cls-7 {
        clip-path: url(#clip-path-3);
      }

      .cls-8 {
        fill: #f9aed8;
      }

      .cls-9 {
        clip-path: url(#clip-path-4);
      }

      .cls-10 {
        clip-path: url(#clip-path-5);
      }

      .cls-11 {
        clip-path: url(#clip-path-6);
      }
    </style>
    <clipPath id="clip-path">
      <path class="cls-1" d="M481.408,275.745l-29.631,29.922c15.117-15.265,23.621-35.974,23.167-59.191-.946-48.385-28.1-76.219-70.446-76.219l29.631-29.922c42.342,0,69.5,27.834,70.446,76.219C505.029,239.77,496.525,260.48,481.408,275.745Z"/>
    </clipPath>
    <clipPath id="clip-path-2">
      <path class="cls-1" d="M424.439,141.772,454.07,111.85a100.154,100.154,0,0,0-19.941,28.485L404.5,170.257A100.154,100.154,0,0,1,424.439,141.772Z"/>
    </clipPath>
    <clipPath id="clip-path-3">
      <path class="cls-1" d="M320.576,81.784l29.631-29.922C372.525,29.325,401.212,11.341,435.011,0L405.38,29.922C371.581,41.263,342.894,59.247,320.576,81.784Z"/>
    </clipPath>
    <clipPath id="clip-path-4">
      <path class="cls-1" d="M214.662,275.107l-29.631,29.922a81.724,81.724,0,0,0,23.729-59.756c-.946-48.4-29.292-75.016-71.658-76.219l29.631-29.922c42.366,1.2,70.712,27.824,71.658,76.219A81.727,81.727,0,0,1,214.662,275.107Z"/>
    </clipPath>
    <clipPath id="clip-path-5">
      <path class="cls-1" d="M156.25,142.257l29.631-29.922a99.557,99.557,0,0,0-19.148,26.8L137.1,169.054A99.557,99.557,0,0,1,156.25,142.257Z"/>
    </clipPath>
    <clipPath id="clip-path-6">
      <path class="cls-1" d="M53.212,81.779,82.843,51.857c22.315-22.535,51-40.517,84.8-51.857L138.008,29.922C104.211,41.262,75.527,59.244,53.212,81.779Z"/>
    </clipPath>
  </defs>
  <g id="Layer_2" data-name="Layer 2">
    <g id="Layer_1-2" data-name="Layer 1">
      <g>
        <path d="M222,230.94c0,48.868-40.317,87.963-96.516,87.963-65.972,0-113.619-45.2-113.619-120.949,0-81.855,54.977-155.157,142.94-184.478l74.525,80.633c-32.987,8.551-63.53,30.543-78.19,59.863C193.9,155.194,222,182.071,222,230.94Zm268.776,1.221c0,48.869-39.095,86.742-95.294,86.742-65.972,0-113.619-45.2-113.619-120.949,0-81.855,54.978-155.157,142.94-184.478l73.3,81.854c-31.765,7.33-62.307,29.322-76.968,59.864C463.9,155.194,490.777,183.293,490.777,232.161Z"/>
        <g>
          <g class="cls-2">
            <g class="cls-2">
              <g class="cls-3">
                <g class="cls-2">
                  <path class="cls-4" d="M404.5,170.257l29.631-29.922c42.342,0,69.5,27.834,70.446,76.219.454,23.216-8.05,43.926-23.167,59.191l-29.631,29.922c15.117-15.265,23.621-35.974,23.167-59.191-.946-48.385-28.1-76.219-70.446-76.219"/>
                </g>
              </g>
            </g>
            <g class="cls-2">
              <g class="cls-5">
                <g class="cls-2">
                  <path class="cls-4" d="M424.439,141.772,454.07,111.85a100.154,100.154,0,0,0-19.941,28.485L404.5,170.257a100.154,100.154,0,0,1,19.941-28.485"/>
                </g>
              </g>
            </g>
            <path class="cls-6" d="M404.5,170.257c42.342,0,69.5,27.834,70.446,76.219s-37.036,85.9-92.685,85.9c-65.328,0-113.394-44.758-114.861-119.764C265.812,131.551,318.839,58.959,405.38,29.922l74.168,81.059C448.238,118.235,418.416,140.018,404.5,170.257Z"/>
            <g class="cls-2">
              <g class="cls-7">
                <g class="cls-2">
                  <path class="cls-4" d="M320.576,81.784l29.631-29.922C372.525,29.325,401.212,11.341,435.011,0L405.38,29.922c-33.8,11.341-62.486,29.325-84.8,51.862"/>
                </g>
              </g>
            </g>
            <polygon class="cls-8" points="405.38 29.922 435.011 0 509.179 81.059 479.548 110.981 405.38 29.922"/>
          </g>
          <g class="cls-2">
            <g class="cls-2">
              <g class="cls-9">
                <g class="cls-2">
                  <path class="cls-4" d="M137.1,169.054l29.631-29.922c42.366,1.2,70.712,27.824,71.658,76.219a81.727,81.727,0,0,1-23.729,59.756l-29.631,29.922a81.724,81.724,0,0,0,23.729-59.756c-.946-48.4-29.292-75.016-71.658-76.219"/>
                </g>
              </g>
            </g>
            <g class="cls-2">
              <g class="cls-10">
                <g class="cls-2">
                  <path class="cls-4" d="M156.25,142.257l29.631-29.922a99.557,99.557,0,0,0-19.148,26.8L137.1,169.054a99.557,99.557,0,0,1,19.148-26.8"/>
                </g>
              </g>
            </g>
            <g class="cls-2">
              <g class="cls-11">
                <g class="cls-2">
                  <path class="cls-4" d="M53.212,81.779,82.843,51.857c22.315-22.535,51-40.517,84.8-51.857L138.008,29.922c-33.8,11.34-62.481,29.322-84.8,51.857"/>
                </g>
              </g>
            </g>
            <path class="cls-6" d="M213.365,109.769c-32.5,8.466-62.312,30.249-76.263,59.285,42.366,1.2,70.712,27.824,71.658,76.219s-38.224,87.1-93.873,87.1C49.559,332.374,1.5,287.616.035,212.61-1.551,131.551,51.466,58.959,138.008,29.922Z"/>
            <polygon class="cls-8" points="138.008 29.922 167.639 0 242.996 79.847 213.365 109.769 138.008 29.922"/>
          </g>
        </g>
      </g>
    </g>
  </g>
</svg>
