<?xml version="1.0" encoding="UTF-8"?>
<svg id="Layer_2" data-name="Layer 2" xmlns="http://www.w3.org/2000/svg" viewBox="0 0 1476.5 597.63">
  <style>
    .logo-red {
      fill: var(--rec-red);
    }
  </style>
  <g id="Layer_1-2" data-name="Layer 1" fill="var(--rec-gold)">
    <path
      d="M216.4,318.36v77.86c0,1.1-.9,2-2,2h-53.41c-1.1,0-2-.9-2-2v-208.62c0-1.1.9-2,2-2h94.74c51.74,0,74.06,31.19,74.06,65.56,0,27.76-15.24,49.88-39,58.68-1.23.46-1.69,1.95-.93,3.02l58.24,82.21c.94,1.33,0,3.16-1.63,3.16h-57.1c-.66,0-1.27-.32-1.64-.86l-55.51-80.14c-.37-.54-.99-.86-1.64-.86h-12.19c-1.11,0-2,.9-2,2M241.2,279.86c21.97,0,31.89-9.92,31.89-27.99s-9.92-28.35-31.89-28.35h-22.81c-1.11,0-2,.9-2,2v52.34c0,1.1.89,2,2,2h22.81Z"
      class="logo-red"
    />
    <path
      d="M381.4,185.59h143.77c1.11,0,2,.9,2,2v39.23c0,1.1-.89,2-2,2h-86.36c-1.11,0-2,.9-2,2v31.79c0,1.1.89,2,2,2h68.65c1.1,0,2,.9,2,2v38.88c0,1.11-.9,2-2,2h-68.65c-1.11,0-2,.9-2,2v43.49c0,1.1.89,2,2,2h86.36c1.11,0,2,.89,2,2v39.23c0,1.1-.89,2-2,2h-143.77c-1.1,0-2-.9-2-2v-208.62c0-1.1.9-2,2-2"
      class="logo-red"
    />
    <path
      d="M558.35,291.9c0-68.75,53.16-110.92,114.46-110.92,28.62,0,56.21,7.56,73.97,20.66.51.38.81.98.81,1.61v43.67c0,1.68-1.93,2.6-3.24,1.56-16.6-13.11-38.03-22.14-61.96-22.14-35.79,0-63.08,23.03-63.08,65.56s27.29,65.56,63.08,65.56c23.93,0,45.36-9.04,61.96-22.14,1.32-1.04,3.24-.12,3.24,1.56v43.67c0,.64-.3,1.24-.81,1.61-17.75,13.09-45.34,20.66-73.97,20.66-61.31,0-114.46-42.17-114.46-110.92"
      class="logo-red"
    />
    <path d="M1013.23,185.59h53.41c1.1,0,2,.9,2,2v208.62c0,1.1-.9,2-2,2h-53.41c-1.1,0-2-.9-2-2v-208.62c0-1.1.9-2,2-2" />
    <path
      d="M1123.56,187.59c0-1.11.89-2,2-2h88.72c53.51,0,77.96,32.25,77.96,71.23s-24.45,71.23-77.96,71.23h-31.31c-1.1,0-2,.9-2,2v66.17c0,1.1-.9,2-2,2h-53.41c-1.11,0-2-.9-2-2v-208.62ZM1200.46,290.13c24.45,0,34.73-12.76,34.73-33.31s-10.28-33.31-34.73-33.31h-17.49c-1.1,0-2,.89-2,2v62.62c0,1.1.9,2,2,2h17.49Z"
    />
    <path
      d="M1330.73,185.59h143.77c1.1,0,2,.9,2,2v39.23c0,1.1-.9,2-2,2h-86.36c-1.1,0-2,.9-2,2v31.79c0,1.1.9,2,2,2h68.65c1.1,0,2,.9,2,2v38.88c0,1.11-.9,2-2,2h-68.65c-1.1,0-2,.9-2,2v43.49c0,1.1.9,2,2,2h86.36c1.1,0,2,.89,2,2v39.23c0,1.1-.9,2-2,2h-143.77c-1.1,0-2-.9-2-2v-208.62c0-1.1.9-2,2-2"
    />
    <path d="M153.98,540.84H61.79c-2.76,0-5-2.24-5-5V61.79c0-2.76,2.24-5,5-5h92.2c2.76,0,5-2.24,5-5V5C158.98,2.24,156.74,0,153.98,0H5C2.24,0,0,2.24,0,5v587.63c0,2.76,2.24,5,5,5h148.98c2.76,0,5-2.24,5-5v-46.79c0-2.76-2.24-5-5-5" />
    <polygon points="750.14 56.79 852.34 56.79 852.34 540.84 750.14 540.84 750.14 597.63 909.13 597.63 909.13 0 750.14 0 750.14 56.79" />
  </g>
</svg>
