<?xml version="1.0" encoding="UTF-8"?>
<svg id="Layer_2" data-name="Layer 2" xmlns="http://www.w3.org/2000/svg" viewBox="0 0 873.447 393.692">
  <g id="Layer_1-2" data-name="Layer 1">
    <path d="M35.761,93.08c16.096-15.495,36.422-26.232,57.084-35.408C174.134,21.57,264.1,6.818,353.51,2.052c89.41-4.766,179.045,.092,268.594,1.364,33.753,.479,68.382,.599,99.925,12.245,26.081,9.629,48.459,26.581,70.111,43.603,18.875,14.838,26.817,21.033,45.27,36.358,9.007,7.48,26.334,43.458,31.787,53.641,11.12,20.763-1.977,76.074-11.92,97.349-20.663,44.211-32.384,46.801-69.535,79.468-20.655,18.162-54.599,27.912-81.03,35.999-25.354,7.757-51.063,10.645-77.45,14.405-132.638,18.897-268.019,23.949-400.929,6.44-44.516-5.864-89.281-14.434-129.659-33.483-42.413-20.009-80.413-53.695-93.068-97.551C-.685,230.088-.434,207.087,.494,184.486c1.387-33.772,4.932-50.479,19.468-73.153l15.798-18.253Z" fill="#007e84"/>
    <g>
      <path d="M574.183,235.036c-9.527,0-18.302-3.982-24.841-10.344h-43.241c10.253,27.34,36.084,46.109,68.082,46.109,31.587,0,58.111-18.768,68.707-46.109h-43.487c-6.732,6.362-15.693,10.344-25.22,10.344Z" fill="#e593cc"/>
      <path d="M537.885,197.938c0-7.502,2.46-14.642,6.605-20.594h-40.334c-1.84,6.513-2.836,13.416-2.836,20.594,0,9.515,1.692,18.519,4.781,26.754h43.241c-7.016-6.826-11.457-16.393-11.457-26.754Z" fill="#efa4cd"/>
      <path d="M644.902,177.344h-40.491c4.291,5.952,6.87,13.092,6.87,20.594,0,10.361-4.655,19.928-11.878,26.754h43.487c3.192-8.236,4.956-17.24,4.956-26.754,0-7.178-1.038-14.081-2.944-20.594Z" fill="#efa4cd"/>
      <path d="M574.183,161.373c12.146,0,23.375,6.465,30.228,15.971h40.491c-8.865-30.297-36.89-52.002-70.719-52.002-34.27,0-61.469,21.705-70.027,52.002h40.334c6.62-9.506,17.547-15.971,29.693-15.971Z" fill="#efb9d7"/>
      <rect x="75.795" y="224.692" width="37.076" height="43.673" fill="#e593cc"/>
      <path d="M117.82,177.344h-42.025v47.348h37.076v-32.093c0-5.605,1.831-10.81,4.949-15.256Z" fill="#efa4cd"/>
      <path d="M147.262,162.777c6.716,0,13.97,1.613,26.061,8.598l4.836-36.271c-8.061-7.792-20.418-8.866-33.315-8.866-19.076,0-31.973,10.21-38.689,22.299l-5.911-23.106-24.449,14.395v37.519h42.025c6.148-8.767,17.318-14.567,29.442-14.567Z" fill="#efb9d7"/>
      <path d="M270.927,235.036c-9.527,0-18.302-3.982-24.841-10.344h-43.241c10.253,27.34,36.084,46.109,68.083,46.109,31.587,0,58.111-18.768,68.707-46.109h-43.487c-6.731,6.362-15.693,10.344-25.22,10.344Z" fill="#e593cc"/>
      <path d="M234.629,197.938c0-7.502,2.46-14.642,6.605-20.594h-40.334c-1.84,6.513-2.836,13.416-2.836,20.594,0,9.515,1.692,18.519,4.781,26.754h43.241c-7.016-6.826-11.457-16.393-11.457-26.754Z" fill="#efa4cd"/>
      <path d="M341.646,177.344h-40.491c4.291,5.952,6.87,13.092,6.87,20.594,0,10.361-4.655,19.928-11.878,26.754h43.487c3.192-8.236,4.956-17.24,4.956-26.754,0-7.178-1.038-14.081-2.944-20.594Z" fill="#efa4cd"/>
      <path d="M270.927,161.373c12.146,0,23.375,6.465,30.228,15.971h40.491c-8.865-30.297-36.89-52.002-70.719-52.002-34.27,0-61.469,21.705-70.027,52.002h40.334c6.62-9.506,17.547-15.971,29.693-15.971Z" fill="#efb9d7"/>
      <polygon points="423.879 79.142 384.486 102.325 384.486 125.261 423.719 125.261 423.879 79.142" fill="#f5d3e6"/>
      <path d="M441.981,236.393c-5.685,0-11.587-3.764-15.093-11.701h-40.857c5.887,31.387,28.324,46.091,59.98,46.091,12.359,0,28.481-4.299,38.152-13.97l-19.324-32.121h-1.321c-7.35,8.921-12.188,11.701-21.538,11.701Z" fill="#e593cc"/>
      <path d="M463.519,224.692h1.321l-.558-.927c-.26,.323-.509,.619-.763,.927Z" fill="#f1faee"/>
      <path d="M423.712,207.377v-30.033h-39.226v29.763c0,6.363,.537,12.211,1.545,17.585h40.857c-1.961-4.441-3.176-10.183-3.176-17.315Z" fill="#efa4cd"/>
      <polygon points="376.962 127.311 369.328 145.435 384.486 154.179 384.486 177.344 423.712 177.344 423.712 157.941 468.042 157.941 472.341 127.311 423.712 127.311 423.719 125.261 384.486 125.261 384.486 127.311 376.962 127.311" fill="#efb9d7"/>
      <polygon points="712.235 125.102 711.965 125.261 712.276 125.261 712.235 125.102" fill="#f1faee"/>
      <rect x="687.786" y="224.692" width="37.077" height="43.345" fill="#e593cc"/>
      <path d="M687.786,224.692h37.077v-32.421c0-5.468,1.745-10.554,4.725-14.927h-41.802v47.348Z" fill="#efa4cd"/>
      <path d="M687.786,177.344h41.802c6.098-8.95,17.392-14.895,29.665-14.895,6.717,0,13.97,1.612,26.061,8.598l4.836-36.271c-8.061-7.792-20.418-8.866-33.315-8.866-19.076,0-31.972,10.21-38.689,22.299l-5.871-22.947h-.311l-24.179,14.236v37.847Z" fill="#efb9d7"/>
    </g>
  </g>
</svg>