<svg xmlns="http://www.w3.org/2000/svg" viewBox="0 0 270.535 127.527"><defs><style>.cls-1{fill:#fab7dd;}.cls-2{fill:#fcdaee;}.cls-3{fill:#f685c5;}.cls-4{fill:#f466b6;}.cls-5{fill:#1b3359;}</style></defs><g id="Layer_2" data-name="Layer 2"><g id="Layer_1-2" data-name="Layer 1"><path class="cls-1" d="M247.437,53.308c.061,86.321-123.421,103.531-126.259,18.614,0-.155.115-.211,0-.317a64.583,64.583,0,0,1,3.264-18.451c2.16.225,4.3.6,6.464.824,1.241.27.689-.489,1.287-.824-26.441,87.706,105.736,84.056,87.912,2.768h0l.071-.066-.071.064C209.745,24.256,161.34,25.2,144.836,50.612c-.219.337-.258.339-.641.187a39.363,39.363,0,0,0-9.055-2.712c-.921-.212-.917,2.008-1.685,2.211a73.168,73.168,0,0,1,20.278-26.535c.345-.018.345-.018.4-.317,13.885-11.376,32.789-15.6,50.38-12.914.117.193.3.1.475.079.007.128.071.171.2.138a3.016,3.016,0,0,1,1.3.1C228.011,14.221,247.224,30.205,247.437,53.308Z"/><path class="cls-2" d="M196.823,0c.333,3.283.791,6.552,1.17,9.829-29.989-1.7-54.583,16-65.8,43.325-.6.338-.046,1.094-1.288.823-2.161-.227-4.3-.6-6.463-.823C134.717,21.956,165.817,4.592,196.823,0Z"/><path class="cls-3" d="M222.637,72.117c-.967,35.831-43.6,58.467-74.13,40.434-.015-.228-.018-.229-.162-.148-14.515-9.3-19.97-23.791-20.218-38.471A51.286,51.286,0,0,1,133.455,50.3c.767-.2.766-2.424,1.685-2.212a37.446,37.446,0,0,1,6.749,1.8c.776.285,1.537.61,2.306.915.383.152.4.137.64-.188.615-.642.991-1.759,1.769-2.135-11.22,14.413-14.047,39.106-1.343,53.427,8.751,9.644,23.56,12.09,35.54,7.709,16.818-6.531,19.575-23.787,14.913-39.5,8.743-.243,17.579-.244,26.36-.332.615.08.222-.438.567-.554C222.641,70.191,222.661,71.155,222.637,72.117Z"/><path class="cls-4" d="M162.763,35.564a42.64,42.64,0,0,1,23.651-3.873c9.278,1.006,18.655,4.146,25.436,10.785,3.889,3.79,7.2,8.539,8.339,13.909.918,4.25,2.316,8.479,2.452,12.843-.354.126.06.629-.567.555-8.782.087-17.615.09-26.36.332,4.65,15.747,1.932,32.929-14.914,39.5-10.74,3.9-23.729,2.43-32.644-4.966C138.292,96.61,135.64,82.779,137.49,70.7,139.213,55.638,148.5,41.387,162.763,35.564Z"/><path class="cls-5" d="M0,98.226V49.547L9.259,44.1,11.5,52.846A16.222,16.222,0,0,1,26.15,44.4c4.884,0,9.564.406,12.616,3.357L36.935,61.5c-4.579-2.646-7.326-3.256-9.87-3.256-6.919,0-13.024,4.985-13.024,11.294V98.226Z"/><path class="cls-5" d="M73.868,43.688a27.666,27.666,0,0,1,28.083,27.676c0,15.67-12.413,27.778-28.083,27.778C58,99.142,46.091,87.034,46.091,71.364A27.282,27.282,0,0,1,73.868,43.688Zm0,41.819A14.449,14.449,0,0,0,88.011,71.364c0-7.427-6.613-13.939-14.143-13.939a14.042,14.042,0,0,0,0,28.082Z"/><path class="cls-5" d="M111.164,51.671l2.892-6.864h2.849V35.345l14.918-8.78-.063,18.242h18.417l-1.628,11.6H131.76V75.129c0,7.53,3.561,10.989,6.919,10.989,3.663,0,5.494-1.119,8.445-4.782l7.53,12.515c-3.663,3.663-9.768,5.291-14.449,5.291-14.041,0-23.3-7.631-23.3-24.115V54.983Z"/><path class="cls-5" d="M188.738,43.688a27.667,27.667,0,0,1,28.083,27.676c0,15.67-12.414,27.778-28.083,27.778-15.873,0-27.778-12.108-27.778-27.778A27.283,27.283,0,0,1,188.738,43.688Zm0,41.819a14.45,14.45,0,0,0,14.143-14.143c0-7.427-6.614-13.939-14.143-13.939a14.042,14.042,0,0,0,0,28.082Z"/><path class="cls-5" d="M231.768,98.1V49.422l9.259-5.451,2.239,8.75a16.227,16.227,0,0,1,14.652-8.445c4.884,0,9.564.407,12.617,3.358L268.7,61.37c-4.579-2.645-7.326-3.256-9.869-3.256-6.92,0-13.024,4.986-13.024,11.3V98.1Z"/></g></g></svg>