<?xml version="1.0" encoding="UTF-8"?>
<svg id="Layer_2" data-name="Layer 2" xmlns="http://www.w3.org/2000/svg" viewBox="0 0 964.706 373.522">
  <g id="Layer_1-2" data-name="Layer 1">
    <path d="M962.541,175.178l-33.859-103.842s-30.913-53.436-97.094-70.296c-.252-.064,0-1.04,0-1.04H136.167S55.544,46.757,37.635,71.336,0,186.761,0,186.761c0,0,19.762,90.894,37.636,115.425,17.908,24.579,98.531,71.336,98.531,71.336H831.588v-1.04s79.447-46.076,97.094-70.296c13.818-18.966,28.766-77.599,34.837-103.227,1.864-7.868,1.528-16.093-.978-23.781Z" fill="#007e84"/>
    <g>
      <path d="M626.957,232.557c-9.527,0-18.302-3.982-24.841-10.344h-43.241c10.253,27.34,36.084,46.109,68.082,46.109,31.587,0,58.111-18.768,68.707-46.109h-43.487c-6.732,6.362-15.693,10.344-25.22,10.344Z" fill="#e593cc"/>
      <path d="M590.659,195.459c0-7.502,2.46-14.642,6.605-20.594h-40.334c-1.84,6.513-2.836,13.416-2.836,20.594,0,9.515,1.692,18.519,4.781,26.754h43.241c-7.016-6.826-11.457-16.393-11.457-26.754Z" fill="#efa4cd"/>
      <path d="M697.676,174.865h-40.491c4.291,5.952,6.87,13.092,6.87,20.594,0,10.361-4.655,19.928-11.878,26.754h43.487c3.192-8.236,4.956-17.24,4.956-26.754,0-7.178-1.038-14.081-2.944-20.594Z" fill="#efa4cd"/>
      <path d="M626.957,158.894c12.146,0,23.375,6.465,30.228,15.971h40.491c-8.865-30.297-36.89-52.002-70.719-52.002-34.27,0-61.469,21.705-70.027,52.002h40.334c6.62-9.506,17.547-15.971,29.693-15.971Z" fill="#efb9d7"/>
      <rect x="128.569" y="222.213" width="37.076" height="43.673" fill="#e593cc"/>
      <path d="M170.594,174.865h-42.025v47.348h37.076v-32.093c0-5.605,1.831-10.81,4.949-15.256Z" fill="#efa4cd"/>
      <path d="M200.036,160.297c6.716,0,13.97,1.613,26.061,8.598l4.836-36.271c-8.061-7.792-20.418-8.866-33.315-8.866-19.076,0-31.973,10.21-38.689,22.299l-5.911-23.106-24.449,14.395v37.519h42.025c6.148-8.767,17.318-14.567,29.442-14.567Z" fill="#efb9d7"/>
      <path d="M323.701,232.557c-9.527,0-18.302-3.982-24.841-10.344h-43.241c10.253,27.34,36.084,46.109,68.083,46.109,31.587,0,58.111-18.768,68.707-46.109h-43.487c-6.731,6.362-15.693,10.344-25.22,10.344Z" fill="#e593cc"/>
      <path d="M287.403,195.459c0-7.502,2.46-14.642,6.605-20.594h-40.334c-1.84,6.513-2.836,13.416-2.836,20.594,0,9.515,1.692,18.519,4.781,26.754h43.241c-7.016-6.826-11.457-16.393-11.457-26.754Z" fill="#efa4cd"/>
      <path d="M394.42,174.865h-40.491c4.291,5.952,6.87,13.092,6.87,20.594,0,10.361-4.655,19.928-11.878,26.754h43.487c3.192-8.236,4.956-17.24,4.956-26.754,0-7.178-1.038-14.081-2.944-20.594Z" fill="#efa4cd"/>
      <path d="M323.701,158.894c12.146,0,23.375,6.465,30.228,15.971h40.491c-8.865-30.297-36.89-52.002-70.719-52.002-34.27,0-61.469,21.705-70.027,52.002h40.334c6.62-9.506,17.547-15.971,29.693-15.971Z" fill="#efb9d7"/>
      <polygon points="476.653 76.662 437.26 99.846 437.26 122.782 476.493 122.782 476.653 76.662" fill="#f5d3e6"/>
      <path d="M494.755,233.914c-5.685,0-11.587-3.764-15.093-11.701h-40.857c5.887,31.387,28.324,46.091,59.98,46.091,12.359,0,28.481-4.299,38.152-13.97l-19.324-32.121h-1.321c-7.35,8.921-12.188,11.701-21.538,11.701Z" fill="#e593cc"/>
      <path d="M516.293,222.213h1.321l-.558-.927c-.26,.323-.509,.619-.763,.927Z" fill="#f1faee"/>
      <path d="M476.486,204.898v-30.033h-39.226v29.763c0,6.363,.537,12.211,1.545,17.585h40.857c-1.961-4.441-3.176-10.183-3.176-17.315Z" fill="#efa4cd"/>
      <polygon points="429.736 124.832 422.102 142.956 437.26 151.7 437.26 174.865 476.486 174.865 476.486 155.462 520.816 155.462 525.115 124.832 476.486 124.832 476.493 122.782 437.26 122.782 437.26 124.832 429.736 124.832" fill="#efb9d7"/>
      <polygon points="765.009 122.623 764.739 122.782 765.05 122.782 765.009 122.623" fill="#f1faee"/>
      <rect x="740.56" y="222.213" width="37.077" height="43.345" fill="#e593cc"/>
      <path d="M740.56,222.213h37.077v-32.421c0-5.468,1.745-10.554,4.725-14.927h-41.802v47.348Z" fill="#efa4cd"/>
      <path d="M740.56,174.865h41.802c6.098-8.95,17.392-14.895,29.665-14.895,6.717,0,13.97,1.612,26.061,8.598l4.836-36.271c-8.061-7.792-20.418-8.866-33.315-8.866-19.076,0-31.972,10.21-38.689,22.299l-5.871-22.947h-.311l-24.179,14.236v37.847Z" fill="#efb9d7"/>
    </g>
  </g>
</svg>