<?xml version="1.0" encoding="utf-8"?>
<!-- Generator: Adobe Illustrator 25.4.1, SVG Export Plug-In . SVG Version: 6.00 Build 0)  -->
<svg version="1.1" id="Layer_1" xmlns="http://www.w3.org/2000/svg" xmlns:xlink="http://www.w3.org/1999/xlink" x="0px" y="0px"
	 viewBox="0 0 1920 1080" style="enable-background:new 0 0 1920 1080;" xml:space="preserve">
<style type="text/css">
	.st0{clip-path:url(#SVGID_00000005254015256717918370000006475789398204334781_);}
	.st1{fill:#A8DADC;}
	.st2{fill:#75BEC1;}
	.st3{fill:#54ACB0;}
	.st4{fill:#65B5B9;}
</style>
<g id="Layer_2_00000093878800817851077830000011750443250642260360_">
	<g id="Layer_1-2">
		<g>
			<defs>
				<rect id="SVGID_1_" width="1920" height="1080"/>
			</defs>
			<clipPath id="SVGID_00000023282118192722285320000002037006348510306493_">
				<use xlink:href="#SVGID_1_"  style="overflow:visible;"/>
			</clipPath>
			<g style="clip-path:url(#SVGID_00000023282118192722285320000002037006348510306493_);">
				<rect x="-67.9" y="-26.7" class="st1" width="2019.5" height="1136"/>
				<path class="st2" d="M-116.7,981.8c0,0,390.9,0,613.7-42.3s307-196.9,311-372c8.3-358.4-109.3-604.6-109.3-604.6l194.6,2.8
					c0,0,35.6,671.3-28.3,851.6C819,947.1,695.6,992,517.1,1011.2c-178.6,19.2-682.3,6.4-682.3,6.4L-116.7,981.8z"/>
				<path class="st3" d="M214.9-71.3c0,0,411.9,443.9,369.9,629.9S324.2,841.9-70.9,820.8l-37.8,80.3
					c75.7,8.5,382.5-12.7,462.3-25.4s354.7-76.3,357.3-300.2c3.8-334.8-336.2-832.9-336.2-832.9L214.9-71.3z"/>
				<path class="st4" d="M811,570.6c7.4-318.5-87.6-554.9-108.2-602.1L420.2-186c92.9,150.1,292.8,503.6,289.9,760.8
					C707.6,798.7,432.8,862.3,352.9,875c-76.2,12.1-371.1,32.1-462.4,26.5l-3.1,83.1c35.3-0.1,400.9-1.8,612.7-42
					C722.8,900.3,807,745.7,811,570.6z"/>
				<path class="st2" d="M1974.9,981.8c0,0-390.9,0-613.7-42.3s-307-196.9-311-372c-8.3-358.4,109.3-604.6,109.3-604.6l-194.6,2.8
					c0,0-35.6,671.3,28.3,851.6c46,129.8,169.4,174.7,347.9,193.9s682.3,6.4,682.3,6.4L1974.9,981.8z"/>
				<path class="st3" d="M1643.2-71.3c0,0-411.9,443.9-369.9,629.9s260.6,283.3,655.7,262.1l37.8,80.3
					c-75.7,8.5-382.5-12.7-462.3-25.4s-354.7-76.3-357.3-300.2c-3.8-334.8,336.2-832.9,336.2-832.9L1643.2-71.3z"/>
				<path class="st4" d="M1047.1,570.6c-7.4-318.5,87.6-554.9,108.2-602.1L1437.9-186C1345-35.9,1145.1,317.6,1148,574.8
					c2.5,223.9,277.4,287.5,357.3,300.2c76.2,12.1,371.1,32.1,462.4,26.5l3.1,83.1c-35.3-0.1-400.9-1.8-612.7-42
					C1135.4,900.3,1051.2,745.7,1047.1,570.6z"/>
			</g>
		</g>
	</g>
</g>
</svg>
